
<svg xmlns="http://www.w3.org/2000/svg" version="1.1" xmlns:xlink="http://www.w3.org/1999/xlink" preserveAspectRatio="none" x="0px" y="0px" width="1280px" height="720px" viewBox="0 0 1280 720">
<defs>
<g id="Symbol_1_0_Layer0_0_FILL">
<path fill="#F8F1C3" stroke="none" d="
M 618.1 96.7
Q 615.35 95.1 611.8 95.95 604.2 97.9 594.75 102.85 594.15 103.2 594.1 103.25 593.8 103.5 593.75 103.95 593.4 107.85 592.5 115.65 591.75 122.65 591.55 127.45 591.2 128.55 591.7 129.75 592 130.55 592.95 131.7 596.8 136.5 601.35 141.5 602.4 142.65 603.15 142.95 604.25 143.45 605.6 142.8 613.9 138.85 619.1 135.55 619.65 135.2 620.9 134.65 621.95 134.05 622.15 132.9
L 627.55 103.95
Q 627.7 103.05 627.55 102.65 627.35 102 626.55 101.6 625.45 101.05 618.1 96.7
M 619.15 102.2
Q 622.15 103.05 623.85 103.85 624.35 104.1 624.4 104.4 624.4 104.6 624.25 105.25 623.2 109.15 622.4 109.65 621.45 110.25 617.95 108.85 614 107.25 608.95 108.2 603.25 109.75 600.35 110.35 597.5 110.95 597.1 110.65 596.7 110.35 596.9 107.6 597 105.65 597.75 104.7 598.55 103.65 600.5 103.35 603.35 102.95 607.45 102.15 609.8 101.75 614.55 100.8 615.6 101.2 619.15 102.2
M 663.2 111.15
Q 663.25 110.35 662.6 109.75 655.5 103.3 648.35 98.8 646.25 97.45 643.4 98.45 640.5 99.55 639.8 99.9 636.75 101.5 635.05 103.2 633 105.4 632.4 108.45 629.25 125.05 627.15 141.75 626.95 143.75 627.3 144.7 627.65 145.65 629.1 146.85 632.85 149.9 634.15 150.95 637.05 153.15 639.55 154.55 640.6 155.15 641.7 154.7 643.55 154.05 646.65 152.4 650 150.6 651.5 150 653.05 149.4 653.7 148.4 654.35 147.45 654.5 145.8 654.95 141.7 657.35 132.55
L 662.85 112.35
Q 663.15 111.55 663.2 111.15
M 653.65 107.65
L 655.05 108.9
Q 658.15 111.25 658.45 112.25 658.7 113.15 657.45 116.8 656 120.95 654.2 128.1 654.05 128.85 653.95 129.05 653.8 129.45 653.35 129.6 652.8 129.75 652.55 129.3 652.3 128.7 652.15 128.45
L 643 114.1
Q 642.05 112.6 640.15 113.7
L 633.65 117.8
Q 633.55 115.45 634 112.3 634.65 107.4 634.65 107.15 634.7 106.6 635.2 106.25 635.45 106.1 636.2 105.8 636.25 105.8 638.25 105.15 639.45 104.8 640.15 104.3 644 101.8 647.6 103.2 649.85 104.1 653.65 107.65
M 694.55 113
Q 692.75 110.15 689 109.3 688.25 109.15 676.05 106.05 675.1 105.75 674.4 106.55 671.85 109.35 670.6 110.8 668.45 113.35 667.8 115.65 663.8 129.65 660.8 142 660.55 143.05 659.9 145.35 659.55 147.35 660.2 148.6 663.65 155.6 667.55 159.55 670 162.05 670.4 162.4 672.25 163.8 674.4 163.55 677.85 163.15 681.75 161.65 684.35 160.6 688.65 158.45 692.7 156.4 693.5 152.4 695.5 141.45 696.1 135.9 697.15 126.7 696.4 119.25 695.95 115.25 694.55 113
M 690 114.5
Q 691.55 116.45 691.45 118.55
L 688.4 135.7
Q 688.2 136.75 687.6 136.7 687.25 136.65 686.5 136.05 681.6 132.1 680.4 131 679 129.75 677.3 130.35 672.8 131.6 670.6 132.25 669.7 132.5 669.35 132.25 668.95 131.95 669.1 131
L 671.25 117.35
Q 671.5 116 672.95 114.8 674.8 113.2 675.1 112.7 676 111.2 677.35 111 678.2 110.9 680.05 111.35 682.1 111.8 686.35 112.2 688.45 112.55 690 114.5 Z"/>

<path fill="#EAAB83" stroke="none" d="
M 623.85 103.85
Q 622.15 103.05 619.15 102.2 615.6 101.2 614.55 100.8 609.8 101.75 607.45 102.15 603.35 102.95 600.5 103.35 598.55 103.65 597.75 104.7 597 105.65 596.9 107.6 596.7 110.35 597.1 110.65 597.5 110.95 600.35 110.35 603.25 109.75 608.95 108.2 614 107.25 617.95 108.85 621.45 110.25 622.4 109.65 623.2 109.15 624.25 105.25 624.4 104.6 624.4 104.4 624.35 104.1 623.85 103.85
M 674.9 279.2
L 670.8 277.65
Q 671.9 279.95 672 280.25
L 676.65 292.4
Q 677.25 294 677.75 294.3 678.5 294.75 680.05 293.45 682.15 291.7 685.5 289.5 689.3 287.05 691.4 285.3 690.992578125 285.35625 690.4 284.8
L 674.9 279.2
M 611.65 352.3
Q 611.45 351.65 610.65 351.4 608.5 350.65 602.9 348.3
L 599.9 414.55
Q 599.9 415.4 599.7 417.05 599.65 418.5 600.2 419.4 600.9 420.6 605.95 428.8 606.1 429 606.25 429.55 606.45 429.95 606.9 429.8 607.65 429.6 607.65 428.5 607.55 426.7 607.5 425.85 607.45 424.25 607.55 423.2 608.25 415.25 608.85 404.1 609.45 391.4 609.75 385
L 611.7 353.5
Q 611.75 352.6 611.65 352.3
M 586.55 189.25
Q 583.55 187.8 580.65 188.65 578.6 189.3 575.7 191.5 572.7 193.85 569.5 198.3 567.75 200.8 564.2 205.8 562.5 207.9 561.1 211.4 560.25 213.35 558.75 217.35 558.15 218.85 556.75 221.8 555.65 224.45 555.85 226.65 557.6 222.8 561.4 219.8 562.25 219.1 563.45 217.9 564.7 216.5 565.35 215.85 572.5 208.4 580.9 203.35 581.9 202.75 582.45 202.75 583.25 202.75 583.85 203.7 589.5 212.35 601.1 211.85 615 211.3 625.3 197.2 625.95 196.35 625.6 195.5 625.3 194.75 623.75 194.85 623.25 194.9 619.4 195.55 616.8 195.95 615.05 195.75 607.75 194.85 603.15 199.05 602.45 199.75 601.9 200.05 600.2 201.15 598.65 200.05 598 199.6 598 198.8 598 198.4 598.25 197.35
L 598.85 195.6
Q 599.75 192.7 597.05 192.25 593.4 191.55 591.65 191.1 588.7 190.3 586.55 189.25
M 649.35 270.6
L 648.1 270.15
Q 637.7 265.85 631.8 263.1 628.05 261.35 622.55 259.05 616.35 256.45 613.25 255.1 612.3 254.7 611.85 254.9 611.35 255.15 611.15 256.3 610.35 260.3 608.75 265.3 608.1 267.3 610.2 267.7
L 651.05 276
Q 651.6 276.1 651.95 276.45 652.15 276.65 652.55 277.25 654.05 279.9 657.2 285.15 657.65 284.9 657.75 284.4 657.8 283.8 657.8 283.5 656.8 280.7 656.9 279.35 657.25 275.6 654.85 273.5 653.4 272.2 649.35 270.6
M 655.05 108.9
L 653.65 107.65
Q 649.85 104.1 647.6 103.2 644 101.8 640.15 104.3 639.45 104.8 638.25 105.15 636.25 105.8 636.2 105.8 635.45 106.1 635.2 106.25 634.7 106.6 634.65 107.15 634.65 107.4 634 112.3 633.55 115.45 633.65 117.8
L 640.15 113.7
Q 642.05 112.6 643 114.1
L 652.15 128.45
Q 652.3 128.7 652.55 129.3 652.8 129.75 653.35 129.6 653.8 129.45 653.95 129.05 654.05 128.85 654.2 128.1 656 120.95 657.45 116.8 658.7 113.15 658.45 112.25 658.15 111.25 655.05 108.9
M 707 133.05
Q 706.5 133.35 706.3 133.5 706.05 133.75 705.9 134.25 705.65 135.45 705.4 138.5 705.15 141.1 704.7 142.3 704.55 143.85 705 144.15 705.4 144.4 706.4 143.95 709.3 142.55 715.1 139.85 716.65 139.05 718.25 140.15 718.75 140.5 721.75 142.4 723.9 143.75 725.2 144.75 725.9 145.3 726.35 145.2 726.75 145.1 727.2 144.4 729.55 140.5 730.55 139.25 731.1 138.5 731 138.05 730.9 137.7 730.25 137.15 723.65 132.05 721.65 130.35 720 129 718.7 128.75 717.1 128.4 715.3 129.4 714.05 130.1 711.15 131.2 708.35 132.25 707 133.05
M 691.45 118.55
Q 691.55 116.45 690 114.5 688.45 112.55 686.35 112.2 682.1 111.8 680.05 111.35 678.2 110.9 677.35 111 676 111.2 675.1 112.7 674.8 113.2 672.95 114.8 671.5 116 671.25 117.35
L 669.1 131
Q 668.95 131.95 669.35 132.25 669.7 132.5 670.6 132.25 672.8 131.6 677.3 130.35 679 129.75 680.4 131 681.6 132.1 686.5 136.05 687.25 136.65 687.6 136.7 688.2 136.75 688.4 135.7
L 691.45 118.55 Z"/>

<path fill="#F7F1C3" stroke="none" d="
M 662.9 277.5
Q 662.45 274.6 660.95 272.8 659.6 271.25 656.95 270.1 638.9 262.15 616.55 249.35 613.65 247.65 610.85 248.75 608 249.8 606.95 253 604.25 261.05 603.2 264.55 602.95 265.35 602.55 267.05 602.15 268.55 601.65 269.5 600.95 268.95 600.75 268.1 600.65 267.85 600.6 266.65 600.35 263.8 599.65 258.65 598.9 253.1 598.65 250.65 598.55 249.6 598.4 249.15 598.1 248.35 597.45 248.1 596.7 247.85 596.05 248.45 595.75 248.75 595.2 249.65 593.95 251.65 590.7 256.05 587.7 260.05 586.3 262.5 586.2 262.65 586.05 263.15 585.95 263.55 585.75 263.75
L 586.25 262.3
Q 587.6 258.85 589.15 253.1 591.05 245.8 591.7 243.75 592.45 241.45 591.65 240.05 589.05 235.45 588.5 234.7 586.4 231.9 583.6 230.75 577.15 228.15 575.1 222.15 575.75 221.85 576.45 222.45 585 229.85 597.4 226.1 608.7 222.65 618.9 217.75 621.85 216.3 623.05 215.5 625.2 214 626.1 211.95 630.8 201.5 632.8 187.65 633.05 185.85 632.35 185.3 631.65 184.75 630.1 185.55 622.95 189.05 612.15 189.85 608.95 190.15 607.6 191.3 607.1 191.75 604.2 194 602.05 195.65 600.9 196.9 601.55 195.85 601.95 194.15 602.35 192.2 602.6 191.25 603.15 189.55 602.75 188.95 602.4 188.4 600.55 188.05 590.3 186.05 586.9 185.1 581.95 183.7 578 182.95 575.1 182.4 573.5 184.55 566.75 193.6 553.75 212.1 551.3 215.6 550.05 218.45 548.5 222 548.25 225.55 548.15 226.7 547.3 231.9 545.05 243.95 543.25 256.3 542.9 258.8 543.95 260.1 549.15 266.45 558.85 279.55 578.45 305 587.55 317.15 591.7 322.6 596.55 325.05 598.6 326.05 601.5 328.5 605.15 331.55 606.5 332.45 605.1 332.65 603.05 332.2 602 331.95 600.5 331.45
L 597.95 330.55
Q 596 329.95 595.6 330.25 595.2 330.5 595.1 332.45 594.95 334.6 594.6 338.9 593.85 357.45 593.65 361.2 593.1 371.15 592.2 391.05 591.75 402.15 590.65 424.35 590.5 428.55 589.5 450.7 589.5 451.15 589.4 452.1 589.5 452.9 590.25 453.3 592.45 452.95 592.9 452.8
L 674.2 431.3
Q 685.6 428.3 708.45 422.45 709.1 421.4 709.15 419.85 709.1 418.1 709.05 417.2 708.65 409.9 708.3 399.5 707.95 387.65 707.75 381.75
L 706.5 342.8
Q 706.45 340.35 704.1 339.7 702.85 339.45 702.2 339.25 701.1 338.95 700.35 338.4 705.45 334.95 706.45 334.05 707.5 333.15 708.55 331.05 710.25 327.6 715.05 317.45 719.05 308.95 721.7 303.95 722.9 301.65 721 300.15 717.2 296.9 715.25 295.35 711.85 292.65 708.8 291.5 698.25 287.6 697.45 287.35 695.5 286.5 694.5 286.05 692.75 285.25 691.4 285.3 689.3 287.05 685.5 289.5 682.15 291.7 680.05 293.45 678.5 294.75 677.75 294.3 677.25 294 676.65 292.4
L 672 280.25
Q 671.9 279.95 670.8 277.65
L 674.9 279.2
Q 673.320703125 278.4921875 672.25 277.95 671.1904296875 277.4609375 670.3 277.25 669.4013671875 277.044921875 668.85 277.65 668.4 279.65 668.8 282.35 669 283.85 669.6 286.9 669.7 287.45 670.6 291.6 671.2 294.4 671.1 296.25 670.55 296.4 670.2 296.05 669.9 295.8 669.6 295.3 669.15 294.65 669.05 294.5 666.35 291.15 664.85 286.4 663.7 282.95 662.9 277.5
M 648.1 270.15
L 649.35 270.6
Q 653.4 272.2 654.85 273.5 657.25 275.6 656.9 279.35 656.8 280.7 657.8 283.5 658.85 285.65 658.55 287.15 657.9 286.9 657.65 286.25 657.3 285.25 657.2 285.15 654.05 279.9 652.55 277.25 652.15 276.65 651.95 276.45 651.6 276.1 651.05 276
L 610.2 267.7
Q 608.1 267.3 608.75 265.3 610.35 260.3 611.15 256.3 611.35 255.15 611.85 254.9 612.3 254.7 613.25 255.1 616.35 256.45 622.55 259.05 628.05 261.35 631.8 263.1 637.7 265.85 648.1 270.15
M 664.05 321.35
Q 665.75 320.5 666.75 320.45 668.2 320.45 669.05 322 669.85 323.55 669.05 324.7 668.5 325.5 666.9 326.35 656.9 331.85 652.2 335.15 650.35 336.4 647.45 336.65 644.05 336.75 642.35 336.8 631.35 337.85 620.55 335.6 619.85 335.55 619.5 335.5 618.95 335.35 618.9 334.75 618.8 334 619.4 333.8 619.75 333.7 620.55 333.6 623.75 332.45 627.25 332.6 630.55 332.75 635.15 332.3 637.8 332.05 643.05 331.5 645.75 331.3 649.05 329.55 652.7 327.4 654.55 326.4 657.75 324.8 664.05 321.35
M 672.3 339.7
Q 672.25 338.3 673.7 337.7 676.25 336.5 678.45 336.75 681.05 337.05 688.3 337.4 690.85 337.5 690.8 339.45 690.75 341.7 688.2 341.7
L 681.6 341.7
Q 681.1 341.65 677.9 341.7 675.45 341.75 673.9 341.15 673 340.8 672.9 340.75 672.35 340.4 672.3 339.7
M 677.3 370.8
Q 677.45 365.2 677.6 363.35 677.9 359.15 678.7 355.95 678.75 355.15 678.8 354.75 678.95 354.05 679.7 354.1 680.35 354.15 680.5 354.8 680.55 354.85 680.6 356 681.35 367.95 681.7 382.95 681.9 391.95 682.05 409.95
L 682 412.85
Q 681.8 414.85 680.35 414.9 678.65 415 678.15 413.2 677.8 412 677.75 410.35 677.8 408.4 677.75 407.45 677.7 406.55 677.7 399.5
L 677.25 399.5
Q 677.2 389.95 677.2 385.15 677.15 376.6 677.3 370.8
M 656.85 364
Q 656.85 363.9 657.6 362.2 658.5 362.7 658.7 363.5 658.8 363.85 658.75 364.95 656.95 396.35 656.95 396.65 656.5 406.1 655.85 425 655.75 427.1 655 433.05 654.9 433.8 654.7 434.15 654.35 434.65 653.6 434.55 652.9 434.5 652.6 434.05 652.4 433.7 652.35 432.9 651.8 427.1 651.9 419.1 652.15 409.9 652.2 405.25 652.4 396.1 653.85 384.55 654.55 379.1 656.85 364
M 580.65 188.65
Q 583.55 187.8 586.55 189.25 588.7 190.3 591.65 191.1 593.4 191.55 597.05 192.25 599.75 192.7 598.85 195.6
L 598.25 197.35
Q 598 198.4 598 198.8 598 199.6 598.65 200.05 600.2 201.15 601.9 200.05 602.45 199.75 603.15 199.05 607.75 194.85 615.05 195.75 616.8 195.95 619.4 195.55 623.25 194.9 623.75 194.85 625.3 194.75 625.6 195.5 625.95 196.35 625.3 197.2 615 211.3 601.1 211.85 589.5 212.35 583.85 203.7 583.25 202.75 582.45 202.75 581.9 202.75 580.9 203.35 572.5 208.4 565.35 215.85 564.7 216.5 563.45 217.9 562.25 219.1 561.4 219.8 557.6 222.8 555.85 226.65 555.65 224.45 556.75 221.8 558.15 218.85 558.75 217.35 560.25 213.35 561.1 211.4 562.5 207.9 564.2 205.8 567.75 200.8 569.5 198.3 572.7 193.85 575.7 191.5 578.6 189.3 580.65 188.65
M 594.2 256.6
Q 594.25 255.95 594.3 255.8 594.45 255.4 594.85 255.4 595.3 255.4 595.35 255.85 595.35 256.1 595.35 256.6
L 598.35 269.25
Q 598.55 270.2 598.15 270.7 597.7 271.2 596.8 271.1 592.9 270.7 589 267.8 587.85 266.85 588.7 265.4 590.4 262.35 591.25 260.85 592.8 258.3 594.2 256.6
M 610.65 351.4
Q 611.45 351.65 611.65 352.3 611.75 352.6 611.7 353.5
L 609.75 385
Q 609.45 391.4 608.85 404.1 608.25 415.25 607.55 423.2 607.45 424.25 607.5 425.85 607.55 426.7 607.65 428.5 607.65 429.6 606.9 429.8 606.45 429.95 606.25 429.55 606.1 429 605.95 428.8 600.9 420.6 600.2 419.4 599.65 418.5 599.7 417.05 599.9 415.4 599.9 414.55
L 602.9 348.3
Q 608.5 350.65 610.65 351.4
M 706.6 128.2
Q 702.35 134.25 700.3 142.7 699 148.1 697.85 158.9 698.05 160.05 699.15 162.15 700.5 164.75 700.9 165.8 701.55 167.6 703.55 167.5 710.25 167.15 714.45 166.55 717.5 166.15 719.5 165.4 722.1 164.4 723.8 162.6 731.3 154.4 736.5 140.9 736.85 140 736.65 139.5 736.5 139 735.75 138.35 732.1 135.35 726.55 131.6 720.25 127.45 717.1 125.3 715.1 124 711.55 125.05 708.1 126.05 706.6 128.2
M 706.3 133.5
Q 706.5 133.35 707 133.05 708.35 132.25 711.15 131.2 714.05 130.1 715.3 129.4 717.1 128.4 718.7 128.75 720 129 721.65 130.35 723.65 132.05 730.25 137.15 730.9 137.7 731 138.05 731.1 138.5 730.55 139.25 729.55 140.5 727.2 144.4 726.75 145.1 726.35 145.2 725.9 145.3 725.2 144.75 723.9 143.75 721.75 142.4 718.75 140.5 718.25 140.15 716.65 139.05 715.1 139.85 709.3 142.55 706.4 143.95 705.4 144.4 705 144.15 704.55 143.85 704.7 142.3 705.15 141.1 705.4 138.5 705.65 135.45 705.9 134.25 706.05 133.75 706.3 133.5 Z"/>

<path fill="#EAAC83" stroke="none" d="
M 595.35 256.6
L 594.2 256.6
Q 592.8 258.3 591.25 260.85 590.4 262.35 588.7 265.4 587.85 266.85 589 267.8 592.9 270.7 596.8 271.1 597.7 271.2 598.15 270.7 598.55 270.2 598.35 269.25
L 595.35 256.6 Z"/>

<path fill="#E2BE92" stroke="none" d="
M 594.3 255.8
Q 594.25 255.95 594.2 256.6
L 595.35 256.6
Q 595.35 256.1 595.35 255.85 595.3 255.4 594.85 255.4 594.45 255.4 594.3 255.8 Z"/>

<path fill="#2A2A2A" stroke="none" d="
M 657.6 362.2
Q 656.85 363.9 656.85 364 654.55 379.1 653.85 384.55 652.4 396.1 652.2 405.25 652.15 409.9 651.9 419.1 651.8 427.1 652.35 432.9 652.4 433.7 652.6 434.05 652.9 434.5 653.6 434.55 654.35 434.65 654.7 434.15 654.9 433.8 655 433.05 655.75 427.1 655.85 425 656.5 406.1 656.95 396.65 656.95 396.35 658.75 364.95 658.8 363.85 658.7 363.5 658.5 362.7 657.6 362.2
M 677.6 363.35
Q 677.45 365.2 677.3 370.8 677.15 376.6 677.2 385.15 677.2 389.95 677.25 399.5
L 677.7 399.5
Q 677.7 406.55 677.75 407.45 677.8 408.4 677.75 410.35 677.8 412 678.15 413.2 678.65 415 680.35 414.9 681.8 414.85 682 412.85
L 682.05 409.95
Q 681.9 391.95 681.7 382.95 681.35 367.95 680.6 356 680.55 354.85 680.5 354.8 680.35 354.15 679.7 354.1 678.95 354.05 678.8 354.75 678.75 355.15 678.7 355.95 677.9 359.15 677.6 363.35 Z"/>

<path fill="#2B2B2A" stroke="none" d="
M 673.7 337.7
Q 672.25 338.3 672.3 339.7 672.35 340.4 672.9 340.75 673 340.8 673.9 341.15 675.45 341.75 677.9 341.7 681.1 341.65 681.6 341.7
L 688.2 341.7
Q 690.75 341.7 690.8 339.45 690.85 337.5 688.3 337.4 681.05 337.05 678.45 336.75 676.25 336.5 673.7 337.7 Z"/>

<path fill="#2A2A29" stroke="none" d="
M 666.75 320.45
Q 665.75 320.5 664.05 321.35 657.75 324.8 654.55 326.4 652.7 327.4 649.05 329.55 645.75 331.3 643.05 331.5 637.8 332.05 635.15 332.3 630.55 332.75 627.25 332.6 623.75 332.45 620.55 333.6 619.75 333.7 619.4 333.8 618.8 334 618.9 334.75 618.95 335.35 619.5 335.5 619.85 335.55 620.55 335.6 631.35 337.85 642.35 336.8 644.05 336.75 647.45 336.65 650.35 336.4 652.2 335.15 656.9 331.85 666.9 326.35 668.5 325.5 669.05 324.7 669.85 323.55 669.05 322 668.2 320.45 666.75 320.45 Z"/>

<path fill="#EFBC91" stroke="none" d="
M 657.8 283.5
Q 657.8 283.8 657.75 284.4 657.65 284.9 657.2 285.15 657.3 285.25 657.65 286.25 657.9 286.9 658.55 287.15 658.85 285.65 657.8 283.5 Z"/>
</g>

<path id="Symbol_1_0_Layer0_0_1_STROKES" stroke="#000000" stroke-width="1" stroke-linejoin="round" stroke-linecap="round" fill="none" d="
M 674.4 163.55
Q 672.25 163.8 670.4 162.4 670 162.05 667.55 159.55 663.65 155.6 660.2 148.6 659.55 147.35 659.9 145.35 660.55 143.05 660.8 142 663.8 129.65 667.8 115.65 668.45 113.35 670.6 110.8 671.85 109.35 674.4 106.55 675.1 105.75 676.05 106.05 688.25 109.15 689 109.3 692.75 110.15 694.55 113 695.95 115.25 696.4 119.25 697.15 126.7 696.1 135.9 695.5 141.45 693.5 152.4 692.7 156.4 688.65 158.45 684.35 160.6 681.75 161.65 677.85 163.15 674.4 163.55 Z
M 697.85 158.9
Q 699 148.1 700.3 142.7 702.35 134.25 706.6 128.2 708.1 126.05 711.55 125.05 715.1 124 717.1 125.3 720.25 127.45 726.55 131.6 732.1 135.35 735.75 138.35 736.5 139 736.65 139.5 736.85 140 736.5 140.9 731.3 154.4 723.8 162.6 722.1 164.4 719.5 165.4 717.5 166.15 714.45 166.55 710.25 167.15 703.55 167.5 701.55 167.6 700.9 165.8 700.5 164.75 699.15 162.15 698.05 160.05 697.85 158.9 Z
M 627.15 141.75
Q 629.25 125.05 632.4 108.45 633 105.4 635.05 103.2 636.75 101.5 639.8 99.9 640.5 99.55 643.4 98.45 646.25 97.45 648.35 98.8 655.5 103.3 662.6 109.75 663.25 110.35 663.2 111.15 663.15 111.55 662.85 112.35
L 657.35 132.55
Q 654.95 141.7 654.5 145.8 654.35 147.45 653.7 148.4 653.05 149.4 651.5 150 650 150.6 646.65 152.4 643.55 154.05 641.7 154.7 640.6 155.15 639.55 154.55 637.05 153.15 634.15 150.95 632.85 149.9 629.1 146.85 627.65 145.65 627.3 144.7 626.95 143.75 627.15 141.75 Z
M 691.4 285.3
Q 692.75 285.25 694.5 286.05 695.5 286.5 697.45 287.35 698.25 287.6 708.8 291.5 711.85 292.65 715.25 295.35 717.2 296.9 721 300.15 722.9 301.65 721.7 303.95 719.05 308.95 715.05 317.45 710.25 327.6 708.55 331.05 707.5 333.15 706.45 334.05 705.45 334.95 700.35 338.4 701.1 338.95 702.2 339.25 702.85 339.45 704.1 339.7 706.45 340.35 706.5 342.8
L 707.75 381.75
Q 707.95 387.65 708.3 399.5 708.65 409.9 709.05 417.2 709.1 418.1 709.15 419.85 709.1 421.4 708.45 422.45 685.6 428.3 674.2 431.3
L 592.9 452.8
Q 592.45 452.95 590.25 453.3 589.5 452.9 589.4 452.1 589.5 451.15 589.5 450.7 590.5 428.55 590.65 424.35 591.75 402.15 592.2 391.05 593.1 371.15 593.65 361.2 593.85 357.45 594.6 338.9 594.95 334.6 595.1 332.45 595.2 330.5 595.6 330.25 596 329.95 597.95 330.55
L 600.5 331.45
Q 602 331.95 603.05 332.2 605.1 332.65 606.5 332.45 605.15 331.55 601.5 328.5 598.6 326.05 596.55 325.05 591.7 322.6 587.55 317.15 578.45 305 558.85 279.55 549.15 266.45 543.95 260.1 542.9 258.8 543.25 256.3 545.05 243.95 547.3 231.9 548.15 226.7 548.25 225.55 548.5 222 550.05 218.45 551.3 215.6 553.75 212.1 566.75 193.6 573.5 184.55 575.1 182.4 578 182.95 581.95 183.7 586.9 185.1 590.3 186.05 600.55 188.05 602.4 188.4 602.75 188.95 603.15 189.55 602.6 191.25 602.35 192.2 601.95 194.15 601.55 195.85 600.9 196.9 602.05 195.65 604.2 194 607.1 191.75 607.6 191.3 608.95 190.15 612.15 189.85 622.95 189.05 630.1 185.55 631.65 184.75 632.35 185.3 633.05 185.85 632.8 187.65 630.8 201.5 626.1 211.95 625.2 214 623.05 215.5 621.85 216.3 618.9 217.75 608.7 222.65 597.4 226.1 585 229.85 576.45 222.45 575.75 221.85 575.1 222.15 577.15 228.15 583.6 230.75 586.4 231.9 588.5 234.7 589.05 235.45 591.65 240.05 592.45 241.45 591.7 243.75 591.05 245.8 589.15 253.1 587.6 258.85 586.25 262.3
L 585.75 263.75
Q 585.95 263.55 586.05 263.15 586.2 262.65 586.3 262.5 587.7 260.05 590.7 256.05 593.95 251.65 595.2 249.65 595.75 248.75 596.05 248.45 596.7 247.85 597.45 248.1 598.1 248.35 598.4 249.15 598.55 249.6 598.65 250.65 598.9 253.1 599.65 258.65 600.35 263.8 600.6 266.65 600.65 267.85 600.75 268.1 600.95 268.95 601.65 269.5 602.15 268.55 602.55 267.05 602.95 265.35 603.2 264.55 604.25 261.05 606.95 253 608 249.8 610.85 248.75 613.65 247.65 616.55 249.35 638.9 262.15 656.95 270.1 659.6 271.25 660.95 272.8 662.45 274.6 662.9 277.5 663.7 282.95 664.85 286.4 666.35 291.15 669.05 294.5 669.15 294.65 669.6 295.3 669.9 295.8 670.2 296.05 670.55 296.4 671.1 296.25 671.2 294.4 670.6 291.6 669.7 287.45 669.6 286.9 669 283.85 668.8 282.35 668.4 279.65 668.85 277.65 669.4013671875 277.044921875 670.3 277.25 671.1904296875 277.4609375 672.25 277.975 673.320703125 278.4921875 674.9 279.2
L 690.4 284.8
Q 690.992578125 285.35625 691.4 285.3 Z
M 591.55 127.45
Q 591.75 122.65 592.5 115.65 593.4 107.85 593.75 103.95 593.8 103.5 594.1 103.25 594.15 103.2 594.75 102.85 604.2 97.9 611.8 95.95 615.35 95.1 618.1 96.7 625.45 101.05 626.55 101.6 627.35 102 627.55 102.65 627.7 103.05 627.55 103.95
L 622.15 132.9
Q 621.95 134.05 620.9 134.65 619.65 135.2 619.1 135.55 613.9 138.85 605.6 142.8 604.25 143.45 603.15 142.95 602.4 142.65 601.35 141.5 596.8 136.5 592.95 131.7 592 130.55 591.7 129.75 591.2 128.55 591.55 127.45 Z"/>
</defs>

<g transform="matrix( 1, 0, 0, 1, 543.15,95.65) ">
<g transform="matrix( 1, 0, 0, 1, -543.15,-95.65) ">
<use xlink:href="#Symbol_1_0_Layer0_0_FILL"/>

<use xlink:href="#Symbol_1_0_Layer0_0_1_STROKES"/>
</g>
</g>
</svg>
