<?xml version="1.0" encoding="utf-8"?>
<!-- Generator: Adobe Illustrator 24.0.1, SVG Export Plug-In . SVG Version: 6.00 Build 0)  -->
<svg version="1.1" id="Layer_1" xmlns="http://www.w3.org/2000/svg" xmlns:xlink="http://www.w3.org/1999/xlink" x="0px" y="0px"
	 viewBox="0 0 504 504" style="enable-background:new 0 0 504 504;" xml:space="preserve">
<style type="text/css">
	.st0{fill:#1A1A1A;}
	.st1{fill:#808080;}
	.st2{fill:#DCDCDC;}
	.st3{fill:none;stroke:#000000;stroke-width:4;stroke-linecap:round;stroke-linejoin:round;}
	.st4{fill:#DDDDDD;}
	.st5{fill:none;stroke:#DDDDDD;stroke-width:1.65;stroke-linecap:round;}
	.st6{fill:#FF3434;}
	.st7{fill:#F7F1C3;}
	.st8{fill:#EAAB83;}
	.st9{fill:#2A2A2A;}
	.st10{fill:#2A2A29;}
	.st11{fill:#EAAC83;}
	.st12{fill:#2B2B2A;}
	.st13{fill:#F8F1C3;}
</style>
<title>Asset 2</title>
<g id="Layer_2_1_">
	<g id="Layer_1-2">
		<g id="Layer3_0_MEMBER_0_FILL">
			<path class="st0" d="M426.1,336.2l55.7-136.8L71.3,34.1L15.6,170.8L426.1,336.2z"/>
		</g>
		<g id="Layer3_0_MEMBER_1_FILL">
			<path class="st1" d="M319.6,136.4c1.5-3.7-0.2-8-3.9-9.5c0,0-0.1,0-0.1-0.1L207.4,83.2c-3.8-1.5-8.1,0.3-9.7,4.1l-3,7.4
				c-0.8,1.8-0.8,3.8,0,5.7c0.7,1.8,2.2,3.3,4.1,4l108.1,43.6c3.7,1.5,8-0.2,9.6-4c0,0,0-0.1,0-0.1L319.6,136.4z"/>
		</g>
		<g id="Layer3_0_MEMBER_2_FILL">
			<path class="st1" d="M260.4,275.9c1.8-0.7,3.2-2.2,3.9-4l3-7.4c0.8-1.8,0.8-3.8,0-5.6c-0.7-1.8-2.2-3.3-4-4l-108.1-43.5
				c-1.8-0.8-3.9-0.8-5.7,0c-1.8,0.7-3.3,2.2-4,4l-3,7.4c-0.8,1.8-0.7,3.8,0.1,5.6c0.7,1.8,2.2,3.3,4.1,4L254.7,276
				C256.5,276.8,258.6,276.7,260.4,275.9z"/>
		</g>
		<g id="Layer3_0_MEMBER_3_FILL">
			<path class="st2" d="M501.5,179.8c0.7-1.5,0.7-3.2,0-4.7c-0.6-1.5-1.8-2.7-3.3-3.3L77.8,2.5c-1.5-0.7-3.2-0.7-4.8,0
				c-1.5,0.6-2.7,1.8-3.3,3.4l-67.3,165c-0.7,1.5-0.7,3.2,0,4.7c0.6,1.5,1.8,2.7,3.4,3.3l420.5,169.4c1.5,0.6,3.2,0.6,4.7-0.1
				c1.5-0.7,2.6-1.9,3.2-3.4L501.5,179.8 M481.9,199.5l-55.7,136.7L15.6,170.8L71.3,34.1L481.9,199.5z"/>
		</g>
		<path id="Layer3_0_MEMBER_3_1_STROKES" class="st3" d="M77.8,2.5c-1.5-0.7-3.2-0.7-4.7,0c-1.5,0.6-2.7,1.8-3.3,3.4l-67.3,165
			c-0.7,1.5-0.7,3.2,0,4.7c0.6,1.5,1.8,2.7,3.4,3.3l420.4,169.4c1.5,0.7,3.2,0.6,4.7-0.1c1.5-0.6,2.6-1.9,3.2-3.4l67.3-165
			c0.6-1.5,0.6-3.2,0-4.7c-0.6-1.5-1.8-2.7-3.3-3.3L77.8,2.5z"/>
		<g id="Layer3_0_MEMBER_4_FILL">
			<path class="st4" d="M56.8,129.5c0.3,0.9,1.1,1.7,2,2l23.8,9.6L73,164.7c-0.4,0.9-0.3,1.9,0.1,2.7c0.4,0.9,1.1,1.5,1.9,1.9
				l19.3,7.8c0.9,0.4,1.9,0.4,2.8,0c0.9-0.4,1.6-1.1,1.9-2l9.6-23.7l23.8,9.6c0.9,0.4,2,0.4,2.9,0c1-0.3,1.7-1.1,2.1-2l7.7-19
				c0.4-0.9,0.4-1.9-0.1-2.8c-0.4-0.9-1.1-1.6-2-2l-23.8-9.6l9.6-23.7c0.4-0.9,0.4-1.9,0.1-2.8c-0.4-0.9-1.1-1.6-2-2l-19.3-7.8
				c-0.9-0.4-1.9-0.3-2.7,0.1c-0.9,0.3-1.7,1.1-2,2l-9.6,23.7l-23.8-9.6c-0.9-0.4-2-0.4-2.9,0c-0.9,0.3-1.6,1-2,1.9l-7.7,19
				C56.4,127.5,56.4,128.5,56.8,129.5z"/>
		</g>
		<path id="Layer3_0_MEMBER_4_1_STROKES" class="st5" d="M107.5,89.5c-0.9-0.4-1.9-0.3-2.7,0.1c-0.9,0.3-1.7,1.1-2,2l-9.6,23.7
			l-23.8-9.6c-0.9-0.4-2-0.4-2.9,0c-0.9,0.3-1.6,1-2,1.9l-7.7,19c-0.4,0.9-0.4,2,0,2.9c0.3,0.9,1.1,1.7,2,2l23.8,9.6L73,164.7
			c-0.4,0.9-0.3,1.9,0.1,2.7c0.4,0.9,1.1,1.5,1.9,1.9l19.3,7.8c0.9,0.4,1.9,0.4,2.8,0c0.9-0.4,1.6-1.1,1.9-2l9.6-23.7l23.8,9.6
			c0.9,0.4,2,0.4,2.9,0c1-0.3,1.7-1.1,2.1-2l7.7-19c0.4-0.9,0.4-1.9-0.1-2.8c-0.4-0.9-1.1-1.6-2-2l-23.8-9.6l9.6-23.7
			c0.4-0.9,0.4-1.9,0.1-2.8c-0.4-0.9-1.1-1.6-2-2L107.5,89.5z"/>
		<g id="Layer3_0_MEMBER_5_FILL">
			<path class="st1" d="M305.5,170.8l3-7.4c1.5-3.7-0.2-8-4-9.5c0,0-0.1,0-0.1,0l-108.1-43.6c-1.8-0.8-3.9-0.8-5.7,0
				c-1.8,0.7-3.3,2.2-4,4l-3,7.4c-0.8,1.8-0.7,3.8,0.1,5.6c0.7,1.8,2.2,3.3,4.1,4l108.1,43.6C299.7,176.4,304,174.6,305.5,170.8
				C305.5,170.9,305.5,170.9,305.5,170.8L305.5,170.8z"/>
		</g>
		<g id="Layer3_0_MEMBER_6_MEMBER_0_FILL">
			<path class="st4" d="M313.4,214.6c-0.9-0.4-1.9-0.4-2.8,0c-0.9,0.4-1.6,1.1-1.9,1.9l-17.1,41.9c-0.4,0.9-0.4,1.9,0,2.7
				c0.4,0.9,1.1,1.6,2,1.9l42.2,17c0.9,0.4,1.9,0.4,2.8,0c0.9-0.3,1.6-1.1,1.9-1.9l17.1-41.9c0.7-1.8-0.1-3.9-2-4.7c0,0,0,0,0,0
				L313.4,214.6z"/>
		</g>
		<g id="Layer3_0_MEMBER_6_MEMBER_1_FILL">
			<path class="st6" d="M332.6,227.6c-5.3-2.2-11.2-2.2-16.5,0.1c-5.3,2.1-9.6,6.4-11.7,11.7c-2.2,5.3-2.1,11.2,0.2,16.4
				c4.6,10.9,17.2,16.1,28.2,11.4c0,0,0.1,0,0.1,0c5.3-2.1,9.5-6.3,11.6-11.6c2.3-5.3,2.2-11.2-0.1-16.5
				C342.2,233.8,338,229.7,332.6,227.6z"/>
		</g>
		<g id="Layer3_0_MEMBER_7_MEMBER_0_FILL">
			<path class="st4" d="M413.1,258.6c0.4-0.9,0.4-1.9,0-2.8c-0.4-0.9-1.1-1.6-2-1.9l-42.2-17c-0.9-0.4-1.9-0.4-2.8,0
				c-0.9,0.4-1.6,1.1-1.9,2l-17.1,41.9c-0.7,1.8,0.2,3.9,2,4.7c0,0,0,0,0,0l42.1,17c0.9,0.4,1.9,0.4,2.8,0c0.9-0.3,1.6-1.1,1.9-1.9
				L413.1,258.6z"/>
		</g>
		<g id="Layer3_0_MEMBER_7_MEMBER_1_FILL">
			<path class="st6" d="M388.1,250c-11-4.5-23.5,0.8-28,11.8c-4.5,11,0.8,23.5,11.8,28c5.3,2.1,11.2,2.1,16.5-0.2
				c5.3-2.1,9.5-6.3,11.6-11.6c2.3-5.3,2.2-11.2-0.1-16.5C397.8,256.2,393.5,252.1,388.1,250z"/>
		</g>
		<g id="Layer3_0_MEMBER_8_FILL">
			<path class="st1" d="M290.6,201.9c1.8-0.7,3.2-2.2,3.9-4l3-7.4c1.5-3.7-0.2-8-4-9.5c0,0-0.1,0-0.1,0l-108.1-43.6
				c-1.8-0.8-3.9-0.8-5.7,0c-1.8,0.7-3.3,2.2-4,4l-3,7.4c-0.8,1.8-0.7,3.8,0.1,5.6c0.7,1.8,2.2,3.3,4.1,4l108.1,43.6
				C286.7,202.7,288.8,202.7,290.6,201.9z"/>
		</g>
		<g id="Layer3_0_MEMBER_9_FILL">
			<path class="st4" d="M276.3,242.7l10.1-24.7c0.9-2,0.9-4.3,0-6.3c-0.8-2-2.5-3.6-4.5-4.4l-106.6-43c-2-0.9-4.3-0.9-6.3,0
				c-2,0.8-3.6,2.4-4.4,4.4l-10.1,24.8c-0.9,2-0.8,4.3,0.1,6.3c0.8,2,2.5,3.6,4.5,4.4l106.6,43c2,0.9,4.3,0.9,6.3,0
				C273.9,246.4,275.5,244.8,276.3,242.7z"/>
		</g>
		<g id="Layer3_0_MEMBER_10_FILL">
			<path d="M182.6,183.6c-1.8-0.8-3.8-0.8-5.6,0c-3.7,1.5-5.4,5.7-3.9,9.4c0.7,1.8,2.2,3.2,4,4l20.7,8.4c1.8,0.8,3.8,0.7,5.6-0.1
				c3.7-1.5,5.4-5.8,3.9-9.4c-0.7-1.8-2.2-3.2-4-3.9L182.6,183.6z"/>
		</g>
		<g id="Layer3_0_MEMBER_11_FILL">
			<path d="M257.2,229.2c1.8,0.8,3.8,0.8,5.6,0c3.7-1.5,5.4-5.8,3.9-9.4c-0.7-1.8-2.2-3.2-4-3.9l-20.7-8.4c-1.8-0.8-3.8-0.8-5.6,0
				c-1.8,0.7-3.2,2.1-3.9,3.9c-0.8,1.8-0.7,3.8,0.1,5.5c0.7,1.8,2.2,3.2,4,3.9L257.2,229.2z"/>
		</g>
		<g id="Layer3_0_MEMBER_17_FILL">
			<path class="st0" d="M183.9,185.6c-1.7-0.7-3.6-0.9-5.4-0.3c-1.6,0.4-2.9,1.5-3.5,3c-0.6,1.5-0.5,3.2,0.4,4.6
				c0.9,1.6,2.4,2.8,4.1,3.5l17.2,6.9c1.7,0.8,3.6,0.9,5.4,0.4c1.6-0.4,2.9-1.5,3.5-3c0.6-1.5,0.5-3.2-0.4-4.6
				c-0.9-1.6-2.4-2.9-4.2-3.5L183.9,185.6z"/>
		</g>
		<g id="Layer3_0_MEMBER_18_FILL">
			<path class="st0" d="M256,227.2c1.7,0.7,3.6,0.9,5.4,0.3c1.6-0.4,2.9-1.5,3.5-3c0.6-1.5,0.5-3.2-0.4-4.6
				c-0.9-1.6-2.4-2.8-4.1-3.5l-17.2-6.9c-1.7-0.7-3.6-0.9-5.4-0.3c-2.7,0.6-4.4,3.4-3.8,6.1c0.1,0.6,0.4,1.1,0.7,1.6
				c0.9,1.6,2.4,2.8,4.1,3.5L256,227.2z"/>
		</g>
		<g id="Layer2_0_FILL">
			<path class="st7" d="M254.5,281.1c0.3,0.3,0.5,0.5,0.6,0.4h0.3l0.1-0.1l-0.1-0.1h-0.1L254.5,281.1 M255.8,281.6l-0.2-0.1v0.1
				H255.8 M131.3,163.8c-2,2.7-4.3,5.9-7,9.6c-4.8,6.7-10.8,15.1-17.8,25.1c-1.8,2.5-3.4,5.2-4.6,8c-1.3,2.8-2,5.8-2.3,8.9
				c-0.1,1-0.5,3.6-1.2,8c-1.9,10.1-3.6,20.3-5.1,30.7c-0.3,2.1,0,3.7,0.9,4.8c0.4,0.5,0.9,1.1,1.4,1.7c4.3,5.3,10,12.9,17.3,22.8
				c16.4,21.3,28.4,37.1,36,47.3c3.1,4,5.7,8.4,7.7,13.1c0.6,1.6,1,6.3,1.1,14.3c-0.6,15.6-1,24.9-1.2,28.1
				c-0.5,8.3-1.1,20.9-1.8,37.6c-0.4,9.3-1,23.3-1.9,41.9c-0.1,3.5-0.6,14.6-1.4,33.2c0,0.4,0,1-0.1,1.8c0.1,0.7,0.5,1.2,1.1,1.5
				c1.1-0.1,2.2-0.4,3.3-0.6l102-27.1c9.5-2.5,23.9-6.2,43-11.1c0.6-1,0.9-2.1,0.9-3.3c0-1.5-0.1-2.6-0.1-3.3
				c-0.3-6.1-0.6-13.6-0.9-22.3c-0.3-9.9-0.5-17.4-0.7-22.3l-1.6-49c-0.1-1.1-0.2-2.2-0.4-3.3c-0.3-1.7-0.1-3.4,0.6-5
				c0.8-1.6,1.8-3.8,2.9-6.6c1.1-2.8,3.6-8.2,7.5-16.4c3.9-8.1,7.1-14.3,9.5-18.4s2.2-6.7-0.8-7.9c-2.9-1-5.7-2.3-8.5-3.7
				c-4.1-2-8.3-3.7-12.5-5.1c-5.8-2.1-9.3-3.3-10.5-3.7c-1.3-0.5-2.7-0.9-4.1-1.3c-1.4-0.4-2.8-0.9-4.2-1.5
				c-0.7,1.9-2.6,3.8-5.8,5.9c-2.4,1.5-4.6,3.2-6.8,5c-1.3,1.1-2.3,1.5-2.9,1.1c-0.7-0.7-1.2-1.5-1.4-2.4l-5.8-15.2v-0.1
				c0,0-0.2-0.4-0.5-1.1c-0.1-0.5-0.2-1-0.3-1.6c0-0.3,0-0.5,0.1-0.5l-0.6-0.3c-0.3-0.1-0.5-0.2-0.8-0.3c-0.2,0-0.5-0.1-0.9-0.3
				c-0.3-0.1-0.7-0.3-1-0.5c-3.4-1.4-6.7-2.8-9.8-4.1c-1.9-0.8-3.8-1.6-5.6-2.3c-11.3-4.7-21.2-9-29.7-12.6
				c-14.8-6.4-25.5-11.2-32-14.5c-12.6-6.4-19.5-11.1-20.9-13.9c-1.3-2.9-2.6-5.5-3.7-8s-3.7-4.5-7.5-6s-6.4-3.8-7.5-6.5
				c0-0.6,0.3-0.6,0.9-0.1c7.1,6.2,15.9,7.7,26.3,4.6c9.3-2.8,18.3-6.3,27-10.5c1.8-0.8,3.5-1.8,5.2-2.8c1.7-1.1,3-2.7,3.8-4.5
				c3.5-8,6-16.3,7.5-24.9c0.1-0.7,0.3-1.4,0.4-2.2c0.2-1.1,0.3-2.3,0.5-3.5c0.2-1.5,0-2.5-0.6-3s-1.5-0.4-2.8,0.3
				c-6,2.9-13.5,4.7-22.5,5.4c-1.2,0.1-2.4,0.3-3.6,0.7c-0.8,0.2-1.5,0.6-2.1,1.1l-1.3,1.1l-3,2.3c-1.5,1.1-2.9,2.3-4.1,3.6
				c1.2-1.5,2.6-2.8,4.2-3.8c2.2-1.6,3.4-2.7,3.5-3.3c0.1-0.6,0.3-0.8,0.6-0.6s0.4-0.1,0.6-0.6s-1-1.1-3.4-1.6s-4.4-1-5.9-1.3
				c-2.1-0.4-4.1-0.8-5.8-1.1c-5.4-1.1-9.2-2-11.3-2.6c-4.1-1.2-7.9-2.1-11.2-2.7C134.9,161.3,132.6,162.1,131.3,163.8 M133.1,173.4
				c0.3-0.3,0.6-0.6,0.9-0.8c1.9-1.5,4-2.7,6.2-3.6c2.5-0.7,5.1-0.4,7.4,0.8c2.1,1,4.2,1.8,6.4,2.3c1.3,0.3,3.4,0.8,6.1,1.3l0.6,0.1
				c2.3,0.4,3,1.8,2.3,4.2l-0.8,2.2c-0.2,0.6-0.3,1.2-0.3,1.8c0,0.6,0.3,1.2,0.8,1.6c1.2,0.9,2.9,0.9,4.1,0c0.6-0.3,1.1-0.8,1.6-1.3
				c3.8-3.5,8.8-4.9,14.9-4.1c1.8,0.2,3.7,0.1,5.4-0.3c3.2-0.5,5-0.8,5.5-0.9c1.3-0.1,2.1,0.2,2.3,0.8c0.3,0.7,0.1,1.6-0.4,2.1
				c-8.6,11.8-18.7,18-30.4,18.4c-9.7,0.4-16.9-3-21.6-10.3c-0.3-0.7-1-1.1-1.8-1.2c-0.7,0.1-1.4,0.3-1.9,0.8
				c-7.2,4.4-13.7,9.6-19.5,15.7c-0.6,0.5-1.3,1.4-2.4,2.6c-1,1-1.9,1.8-2.6,2.4c-3,2.3-5.4,5.2-7,8.6c-0.1-2.1,0.3-4.2,1.1-6.1
				c1.2-2.5,2-4.3,2.5-5.6c1.3-3.4,2.2-5.9,3-7.5c0.9-2.5,2.2-4.9,3.9-7.1c3-4.2,5.2-7.3,6.6-9.4
				C128.3,178.3,130.6,175.7,133.1,173.4 M275.3,356.1c2.1,0.1,3.2,1,3.1,2.6c0,1.9-1.1,2.8-3.3,2.8h-8.3c-0.4,0-2,0-4.6,0
				c-1.7,0.1-3.4-0.1-5-0.7l-1.3-0.5c-0.5-0.3-0.7-0.8-0.8-1.3c-0.1-1.1,0.7-2.2,1.8-2.5c1.8-1,3.9-1.4,6-1.2
				C265.2,355.6,269.3,355.9,275.3,356.1 M192.9,257.5c2.6,1.1,4.9,2.1,7,3l4.6,2.1c4.9,2.3,11.8,5.3,20.4,8.9l1.6,0.6l7.2,2.8
				l7.8,2.9c0.9,1-0.5,1.6-4.3,1.6c-2.9,0.1-5.8-0.1-8.6-0.6l-51.3-10.4c-1.8-0.3-2.4-1.3-1.8-3s1-3.3,1.4-4.9
				c0.2-0.8,0.4-1.5,0.6-2.1l0.5-2.1l0.5-2.3c0.2-1,0.5-1.6,0.9-1.8c0.6-0.1,1.2-0.1,1.8,0.3C183.8,253.7,187.7,255.4,192.9,257.5
				 M159.3,256.9c0,0,0,0.1,0.1,0.1l3.1,13.3c0.2,0.6,0.1,1.3-0.3,1.8c-0.4,0.4-1.1,0.6-1.7,0.5c-3.6-0.5-7-1.9-9.8-4.2
				c-0.9-0.7-1.1-2-0.4-3c0,0,0,0,0,0l2.1-3.8c0.3-0.4,0.5-0.8,0.6-1.1c0.2-0.2,0.3-0.5,0.4-0.8c1.1-1.9,2.3-3.7,3.7-5.4h1.4
				L159.3,256.9L159.3,256.9 M147.3,261.7h0.3c-0.1,0.1-0.1,0.2-0.2,0.3c-0.1,0.3-0.2,0.5-0.3,0.8c-0.1,0.3-0.2,0.5-0.4,0.8
				L147.3,261.7 M248.3,334.9c1.3,0,2.4,0.8,2.9,2c0.7,1,0.7,2.4,0,3.4c-0.7,0.9-1.7,1.6-2.7,2.1c-6.3,3.4-12.5,7-18.5,11
				c-1.8,1.1-3.9,1.8-6,1.9l-6.4,0.2c-9.1,0.9-18.4,0.4-27.4-1.5c-0.6,0-1-0.1-1.3-0.1c-0.6-0.2-0.9-0.9-0.7-1.5
				c0.1-0.3,0.3-0.5,0.6-0.6c0.5-0.1,1-0.2,1.4-0.3c2.7-1,5.6-1.4,8.4-1.3c3.3,0.1,6.6,0,9.9-0.4c2.2-0.2,5.5-0.5,9.9-1
				c2.7-0.3,5.2-1.1,7.5-2.5c3.1-1.8,5.4-3.1,6.9-4c2.7-1.3,6.6-3.5,11.9-6.4C245.9,335.3,247,334.9,248.3,334.9 M168.1,369.8
				c4.7,2,7.9,3.3,9.7,3.9c0.6,0.1,1.1,0.6,1.3,1.1c0.1,0.5,0.1,1,0.1,1.5l-2.4,39.6c-0.2,5.4-0.6,13.4-1.1,24
				c-0.5,9.3-1,17.3-1.6,24c-0.1,1.1-0.1,2.2-0.1,3.3c0,0.7,0.1,1.8,0.2,3.3c0,0.9-0.3,1.5-0.9,1.6c-0.3,0.1-0.7,0-0.8-0.3
				c0,0,0,0,0,0c-0.1-0.3-0.2-0.7-0.4-0.9c-4.2-6.9-6.6-10.8-7.2-11.8c-0.5-0.9-0.7-2-0.6-3c0.1-1,0.2-2.1,0.3-3.1l3.8-83.4
				 M265.5,378c0.1,0.5,0.1,1,0.1,1.5c0.6,10,1.1,21.3,1.4,33.9c0.2,7.5,0.3,18.9,0.4,34l-0.1,3.6c-0.2,1.7-0.9,2.5-2.1,2.6
				c-1.3,0.1-2.6-0.8-2.8-2.1c-0.3-1-0.4-2-0.4-3.1c0-1-0.1-3.2-0.4-6.4c-0.3-2.6-0.4-5.2-0.4-7.8c0-8-0.1-14-0.1-18
				c0-7.2,0-13.2,0.1-18.1c0.1-4.7,0.3-7.8,0.4-9.4c0.2-3.1,0.7-6.3,1.4-9.3c0-0.7,0.1-1.2,0.1-1.5c0.1-0.5,0.6-0.9,1.1-0.8
				C265,377.1,265.4,377.5,265.5,378 M236.8,387.3c0.7,0.3,1.2,0.9,1.4,1.6c0.1,0.6,0.1,1.2,0.1,1.8c-1.5,26.4-2.2,39.7-2.2,39.9
				c-0.4,7.9-0.8,19.8-1.4,35.7c-0.1,1.8-0.4,5.1-1.1,10.1c0,0.5-0.2,0.9-0.4,1.4c-0.3,0.4-0.9,0.6-1.4,0.5c-0.5,0-1-0.2-1.3-0.6
				c-0.2-0.5-0.3-0.9-0.3-1.4c-0.5-5.8-0.7-11.6-0.6-17.4c0.2-7.7,0.3-13.5,0.4-17.4c0.3-8.7,0.9-17.4,2.1-26
				c0.6-4.6,1.8-13.2,3.8-25.9C235.8,389.5,236.2,388.8,236.8,387.3L236.8,387.3z"/>
			<path class="st8" d="M271.8,295.9c3.2-2.1,5.1-4,5.8-5.9l-21.8-8.4h-0.2c-0.1,0-0.2-0.1-0.3-0.1h-0.3c0,0-0.2-0.1-0.6-0.4
				l-0.4-0.1c-0.1,0-0.1,0.2-0.1,0.5c0,0.5,0.1,1.1,0.3,1.6c0.3,0.7,0.5,1.1,0.5,1.1v0.1l5.8,15.2c0.2,0.9,0.7,1.7,1.4,2.4
				c0.6,0.4,1.6,0,2.9-1.1C267.1,299,269.4,297.4,271.8,295.9 M177.9,373.7c-1.8-0.6-5-1.9-9.7-3.9l-3.8,83.4c0,1.1-0.1,2.1-0.3,3.1
				c-0.1,1,0.1,2.1,0.6,3c0.6,1,3,4.9,7.2,11.8c0.2,0.3,0.3,0.6,0.4,0.9c0.1,0.3,0.5,0.5,0.8,0.3c0,0,0,0,0,0
				c0.6-0.2,0.9-0.7,0.9-1.6c-0.1-1.5-0.1-2.6-0.2-3.3c0-1.1,0-2.2,0.1-3.3c0.6-6.7,1.1-14.7,1.6-24c0.5-10.7,0.9-18.7,1.1-24
				l2.4-39.6c0.1-0.5,0-1-0.1-1.5c-0.2-0.6-0.7-1-1.3-1.1 M199.9,260.6c-2.1-0.9-4.4-1.9-7-3c-5.2-2.2-9.1-3.8-11.7-5
				c-0.5-0.3-1.2-0.4-1.8-0.3c-0.4,0.2-0.7,0.8-0.9,1.8l-0.5,2.3l-0.5,2.1c-0.2,0.7-0.4,1.4-0.6,2.1c-0.4,1.6-0.9,3.2-1.4,4.9
				s0.1,2.7,1.8,3l51.3,10.4c2.8,0.5,5.7,0.7,8.6,0.6c3.7-0.1,5.1-0.6,4.3-1.6l-7.8-2.9l-7.2-2.8l-1.6-0.6
				c-8.7-3.6-15.5-6.6-20.4-8.9L199.9,260.6 M134.1,172.6c-0.3,0.3-0.6,0.5-0.9,0.8c-2.6,2.3-4.9,4.9-6.8,7.7
				c-1.5,2.1-3.7,5.2-6.6,9.4c-1.6,2.1-3,4.5-3.9,7.1c-0.7,1.6-1.7,4.1-3,7.5c-0.5,1.3-1.3,3.1-2.5,5.6c-0.9,1.9-1.3,4-1.1,6.1
				c1.6-3.4,4-6.4,7-8.6c0.7-0.6,1.6-1.4,2.6-2.4c1-1.2,1.8-2,2.4-2.6c5.8-6.1,12.3-11.4,19.5-15.7c0.6-0.4,1.2-0.7,1.9-0.8
				c0.8,0.1,1.4,0.5,1.8,1.2c4.7,7.3,11.9,10.7,21.6,10.3c11.6-0.5,21.7-6.6,30.4-18.4c0.5-0.6,0.7-1.4,0.4-2.1
				c-0.3-0.6-1-0.9-2.3-0.8c-0.4,0-2.2,0.3-5.5,0.9c-1.8,0.3-3.6,0.4-5.4,0.3c-6.1-0.7-11.1,0.6-14.9,4.1c-0.5,0.5-1,0.9-1.6,1.3
				c-1.2,0.9-2.9,0.9-4.1,0c-0.5-0.3-0.8-0.9-0.8-1.6c0-0.6,0.1-1.2,0.3-1.8l0.8-2.2c0.8-2.4,0-3.8-2.3-4.2l-0.6-0.1
				c-2.8-0.5-4.8-1-6.1-1.3c-2.2-0.6-4.3-1.4-6.4-2.3c-2.3-1.2-4.9-1.5-7.4-0.8c-2.3,0.8-4.4,2-6.3,3.5L134.1,172.6z"/>
			<path class="st9" d="M238.2,389c-0.2-0.7-0.7-1.3-1.4-1.6c-0.6,1.4-0.9,2.2-0.9,2.3c-1.9,12.7-3.2,21.3-3.8,25.9
				c-1.1,8.6-1.8,17.3-2.1,26c0,3.9-0.2,9.7-0.4,17.4c-0.1,5.8,0.1,11.6,0.6,17.4c0,0.5,0.1,1,0.3,1.4c0.3,0.4,0.8,0.6,1.3,0.6
				c0.5,0.1,1.1-0.1,1.4-0.5c0.2-0.4,0.3-0.9,0.4-1.4c0.6-5,1-8.4,1.1-10.1c0.5-15.9,1-27.8,1.4-35.7c0-0.2,0.8-13.5,2.3-39.9
				C238.3,390.2,238.3,389.6,238.2,389 M265.6,379.5c0-0.5,0-1-0.1-1.5c-0.1-0.5-0.5-0.9-1-0.9c-0.5-0.1-1,0.3-1.1,0.8
				c0,0.3-0.1,0.8-0.1,1.5c-0.7,3.1-1.2,6.2-1.4,9.3c-0.1,1.5-0.3,4.7-0.4,9.4c-0.1,4.9-0.2,10.9-0.1,18.1c0,4,0,10,0.1,18
				c-0.1,2.6,0.1,5.2,0.4,7.8c0.3,3.2,0.4,5.3,0.4,6.4c0,1,0.1,2.1,0.4,3.1c0.2,1.3,1.4,2.3,2.8,2.1c1.2,0,1.9-0.9,2.1-2.6l0.1-3.6
				c-0.1-15.1-0.3-26.4-0.4-34C266.7,400.9,266.3,389.6,265.6,379.5L265.6,379.5z"/>
			<path class="st10" d="M251.1,336.8c-0.5-1.2-1.6-1.9-2.9-2c-1.2,0.2-2.3,0.5-3.4,1.1c-5.2,2.9-9.2,5-11.9,6.3
				c-1.6,0.8-3.9,2.2-6.9,4c-2.3,1.3-4.9,2.2-7.5,2.5c-4.4,0.5-7.7,0.8-9.9,1c-3.3,0.4-6.6,0.5-9.9,0.4c-2.9-0.1-5.7,0.3-8.4,1.3
				c-0.5,0.1-1,0.1-1.4,0.3c-0.6,0.3-0.8,1-0.5,1.6c0.1,0.3,0.4,0.5,0.6,0.6c0.3,0,0.7,0.1,1.3,0.1c9,1.9,18.2,2.4,27.4,1.5l6.4-0.2
				c2.1-0.1,4.2-0.8,6-1.9c6-4,12.1-7.7,18.4-11.1c1-0.5,2-1.2,2.7-2.1C251.9,339.1,251.9,337.8,251.1,336.8z"/>
			<path class="st11" d="M159.3,257c0,0-0.1-0.1-0.1-0.1L159.3,257l-0.6-2.6h-1.4c-1.4,1.7-2.6,3.5-3.7,5.3
				c-0.1,0.3-0.3,0.5-0.4,0.8c-0.2,0.3-0.4,0.7-0.6,1.1l-2.1,3.8c-0.7,0.9-0.6,2.2,0.3,3c0,0,0,0,0,0c2.8,2.3,6.2,3.7,9.8,4.2
				c0.6,0.1,1.2-0.1,1.7-0.5c0.4-0.5,0.5-1.2,0.3-1.8L159.3,257z"/>
			<path class="st12" d="M278.4,358.7c0-1.6-1-2.5-3.1-2.6c-6.1-0.3-10.2-0.6-12.4-0.8c-2.1-0.2-4.2,0.2-6,1.2
				c-1.1,0.3-1.8,1.4-1.8,2.5c0,0.5,0.3,1,0.8,1.3l1.3,0.5c1.6,0.6,3.3,0.8,5,0.7c2.7,0,4.2,0,4.6,0h8.3
				C277.3,361.6,278.4,360.6,278.4,358.7z"/>
		</g>
		<path id="Layer2_0_1_STROKES" class="st3" d="M277.5,290c1.4,0.6,2.8,1.1,4.2,1.5c1.5,0.4,2.8,0.9,4.1,1.3s4.8,1.7,10.5,3.7
			c4.3,1.5,8.5,3.2,12.6,5.2c2.7,1.4,5.6,2.7,8.5,3.7c3,1.1,3.2,3.7,0.8,7.9c-2.5,4.2-5.6,10.3-9.5,18.4c-3.9,8.1-6.4,13.5-7.5,16.3
			s-2,5-2.9,6.6c-0.7,1.6-1,3.3-0.6,5c0.2,1.1,0.4,2.2,0.4,3.3l1.6,49c0.2,5,0.4,12.4,0.7,22.3c0.3,8.7,0.6,16.2,0.9,22.3
			c0,0.8,0.1,1.9,0.1,3.3c0,1.2-0.3,2.3-0.9,3.3c-19.1,4.9-33.4,8.6-43,11.1l-102,27.1c-1.1,0.3-2.2,0.5-3.3,0.6
			c-0.6-0.3-1-0.9-1.1-1.5c0.1-0.8,0.1-1.4,0.1-1.8c0.8-18.6,1.3-29.6,1.4-33.2c0.9-18.6,1.6-32.6,1.9-41.9
			c0.8-16.7,1.4-29.2,1.8-37.6c0.2-3.2,0.6-12.5,1.2-28.1c-0.1-8-0.5-12.8-1.1-14.3c-2-4.7-4.6-9.1-7.7-13.1
			c-7.6-10.2-19.6-26-36-47.3c-7.2-9.8-13-17.4-17.3-22.7c-0.5-0.6-1-1.1-1.4-1.7c-0.9-1.1-1.2-2.7-0.9-4.8
			c1.5-10.4,3.2-20.6,5.1-30.7c0.7-4.4,1.1-7,1.2-8c0.2-3.1,1-6.1,2.3-8.9c1.3-2.8,2.8-5.5,4.6-8c7-10,13-18.4,17.8-25.1
			c2.6-3.7,5-6.9,7-9.6c1.3-1.8,3.5-2.6,5.6-2c3.3,0.6,7,1.5,11.2,2.7c2.1,0.6,5.9,1.5,11.3,2.6c1.8,0.3,3.7,0.7,5.8,1.1
			c1.5,0.3,3.5,0.7,5.9,1.3s3.5,1.1,3.4,1.6s-0.3,0.8-0.6,0.6s-0.4,0-0.6,0.6s-1.3,1.6-3.5,3.3c-1.6,1-3,2.3-4.2,3.8
			c1.3-1.3,2.7-2.5,4.1-3.6l3-2.3l1.3-1.1c0.6-0.5,1.4-0.9,2.1-1.1c1.2-0.4,2.4-0.6,3.6-0.7c9-0.7,16.5-2.5,22.5-5.4
			c1.3-0.7,2.2-0.8,2.8-0.3s0.8,1.4,0.6,3c-0.2,1.2-0.3,2.3-0.5,3.5c-0.2,0.8-0.3,1.5-0.4,2.2c-1.5,8.6-4,16.9-7.5,24.9
			c-0.8,1.8-2.2,3.4-3.8,4.5c-1.7,1-3.4,2-5.2,2.8c-8.7,4.2-17.7,7.7-27,10.5c-10.4,3.1-19.1,1.6-26.3-4.6c-0.6-0.5-0.9-0.5-0.9,0.1
			c1.1,2.8,3.6,4.9,7.5,6.5s6.4,3.6,7.5,6s2.4,5.1,3.7,8s8.3,7.5,20.9,13.9c6.5,3.3,17.2,8.2,32,14.5c8.5,3.7,18.4,7.9,29.7,12.6
			c1.8,0.8,3.7,1.5,5.6,2.3c3.2,1.3,6.5,2.7,9.8,4.1c0.2,0.1,0.6,0.2,1,0.4c0.2,0.1,0.8,0.3,1.7,0.7l0.6,0.3l0.4,0.1l0.7,0.3
			 M255.4,281.5l0.2,0.1l0.2,0.1l21.8,8.3"/>
		<g id="Layer1_0_FILL">
			<path class="st13" d="M205.3,39c-0.7,3.2-1.7,8-3.2,14.4c-1.3,5.8-2.2,10.7-2.8,14.7c-0.4,0.9-0.4,2-0.1,2.9
				c0.3,0.9,0.7,1.8,1.2,2.6c1.1,1.7,2.1,3.3,3.2,4.9c1.9,2.8,3.9,5.6,5.9,8.5c0.5,0.8,1.3,1.6,2.1,2.1c0.9,0.5,2,0.6,3,0.1
				c6.1-2.1,12.1-4.5,17.9-7.3c0.8-0.3,1.5-0.6,2.3-0.8c0.9-0.3,1.6-1.1,1.9-2l10.8-35.5c0.2-0.5,0.3-1.1,0.2-1.6
				c-0.2-0.6-0.6-1.1-1.1-1.5c-0.9-0.5-4.2-2.9-9.9-7.3c-2.2-1.6-5-2.2-7.7-1.8c-7.1,1.2-14,3.1-20.7,5.6c-0.5,0.2-1,0.4-1.5,0.6
				s-0.8,0.3-0.9,0.4C205.6,38.3,205.4,38.6,205.3,39 M208.6,47.8c-0.3-0.3-0.2-1.6,0.2-3.8c0.1-1.3,0.7-2.5,1.5-3.6
				c1-0.9,2.3-1.3,3.6-1.3c2.4-0.1,5.3-0.3,8.9-0.5c2-0.1,5-0.4,9-0.7c0.8,0.4,2.7,1.2,5.6,2.4c2,0.8,3.8,1.7,5.7,2.7
				c0.4,0.3,0.6,0.5,0.6,0.8c-0.1,0.4-0.1,0.7-0.3,1.1c-1.3,3.2-2.3,4.9-3,5.2s-2.6-0.1-5.4-1.6c-3.4-1.8-7.3-2.5-11.1-2.1
				c-4.9,0.8-8.6,1.2-11,1.5C210.3,48.2,208.9,48.1,208.6,47.8 M307.7,53.2c-0.7-0.3-1.6-0.2-2.1,0.4c-2.4,2.1-4.2,3.7-5.4,4.8
				c-1.8,1.5-3.2,3.4-4.1,5.6c-4.7,11.3-8.8,22-12.5,32c-0.3,0.8-0.8,2.2-1.6,4c-0.5,1.3-0.5,2.8-0.1,4.2c1.7,5.3,4.3,10.3,7.7,14.7
				c1.8,2.3,2.8,3.6,3.1,4c1.3,1.3,3,2,4.9,2c3.2-0.1,6.4-0.5,9.4-1.3c2.3-0.6,5.3-1.6,9.1-3.1c3.3-1.1,5.8-3.6,6.9-6.9
				c2.7-8.9,4.5-15.7,5.5-20.3c1.7-6.8,2.6-13.7,2.7-20.7c0.1-2.8-0.4-5.6-1.4-8.1c-1.3-2.6-3.6-4.5-6.4-5.3
				C322.8,58.9,317.5,57,307.7,53.2 M305.5,61.4c0.7-1,1.9-1.7,3.1-1.8c1.1,0.1,2.2,0.4,3.2,0.9c2.5,0.8,5.1,1.4,7.8,1.9
				c1.8,0.5,3.3,1.8,4.3,3.4c1,1.6,1.4,3.4,1.1,5.2l-6.2,21c-0.3,0.8-0.6,1.2-1.1,1.1c-0.5-0.2-0.9-0.6-1.3-1
				c-3.7-3.7-6.1-6.1-7-7.2c-0.9-1.1-2.3-1.6-3.7-1.3c-3.9,0.7-6.8,1.1-8.7,1.5c-0.5,0.2-1.1,0.1-1.6-0.2c-0.3-0.3-0.3-0.8-0.2-1.6
				l4.7-16.8c0.4-1.3,1.3-2.3,2.4-3c1.1-0.7,2.1-1.4,3-2.3 M290.9,57.8c0.1-0.7-0.1-1.3-0.5-1.8c-4.9-5.7-10.4-11-16.2-15.7
				c-1.7-1.4-4-1.8-6.1-1.1c-2.5,0.6-4.1,1.1-4.7,1.3c-2.3,0.8-4.4,1.9-6.3,3.4c-1.9,1.6-3.4,3.8-4.1,6.2
				c-4.2,13.5-8,27.2-11.3,40.9c-0.3,1.2-0.4,2.5-0.3,3.7c0.4,1.1,1.1,2.1,2,2.9c2.8,2.9,4.8,4.9,5.7,5.9c1.9,1.9,4,3.6,6.2,5.3
				c0.8,0.6,1.8,0.8,2.7,0.5c2.2-0.6,4.4-1.3,6.6-2.2c2.1-0.9,4.2-1.7,6.3-2.3c1.2-0.2,2.2-0.8,3-1.7c0.7-0.9,1.2-2,1.4-3.1
				c1.5-5.5,3.3-10.9,5.4-16.1l9.7-24.5C290.6,58.8,290.8,58.3,290.9,57.8 M281.2,53.9c2.3,2.3,3.5,3.8,3.7,4.6
				c0.1,0.8-0.4,2.7-1.8,5.6c-1.6,3.4-3.5,7.9-5.7,13.7c-0.1,0.4-0.2,0.8-0.5,1.2c-0.2,0.3-0.5,0.5-0.8,0.6
				c-0.4,0.1-0.8-0.1-0.9-0.5c-0.1-0.4-0.2-0.8-0.4-1.1l-9.3-19.2c-0.6-1.3-1.8-1.7-3.5-0.9l-8.7,4.3c0.2-2.3,0.6-4.6,1.2-6.8
				c1-4,1.5-6.1,1.6-6.3c0.1-0.5,0.4-0.9,0.8-1c0.4-0.2,0.8-0.3,1.2-0.4l2.6-0.5c0.9-0.1,1.7-0.4,2.5-0.8c3.5-1.7,6.6-1.8,9.5-0.3
				c1.8,1,4.1,3.1,6.9,6.4L281.2,53.9z"/>
			<path class="st8" d="M208.8,44c-0.4,2.3-0.5,3.5-0.2,3.8s1.7,0.3,4.1,0.1s6.1-0.7,11-1.5c3.8-0.4,7.7,0.3,11.1,2.1
				c2.8,1.5,4.6,2.1,5.4,1.6c0.7-0.3,1.7-2.1,3-5.2c0.1-0.3,0.2-0.7,0.3-1.1c0-0.3-0.2-0.5-0.6-0.8c-1.8-1.1-3.7-2-5.7-2.7
				c-2.9-1.2-4.7-2-5.6-2.4c-4,0.3-7,0.5-9,0.7c-3.5,0.3-6.5,0.5-8.9,0.5c-1.3-0.1-2.6,0.4-3.6,1.3C209.4,41.5,208.9,42.7,208.8,44
				 M361.1,90.1c-0.9-1.1-2.1-1.9-3.5-2.4c-1.4-0.5-3-0.4-4.4,0.3c-1.7,0.7-3.5,1.2-5.4,1.7c-1.8,0.4-3.7,1-5.4,1.7
				c-0.3,0.1-0.6,0.3-1,0.5c-0.3,0.2-0.5,0.5-0.6,0.8c-0.3,1-0.7,2.8-1.2,5.3c-0.3,1.6-0.7,3.2-1.4,4.7c-0.3,1.3-0.2,2,0.1,2.3
				s0.9,0.3,1.8,0c2.5-0.9,6.3-2.2,11.4-3.9c1.3-0.5,2.9-0.2,3.9,0.8c0.4,0.3,1.7,1.4,4.1,3.3c1.6,1.3,2.9,2.5,3.9,3.5
				c0.4,0.4,0.8,0.6,1.4,0.7c0.5-0.1,0.9-0.4,1.2-0.8c1.5-2.1,3.2-4.1,4.9-6c0.4-0.4,0.7-0.9,0.7-1.4c-0.1-0.5-0.4-0.9-0.8-1.2
				C365.8,95,362.5,91.7,361.1,90.1 M308.6,59.6c-1.2,0.1-2.4,0.7-3.1,1.8c-0.9,0.9-1.9,1.7-3,2.3c-1.2,0.7-2,1.7-2.4,3l-4.7,16.8
				c-0.2,0.8-0.1,1.3,0.2,1.6c0.5,0.3,1,0.4,1.6,0.2c1.9-0.3,4.8-0.8,8.7-1.5c1.4-0.3,2.8,0.2,3.7,1.3c0.9,1.1,3.2,3.4,7,7.2
				c0.4,0.4,0.8,0.8,1.3,1c0.5,0.1,0.8-0.3,1.1-1.1L325,71c0.3-1.8-0.2-3.7-1.2-5.2c-0.9-1.6-2.5-2.9-4.3-3.4
				c-2.6-0.5-5.2-1.1-7.8-1.9C310.8,60,309.7,59.7,308.6,59.6 M284.8,58.4c-0.2-0.8-1.4-2.3-3.7-4.6l-1.6-1.8
				c-2.8-3.3-5.1-5.5-6.9-6.4c-2.9-1.5-6-1.4-9.5,0.3c-0.8,0.4-1.6,0.7-2.5,0.8l-2.6,0.5c-0.4,0.1-0.9,0.2-1.3,0.4
				c-0.4,0.2-0.7,0.6-0.8,1c0,0.2-0.5,2.3-1.6,6.3c-0.6,2.2-1,4.5-1.2,6.8l8.7-4.3c1.7-0.7,2.9-0.4,3.5,0.9l9.3,19.2
				c0.2,0.4,0.3,0.8,0.4,1.1c0.1,0.4,0.5,0.6,0.9,0.5c0.3-0.1,0.6-0.3,0.8-0.6c0.2-0.4,0.4-0.8,0.5-1.2c2.2-5.7,4.1-10.3,5.7-13.7
				C284.4,61.1,284.9,59.3,284.8,58.4L284.8,58.4z"/>
			<path class="st7" d="M356.1,83.1c-1.5-1.2-3.8-1.6-6.8-1.1c-2.5,0.3-4.9,1.4-6.6,3.2c-4.4,5.1-7.7,10.9-9.9,17.3
				c-2.2,6.5-4,13.2-5.4,19.9c0.2,1.5,0.6,2.9,1.2,4.2c0.9,2.3,1.4,3.9,1.7,4.9c0.2,1.5,1.5,2.5,3,2.4c5.6,0.3,10.2,0.4,13.7,0.4
				c2.2,0,4.4-0.2,6.5-0.7c2.1-0.5,4.1-1.5,5.7-2.9c7-6.1,13.4-14.5,18.9-25.3c0.3-0.5,0.4-1.1,0.4-1.8c-0.2-0.6-0.5-1.2-1-1.6
				c-3.3-3.4-6.8-6.7-10.4-9.7C362.2,88.3,358.6,85.2,356.1,83.1 M357.7,87.7c1.3,0.5,2.5,1.3,3.5,2.4c1.4,1.6,4.7,4.9,9.8,9.7
				c0.4,0.3,0.6,0.7,0.8,1.2c0,0.6-0.3,1.1-0.7,1.4c-1.8,1.9-3.4,3.9-4.9,6c-0.3,0.4-0.7,0.7-1.2,0.8c-0.5,0-1-0.3-1.4-0.7
				c-1-1-2.3-2.1-3.9-3.5c-2.4-1.8-3.7-2.9-4.1-3.3c-1-1-2.5-1.3-3.9-0.8c-5.1,1.7-8.9,3-11.4,3.9c-0.9,0.3-1.5,0.3-1.8,0
				s-0.4-1.1-0.1-2.3c0.7-1.5,1.1-3.1,1.4-4.7c0.5-2.5,0.9-4.3,1.2-5.3c0.1-0.3,0.4-0.6,0.6-0.8c0.3-0.2,0.6-0.4,1-0.5
				c1.8-0.7,3.6-1.3,5.4-1.7c1.8-0.4,3.6-0.9,5.3-1.6C354.6,87.3,356.2,87.2,357.7,87.7L357.7,87.7z"/>
		</g>
		<path id="Layer1_0_1_STROKES" class="st3" d="M241.7,91c3.3-13.7,7.1-27.4,11.3-40.9c0.7-2.4,2.1-4.6,4-6.2c1.9-1.5,4-2.6,6.3-3.4
			c0.6-0.2,2.2-0.7,4.7-1.3c2.1-0.7,4.4-0.3,6.1,1.1c5.9,4.7,11.3,10,16.2,15.7c0.5,0.5,0.7,1.2,0.5,1.8c-0.1,0.5-0.3,1-0.6,1.4
			l-9.7,24.5c-2.1,5.3-3.9,10.7-5.4,16.1c-0.2,1.1-0.6,2.2-1.4,3.1c-0.8,0.9-1.8,1.5-3,1.7c-2.1,0.7-4.3,1.4-6.3,2.3
			c-2.1,0.9-4.3,1.6-6.5,2.2c-0.9,0.3-1.9,0.1-2.7-0.5c-2.2-1.6-4.2-3.4-6.2-5.3c-1-1-2.9-3-5.7-5.9c-0.9-0.8-1.6-1.7-2-2.9
			C241.2,93.5,241.3,92.2,241.7,91z M297.5,124.9c-1.8,0-3.6-0.7-4.9-2c-0.3-0.3-1.3-1.7-3.1-4c-3.3-4.5-5.9-9.4-7.6-14.7
			c-0.4-1.4-0.4-2.8,0.1-4.2c0.7-1.8,1.3-3.2,1.6-4c3.7-10,7.9-20.7,12.5-32c0.9-2.1,2.3-4.1,4.1-5.6c1.2-1.1,3-2.7,5.4-4.8
			c0.5-0.6,1.4-0.8,2.1-0.4c9.8,3.7,15.1,5.7,15.7,5.9c2.7,0.9,5,2.8,6.4,5.3c1.1,2.6,1.6,5.4,1.4,8.2c-0.2,7-1.1,13.9-2.7,20.7
			c-1,4.6-2.9,11.4-5.5,20.3c-1.1,3.3-3.6,5.8-6.9,6.9c-3.8,1.4-6.8,2.4-9.1,3.1C303.8,124.4,300.7,124.8,297.5,124.9L297.5,124.9z
			 M327.4,122.4c1.4-6.7,3.2-13.4,5.4-19.9c2.1-6.3,5.5-12.2,9.9-17.3c1.8-1.8,4.1-3,6.7-3.2c3-0.5,5.3-0.2,6.8,1.1
			c2.4,2.1,6.1,5.2,10.9,9.3c3.7,3,7.2,6.3,10.5,9.7c0.5,0.4,0.8,1,1,1.6c0.1,0.6,0,1.2-0.4,1.8c-5.6,10.8-11.9,19.2-18.9,25.3
			c-1.6,1.4-3.6,2.4-5.7,2.9c-2.1,0.5-4.3,0.7-6.5,0.7c-3.5,0.1-8.1-0.1-13.7-0.4c-1.5,0.1-2.8-1-3-2.4c-0.5-1.7-1-3.3-1.7-4.9
			C328,125.3,327.6,123.9,327.4,122.4L327.4,122.4z M199.3,68.1c0.6-4,1.5-8.9,2.8-14.7c1.5-6.4,2.6-11.2,3.2-14.4
			c0.1-0.3,0.2-0.7,0.5-0.9c0.1,0,0.4-0.2,0.9-0.4s1-0.4,1.5-0.6c6.7-2.6,13.7-4.5,20.7-5.6c2.7-0.4,5.5,0.2,7.8,1.8
			c5.7,4.3,9,6.8,9.9,7.3c0.5,0.3,0.9,0.9,1.1,1.5c0.1,0.6,0,1.1-0.2,1.6l-10.8,35.5c-0.3,0.9-0.9,1.7-1.9,2
			c-0.8,0.2-1.6,0.5-2.3,0.8c-5.8,2.7-11.8,5.1-17.9,7.2c-1,0.4-2.1,0.4-3-0.1c-0.8-0.6-1.6-1.3-2.1-2.1c-2.1-2.9-4.1-5.7-5.9-8.5
			c-1.1-1.6-2.1-3.3-3.2-4.9c-0.5-0.8-0.9-1.7-1.2-2.6C198.9,70,198.9,69,199.3,68.1z"/>
	</g>
</g>
</svg>
