
<svg xmlns="http://www.w3.org/2000/svg" version="1.1" xmlns:xlink="http://www.w3.org/1999/xlink" preserveAspectRatio="none" x="0px" y="0px" width="1280px" height="720px" viewBox="0 0 1280 720">
<defs>
<g id="Layer0_0_MEMBER_0_FILL">
<path fill="#FF9933" stroke="none" d="
M 100.9 -229.55
Q 97.8 -231.15 97.25 -230.6 96.5 -229.85 75.05 -204.15
L 53.1 -177.9
Q 52.75 -177.55 51.6 -177.75 50.4 -178 47.25 -179.1 38.65 -182.1 31.9 -183.9 25.25 -185.65 16.45 -187.4 9.65 -188.75 9.55 -188.9 9.35 -189.1 5.7 -210.3
L -2.8 -258.4 -27.45 -258.4
Q -37.4 -258.4 -44.85 -258.3 -52.05 -258.15 -52.05 -258.05 -52.05 -257.55 -55.05 -240.75 -58.5 -221.1 -61.05 -206.4 -64.1 -189.05 -64.2 -188.9 -64.35 -188.7 -70.3 -187.65 -86.6 -184.5 -101.95 -179.1 -105.75 -177.75 -106.55 -177.65 -107.35 -177.5 -107.95 -178.1 -108.55 -178.8 -129.95 -204.35 -151.65 -230.35 -151.9 -230.6 -152.45 -231.15 -155.55 -229.55 -158.55 -228 -173.7 -219.25 -194.7 -207.05 -194.85 -206.7 -195 -206.35 -183 -173.4
L -171 -140.55 -172.85 -138.9
Q -182.9 -129.85 -187.05 -125.65 -191.4 -121.3 -200.95 -110.75
L -202.6 -108.95 -234.85 -120.75
Q -247.65 -125.4 -257.9 -129.1 -267.65 -132.55 -268.1 -132.6 -268.75 -132.65 -271.1 -128.95 -273.3 -125.4 -281.3 -111.65 -290.05 -96.5 -291.6 -93.5 -293.2 -90.4 -292.65 -89.85 -291.9 -89.1 -266.2 -67.65
L -239.95 -45.7
Q -239.6 -45.35 -239.8 -44.2 -240.05 -43.05 -241.15 -39.9 -244.1 -31.3 -246.1 -23.85 -248.15 -16.3 -249.65 -8.4 -250.8 -2.3 -250.95 -2.15 -251.1 -2.05 -268.45 1 -283.15 3.55 -302.8 7 -319.6 10 -320.1 10 -320.2 10 -320.35 17.25 -320.45 24.75 -320.45 34.7 -320.45 44.7 -320.35 52.2 -320.2 59.45 -320.1 59.45 -319.6 59.45 -302.8 62.4 -283.15 65.9 -268.45 68.4 -251.1 71.5 -250.95 71.6 -250.8 71.7 -249.65 77.8 -248.15 85.75 -246.1 93.25 -244.1 100.75 -241.15 109.3 -240.05 112.45 -239.8 113.65 -239.6 114.8 -239.95 115.15
L -266.2 137.1
Q -291.9 158.55 -292.65 159.3 -293.2 159.85 -291.6 162.95 -290.05 165.95 -281.3 181.1 -273.3 194.85 -271.1 198.4 -268.75 202.1 -268.1 202 -267.65 201.95 -257.9 198.5 -247.65 194.85 -234.85 190.15
L -202.6 178.4 -200.95 180.15
Q -191.4 190.75 -187.05 195.15 -182.9 199.25 -172.85 208.35
L -171 210 -183 242.85
Q -195 275.75 -194.85 276.1 -194.7 276.5 -173.7 288.65 -158.55 297.4 -155.55 299 -152.45 300.6 -151.9 300.05 -151.65 299.8 -129.95 273.8 -108.55 248.2 -107.95 247.55 -107.35 246.95 -106.55 247.05 -105.75 247.2 -101.95 248.5 -86.6 253.95 -70.3 257.05 -64.35 258.15 -64.2 258.3 -64.1 258.45 -61.05 275.85 -58.5 290.55 -55.05 310.2 -52.05 327 -52.05 327.45 -52.05 327.6 -44.85 327.7 -37.4 327.85 -27.45 327.85
L -2.8 327.85 5.7 279.75
Q 9.35 258.5 9.55 258.3 9.65 258.15 16.45 256.85 25.25 255.1 31.9 253.35 38.65 251.5 47.25 248.55 50.4 247.45 51.6 247.2 52.75 246.95 53.1 247.3
L 75.05 273.55
Q 96.5 299.25 97.25 300.05 97.8 300.6 100.9 299 103.9 297.4 119.05 288.65 140.05 276.5 140.2 276.1 140.35 275.6 118.9 217.05
L 116.3 210 119.25 207.4
Q 126.8 200.85 132.85 194.8 139.05 188.6 145.35 181.3
L 147.9 178.4 156.35 181.45
Q 179.65 190 197.2 196.35 213.7 202.35 213.95 202.35 214.1 202.35 216.8 197.95 219.45 193.55 223 187.35 228.35 178 235.2 166.2 237.35 162.5 237.95 161.15 238.55 159.85 238.2 159.5 237.7 159 211.75 137.3
L 185.25 115.15
Q 184.9 114.8 185.15 113.65 185.4 112.45 186.5 109.3 192.4 92 195.25 76.7 195.65 74.55 196.05 72.95 196.5 71.35 196.6 71.35 197.05 71.35 219.35 67.45
L 253.4 61.5
Q 264.95 59.45 265.4 59.45 265.8 59.45 265.8 34.7 265.8 24.75 265.65 17.25 265.55 10 265.4 10 265.1 10 248.4 7.05
L 196.2 -2.1 195.25 -7.35
Q 192.35 -22.8 186.5 -39.9 185.4 -43.05 185.15 -44.2 184.9 -45.35 185.25 -45.7
L 211.75 -67.9
Q 237.7 -89.6 238.2 -90.1 238.55 -90.4 237.95 -91.75 237.35 -93.05 235.2 -96.75 228.35 -108.55 223 -117.95 219.45 -124.1 216.8 -128.5 214.1 -132.9 213.95 -132.9 213.7 -132.9 197.2 -126.95 179.65 -120.55 156.35 -112.05
L 147.9 -108.95 145.35 -111.9
Q 139.05 -119.15 132.85 -125.35 126.8 -131.4 119.25 -138
L 116.3 -140.55 118.9 -147.6
Q 140.35 -206.2 140.2 -206.7 140.05 -207.05 119.05 -219.25 103.9 -228 100.9 -229.55
M 29.2 -129.1
Q 53.05 -120.8 72.95 -106.6 99.3 -87.9 117.1 -61.05 134.9 -34.3 141.9 -2.85 144.1 7.05 144.95 15.45 145.85 23.8 145.85 34.7 145.85 45.65 144.95 53.95 144.1 62.4 141.9 72.25 136.75 95.35 125.7 116.15 114.75 136.6 98.85 153.5 82.9 170.4 63.15 182.55 43 194.9 20.3 201.4 6.9 205.25 -6.75 206.8 -20.35 208.35 -35.15 207.75 -62.6 206.65 -88.3 197 -113.4 187.55 -134.55 170.85 -155.75 154.1 -170.85 131.8 -186.3 108.95 -193.95 82.35 -197.8 69.05 -199.4 55.35 -200.95 41.7 -200.35 26.9 -198.7 -14.5 -178 -50.9 -157.3 -87.3 -122.35 -110.2 -88.5 -132.45 -47.1 -137.5 -43.8 -137.9 -35.9 -138.3 -27.95 -138.7 -26.2 -138.55 -22.7 -138.35 -17.95 -138.2 5.35 -137.4 29.2 -129.1 Z"/>
</g>

<path id="Layer0_0_MEMBER_0_1_STROKES" stroke="#000000" stroke-width="4" stroke-linejoin="round" stroke-linecap="round" fill="none" d="
M -52.05 -258.05
Q -52.05 -257.55 -55.05 -240.75 -58.5 -221.1 -61.05 -206.4 -64.1 -189.05 -64.2 -188.9 -64.35 -188.7 -70.3 -187.65 -86.6 -184.5 -101.95 -179.1 -105.75 -177.75 -106.55 -177.65 -107.35 -177.5 -107.95 -178.1 -108.55 -178.8 -129.95 -204.35 -151.65 -230.35 -151.9 -230.6 -152.45 -231.15 -155.55 -229.55 -158.55 -228 -173.7 -219.25 -194.7 -207.05 -194.85 -206.7 -195 -206.35 -183 -173.4
L -171 -140.55 -172.85 -138.9
Q -182.9 -129.85 -187.05 -125.65 -191.4 -121.3 -200.95 -110.75
L -202.6 -108.95 -234.85 -120.75
Q -247.65 -125.4 -257.9 -129.1 -267.65 -132.55 -268.1 -132.6 -268.75 -132.65 -271.1 -128.95 -273.3 -125.4 -281.3 -111.65 -290.05 -96.5 -291.6 -93.5 -293.2 -90.4 -292.65 -89.85 -291.9 -89.1 -266.2 -67.65
L -239.95 -45.7
Q -239.6 -45.35 -239.8 -44.2 -240.05 -43.05 -241.15 -39.9 -244.1 -31.3 -246.1 -23.85 -248.15 -16.3 -249.65 -8.4 -250.8 -2.3 -250.95 -2.15 -251.1 -2.05 -268.45 1 -283.15 3.55 -302.8 7 -319.6 10 -320.1 10 -320.2 10 -320.35 17.25 -320.45 24.75 -320.45 34.7 -320.45 44.7 -320.35 52.2 -320.2 59.45 -320.1 59.45 -319.6 59.45 -302.8 62.4 -283.15 65.9 -268.45 68.4 -251.1 71.5 -250.95 71.6 -250.8 71.7 -249.65 77.8 -248.15 85.75 -246.1 93.25 -244.1 100.75 -241.15 109.3 -240.05 112.45 -239.8 113.65 -239.6 114.8 -239.95 115.15
L -266.2 137.1
Q -291.9 158.55 -292.65 159.3 -293.2 159.85 -291.6 162.95 -290.05 165.95 -281.3 181.1 -273.3 194.85 -271.1 198.4 -268.75 202.1 -268.1 202 -267.65 201.95 -257.9 198.5 -247.65 194.85 -234.85 190.15
L -202.6 178.4 -200.95 180.15
Q -191.4 190.75 -187.05 195.15 -182.9 199.25 -172.85 208.35
L -171 210 -183 242.85
Q -195 275.75 -194.85 276.1 -194.7 276.5 -173.7 288.65 -158.55 297.4 -155.55 299 -152.45 300.6 -151.9 300.05 -151.65 299.8 -129.95 273.8 -108.55 248.2 -107.95 247.55 -107.35 246.95 -106.55 247.05 -105.75 247.2 -101.95 248.5 -86.6 253.95 -70.3 257.05 -64.35 258.15 -64.2 258.3 -64.1 258.45 -61.05 275.85 -58.5 290.55 -55.05 310.2 -52.05 327 -52.05 327.45 -52.05 327.6 -44.85 327.7 -37.4 327.85 -27.45 327.85
L -2.8 327.85 5.7 279.75
Q 9.35 258.5 9.55 258.3 9.65 258.15 16.45 256.85 25.25 255.1 31.9 253.35 38.65 251.5 47.25 248.55 50.4 247.45 51.6 247.2 52.75 246.95 53.1 247.3
L 75.05 273.55
Q 96.5 299.25 97.25 300.05 97.8 300.6 100.9 299 103.9 297.4 119.05 288.65 140.05 276.5 140.2 276.1 140.35 275.6 118.9 217.05
L 116.3 210 119.25 207.4
Q 126.8 200.85 132.85 194.8 139.05 188.6 145.35 181.3
L 147.9 178.4 156.35 181.45
Q 179.65 190 197.2 196.35 213.7 202.35 213.95 202.35 214.1 202.35 216.8 197.95 219.45 193.55 223 187.35 228.35 178 235.2 166.2 237.35 162.5 237.95 161.15 238.55 159.85 238.2 159.5 237.7 159 211.75 137.3
L 185.25 115.15
Q 184.9 114.8 185.15 113.65 185.4 112.45 186.5 109.3 192.4 92 195.25 76.7 195.65 74.55 196.05 72.95 196.5 71.35 196.6 71.35 197.05 71.35 219.35 67.45
L 253.4 61.5
Q 264.95 59.45 265.4 59.45 265.8 59.45 265.8 34.7 265.8 24.75 265.65 17.25 265.55 10 265.4 10 265.1 10 248.4 7.05
L 196.2 -2.1 195.25 -7.35
Q 192.35 -22.8 186.5 -39.9 185.4 -43.05 185.15 -44.2 184.9 -45.35 185.25 -45.7
L 211.75 -67.9
Q 237.7 -89.6 238.2 -90.1 238.55 -90.4 237.95 -91.75 237.35 -93.05 235.2 -96.75 228.35 -108.55 223 -117.95 219.45 -124.1 216.8 -128.5 214.1 -132.9 213.95 -132.9 213.7 -132.9 197.2 -126.95 179.65 -120.55 156.35 -112.05
L 147.9 -108.95 145.35 -111.9
Q 139.05 -119.15 132.85 -125.35 126.8 -131.4 119.25 -138
L 116.3 -140.55 118.9 -147.6
Q 140.35 -206.2 140.2 -206.7 140.05 -207.05 119.05 -219.25 103.9 -228 100.9 -229.55 97.8 -231.15 97.25 -230.6 96.5 -229.85 75.05 -204.15
L 53.1 -177.9
Q 52.75 -177.55 51.6 -177.75 50.4 -178 47.25 -179.1 38.65 -182.1 31.9 -183.9 25.25 -185.65 16.45 -187.4 9.65 -188.75 9.55 -188.9 9.35 -189.1 5.7 -210.3
L -2.8 -258.4 -27.45 -258.4
Q -37.4 -258.4 -44.85 -258.3 -52.05 -258.15 -52.05 -258.05 Z
M -17.95 -138.2
Q 5.35 -137.4 29.2 -129.1 53.05 -120.8 72.95 -106.6 99.3 -87.9 117.1 -61.05 134.9 -34.3 141.9 -2.85 144.1 7.05 144.95 15.45 145.85 23.8 145.85 34.7 145.85 45.65 144.95 53.95 144.1 62.4 141.9 72.25 136.75 95.35 125.7 116.15 114.75 136.6 98.85 153.5 82.9 170.4 63.15 182.55 43 194.9 20.3 201.4 6.9 205.25 -6.75 206.8 -20.35 208.35 -35.15 207.75 -62.6 206.65 -88.3 197 -113.4 187.55 -134.55 170.85 -155.75 154.1 -170.85 131.8 -186.3 108.95 -193.95 82.35 -197.8 69.05 -199.4 55.35 -200.95 41.7 -200.35 26.9 -198.7 -14.5 -178 -50.9 -157.3 -87.3 -122.35 -110.2 -88.5 -132.45 -47.1 -137.5 -43.8 -137.9 -35.9 -138.3 -27.95 -138.7 -26.2 -138.55 -22.7 -138.35 -17.95 -138.2 Z"/>
</defs>

<g transform="matrix( 1, 0, 0, 1, 629.05,292.1) ">
<g transform="matrix( 1, 0, 0, 1, 0,0) ">
<use xlink:href="#Layer0_0_MEMBER_0_FILL"/>

<use xlink:href="#Layer0_0_MEMBER_0_1_STROKES"/>
</g>
</g>
</svg>
