
<svg xmlns="http://www.w3.org/2000/svg" version="1.1" xmlns:xlink="http://www.w3.org/1999/xlink" preserveAspectRatio="none" x="0px" y="0px" width="1280px" height="720px" viewBox="0 0 1280 720">
<defs>
<g id="Layer3_0_MEMBER_0_FILL">
<path fill="#1A1A1A" stroke="none" d="
M 597.75 237.25
L 597.75 41.95 15.9 41.95 15.9 237.25 597.75 237.25 Z"/>
</g>

<g id="Layer3_0_MEMBER_1_FILL">
<path fill="#808080" stroke="none" d="
M 368.9 44.75
Q 368.9 40.7 366.1 37.85 363.25 35 359.2 35
L 205.95 35
Q 201.9 35 199.05 37.85 196.2 40.7 196.2 44.75
L 196.2 55.3
Q 196.2 59.35 199.05 62.2 201.9 65.05 205.95 65.05
L 359.2 65.05
Q 363.25 65.05 366.1 62.2 368.9 59.35 368.9 55.3
L 368.9 44.75 Z"/>
</g>

<g id="Layer3_0_MEMBER_2_FILL">
<path fill="#808080" stroke="none" d="
M 366.1 245.2
Q 368.9 242.35 368.9 238.35
L 368.9 227.75
Q 368.9 223.75 366.1 220.9 363.25 218.05 359.2 218.05
L 205.95 218.05
Q 201.9 218.05 199.05 220.9 196.2 223.75 196.2 227.75
L 196.2 238.35
Q 196.2 242.35 199.05 245.2 201.9 248.05 205.95 248.05
L 359.2 248.05
Q 363.25 248.05 366.1 245.2 Z"/>
</g>

<g id="Layer3_0_MEMBER_3_FILL">
<path fill="#DCDCDC" stroke="none" d="
M 611.95 8.15
Q 611.95 4.75 609.7 2.4 607.4 0 604 0
L 8.1 0
Q 4.75 0 2.35 2.4 0 4.75 0 8.15
L 0 243.8
Q 0 247.2 2.35 249.55 4.75 251.95 8.1 251.95
L 604 251.95
Q 607.4 251.95 609.7 249.55 611.95 247.2 611.95 243.8
L 611.95 8.15
M 597.85 41.95
L 597.85 237.2 15.9 237.2 15.9 41.95 597.85 41.95 Z"/>
</g>

<g id="Layer3_0_MEMBER_4_FILL">
<path fill="#000000" stroke="none" d="
M -168.25 -47.2
Q -167.8 -46.05 -166.65 -45.6
L -147.7 -38 -155.35 -19.2
Q -155.8 -18.1 -155.3 -17.05 -154.85 -16 -153.75 -15.55
L -138.35 -9.35
Q -137.25 -8.9 -136.15 -9.35 -135.1 -9.8 -134.65 -10.9
L -127 -29.7 -108.05 -22.1
Q -106.9 -21.6 -105.75 -22.1 -104.55 -22.55 -104.1 -23.7
L -97.95 -38.8
Q -97.5 -39.9 -98 -41.05 -98.45 -42.15 -99.6 -42.65
L -118.55 -50.25 -110.9 -69.05
Q -110.45 -70.2 -110.85 -71.25 -111.35 -72.35 -112.45 -72.8
L -127.85 -79
Q -128.95 -79.45 -130 -78.95 -131.15 -78.5 -131.6 -77.35
L -139.25 -58.55 -158.2 -66.15
Q -159.35 -66.6 -160.5 -66.15 -161.65 -65.7 -162.1 -64.6
L -168.25 -49.5
Q -168.7 -48.35 -168.25 -47.2 Z"/>
</g>

<g id="Layer3_0_MEMBER_5_FILL">
<path fill="#808080" stroke="none" d="
M 368.9 93.95
L 368.9 83.35
Q 368.9 79.35 366.1 76.5 363.25 73.65 359.2 73.65
L 205.95 73.65
Q 201.9 73.65 199.05 76.5 196.2 79.35 196.2 83.35
L 196.2 93.95
Q 196.2 97.95 199.05 100.8 201.9 103.65 205.95 103.65
L 359.2 103.65
Q 363.25 103.65 366.1 100.8 368.9 97.95 368.9 93.95 Z"/>
</g>

<g id="Layer3_0_MEMBER_6_MEMBER_0_FILL">
<path fill="#DDDDDD" stroke="none" d="
M 400.2 143.7
Q 398.2 143.7 396.85 145.1 395.45 146.5 395.45 148.45
L 395.45 208.25
Q 395.45 210.2 396.85 211.6 398.2 213 400.2 213
L 459.95 213
Q 461.95 213 463.35 211.6 464.75 210.2 464.75 208.25
L 464.75 148.45
Q 464.75 146.5 463.35 145.1 461.95 143.7 459.95 143.7
L 400.2 143.7 Z"/>
</g>

<g id="Layer3_0_MEMBER_6_MEMBER_1_FILL">
<path fill="#FF3434" stroke="none" d="
M 190.85 139.65
Q 184.2 137 177.7 139.7 171.1 142.45 168.4 149 165.75 155.55 168.55 162.05 171.35 168.6 177.95 171.25 184.55 173.9 191.1 171.1 197.7 168.4 200.35 161.85 203.05 155.3 200.25 148.75 197.45 142.3 190.85 139.65 Z"/>
</g>

<g id="Layer3_0_MEMBER_7_MEMBER_0_FILL">
<path fill="#DDDDDD" stroke="none" d="
M 543.45 148.45
Q 543.45 146.5 542.05 145.1 540.65 143.7 538.65 143.7
L 478.9 143.7
Q 476.9 143.7 475.55 145.1 474.15 146.5 474.15 148.45
L 474.15 208.25
Q 474.15 210.2 475.55 211.6 476.9 213 478.9 213
L 538.65 213
Q 540.65 213 542.05 211.6 543.45 210.2 543.45 208.25
L 543.45 148.45 Z"/>
</g>

<g id="Layer3_0_MEMBER_7_MEMBER_1_FILL">
<path fill="#FF3434" stroke="none" d="
M 235.1 157.4
Q 228.5 154.75 221.95 157.5 215.4 160.25 212.7 166.8 210.05 173.35 212.8 179.85 215.6 186.35 222.2 189 228.8 191.65 235.4 188.9 242 186.2 244.65 179.65 247.35 173.1 244.55 166.55 241.75 160.1 235.1 157.4 Z"/>
</g>

<g id="Layer3_0_MEMBER_8_FILL">
<path fill="#808080" stroke="none" d="
M 366.1 139.45
Q 368.9 136.6 368.9 132.6
L 368.9 122
Q 368.9 118 366.1 115.15 363.25 112.3 359.2 112.3
L 205.95 112.3
Q 201.9 112.3 199.05 115.15 196.2 118 196.2 122
L 196.2 132.6
Q 196.2 136.6 199.05 139.45 201.9 142.3 205.95 142.3
L 359.2 142.3
Q 363.25 142.3 366.1 139.45 Z"/>
</g>

<g id="Layer3_0_MEMBER_9_FILL">
<path fill="#DDDDDD" stroke="none" d="
M 368.95 196.6
L 368.95 161.25
Q 368.95 156.75 365.8 153.6 362.6 150.45 358.15 150.45
L 207.05 150.45
Q 202.55 150.45 199.4 153.6 196.2 156.75 196.2 161.25
L 196.2 196.6
Q 196.2 201.05 199.4 204.25 202.55 207.4 207.05 207.4
L 358.15 207.4
Q 362.6 207.4 365.8 204.25 368.95 201.05 368.95 196.6 Z"/>
</g>

<g id="Layer3_0_MEMBER_10_FILL">
<path fill="#000000" stroke="none" d="
M 225.65 170.4
Q 221.7 170.4 218.9 173.2 216.1 176 216.1 179.95 216.1 183.9 218.9 186.7 221.7 189.5 225.65 189.5
L 255.05 189.5
Q 259.05 189.5 261.8 186.7 264.6 183.95 264.6 179.95 264.6 176 261.8 173.2 259.05 170.4 255.05 170.4
L 225.65 170.4 Z"/>
</g>

<g id="Layer3_0_MEMBER_11_FILL">
<path fill="#000000" stroke="none" d="
M 339.05 189.5
Q 343.05 189.5 345.8 186.7 348.6 183.95 348.6 179.95 348.6 176 345.8 173.2 343.05 170.4 339.05 170.4
L 309.65 170.4
Q 305.7 170.4 302.9 173.2 300.1 176 300.1 179.95 300.1 183.95 302.9 186.7 305.7 189.5 309.65 189.5
L 339.05 189.5 Z"/>
</g>

<g id="Layer3_0_MEMBER_17_FILL">
<path fill="#1A1A1A" stroke="none" d="
M 228.15 172.25
Q 224.2 172.25 221.4 174.5 218.6 176.75 218.6 179.95 218.6 183.15 221.4 185.4 224.2 187.65 228.15 187.65
L 252.55 187.65
Q 256.55 187.65 259.35 185.4 262.15 183.15 262.15 179.95 262.15 176.75 259.35 174.5 256.55 172.25 252.55 172.25
L 228.15 172.25 Z"/>
</g>

<g id="Layer3_0_MEMBER_18_FILL">
<path fill="#1A1A1A" stroke="none" d="
M 336.55 187.65
Q 340.5 187.65 343.3 185.4 346.1 183.15 346.1 179.95 346.1 176.75 343.3 174.5 340.5 172.25 336.55 172.25
L 312.15 172.25
Q 308.2 172.25 305.4 174.5 302.6 176.75 302.6 179.95 302.6 183.15 305.4 185.4 308.2 187.65 312.15 187.65
L 336.55 187.65 Z"/>
</g>

<g id="Layer2_0_FILL">
<path fill="#F7F1C3" stroke="none" d="
M -10.65 73.3
Q -10.25 73.7 -10.2 73.65
L -10 73.65 -9.95 73.6 -10 73.55
Q -10.05 73.55 -10.1 73.55
L -10.65 73.3
M -9.65 73.7
Q -9.725 73.675 -9.8 73.65
L -9.8 73.7
Q -9.75 73.7 -9.65 73.7
M -108.9 -19.95
Q -111.3 -16.75 -114.45 -12.35 -120.25 -4.35 -128.65 7.6 -131.1 11.1 -132.35 13.95 -133.9 17.5 -134.15 21.05 -134.25 22.2 -135.1 27.4 -137.35 39.45 -139.15 51.8 -139.5 54.3 -138.45 55.6 -137.95 56.25 -137.35 56.95 -132.25 63.25 -123.55 75.05 -103.95 100.5 -94.85 112.65 -90.7 118.1 -88.7 123.05 -87.95 124.9 -87.8 134.4 -88.55 152.95 -88.75 156.7 -89.3 166.65 -90.2 186.55 -90.65 197.65 -91.75 219.85 -91.9 224.05 -92.9 246.2 -92.9 246.65 -93 247.6 -92.9 248.4 -92.15 248.8 -89.95 248.45 -89.5 248.3
L -8.2 226.8
Q 3.2 223.8 26.05 217.95 26.7 216.9 26.75 215.35 26.7 213.6 26.65 212.7 26.25 205.4 25.9 195 25.55 183.15 25.35 177.25
L 24.1 138.3
Q 24.1 137.8 23.75 135.7 23.35 133.6 24.25 131.7 25.2 129.75 26.55 126.45 27.85 123.1 32.5 113.45 37.15 103.75 40.1 98.85 43.05 93.9 39.5 92.6 35.9 91.3 32.75 89.65 29.6 88 22.75 85.55 15.85 83.1 14.35 82.6 12.8 82.05 11.05 81.55 9.25 81 7.7 80.35 6.9 82.55 3.1 85 -0.25 87.2 -2.35 88.95 -3.9 90.25 -4.65 89.8 -5.15 89.5 -5.75 87.9
L -10.4 75.8 -10.4 75.75
Q -10.4 75.7 -10.8 74.85 -10.95 74.25 -11 73.6 -11.05 73.25 -10.95 73.2 -11.2169921875 73.089453125 -11.45 73 -12.0625 72.75 -12.1 72.75 -12.3 72.7 -12.8 72.5 -13.15 72.35 -13.6 72.1 -17.65 70.45 -21.45 68.85 -23.7 67.9 -25.9 67 -39.4 61.35 -49.6 56.95 -67.3 49.35 -75.1 45.4 -90.15 37.75 -91.75 34.35 -93.35 30.95 -94.7 28 -96.1 25.05 -100.7 23.2 -105.35 21.3 -106.65 18 -106.65 17.35 -105.95 17.95 -97.4 25.35 -85 21.6 -73.7 18.15 -63.5 13.25 -60.55 11.8 -59.35 11 -57.2 9.5 -56.3 7.45 -52.4 -1.25 -50.35 -12.35 -50.2 -13.2 -50 -14.1 -49.8 -15.45 -49.6 -16.85 -49.35 -18.65 -50.05 -19.2 -50.75 -19.75 -52.3 -18.95 -59.45 -15.45 -70.25 -14.65 -71.95 -14.5 -73.1 -14.1 -74.15 -13.75 -74.8 -13.2 -75.05 -13 -75.8 -12.35 -76.7 -11.65 -78.2 -10.5 -80.35 -8.85 -81.5 -7.6 -80.85 -8.65 -78.15 -10.6 -75.5 -12.55 -75.35 -13.2 -75.2 -13.9 -74.9 -13.65 -74.6 -13.45 -74.45 -14.15 -74.3 -14.85 -77.15 -15.45 -80 -16.1 -81.85 -16.45 -84.4 -16.95 -86.5 -17.35 -92.95 -18.7 -95.5 -19.4 -100.45 -20.8 -104.4 -21.55 -107.3 -22.1 -108.9 -19.95
M -107.45 -12.35
Q -107.1 -12.7 -106.7 -13 -103.8 -15.2 -101.75 -15.85 -98.85 -16.7 -95.85 -15.25 -93.7 -14.2 -90.75 -13.4 -89.15 -13 -85.85 -12.35 -85.6 -12.3 -85.35 -12.25 -82.65 -11.8 -83.55 -8.9
L -84.15 -7.15
Q -84.4 -6.1 -84.4 -5.7 -84.4 -4.9 -83.75 -4.45 -82.2 -3.35 -80.5 -4.45 -79.95 -4.75 -79.25 -5.45 -74.65 -9.65 -67.35 -8.75 -65.6 -8.55 -63 -8.95 -59.15 -9.6 -58.65 -9.65 -57.1 -9.75 -56.8 -9 -56.45 -8.15 -57.1 -7.3 -67.4 6.8 -81.3 7.35 -92.9 7.85 -98.55 -0.8 -99.15 -1.75 -99.95 -1.75 -100.5 -1.75 -101.5 -1.15 -109.9 3.9 -117.05 11.35 -117.7 12 -118.95 13.4 -120.15 14.6 -121 15.3 -124.8 18.3 -126.55 22.15 -126.75 19.95 -125.65 17.3 -124.25 14.35 -123.65 12.85 -122.15 8.85 -121.3 6.9 -119.9 3.4 -118.2 1.3 -114.65 -3.7 -112.9 -6.2 -110.1 -10.05 -107.45 -12.35
M 5.9 132.9
Q 8.45 133 8.4 134.95 8.35 137.2 5.8 137.2
L -0.8 137.2
Q -1.3 137.15 -4.5 137.2 -6.95 137.25 -8.5 136.65 -9.4 136.3 -9.5 136.25 -10.05 135.9 -10.1 135.2 -10.15 133.8 -8.7 133.2 -6.15 132 -3.95 132.25 -1.35 132.55 5.9 132.9
M -59.85 54.55
Q -56.75 55.85 -54.25 56.95 -52.25 57.85 -50.6 58.6 -44.7 61.35 -34.3 65.65
L -33.05 66.1
Q -29.1 67.65 -27.3 68.35
L -21.1 70.65
Q -20.05 71.85 -24.5 71.95 -29 72 -31.35 71.5
L -72.2 63.2
Q -74.3 62.8 -73.65 60.8 -73 58.8 -72.5 56.95 -72.25 56.05 -72.05 55.25
L -71.65 53.6
Q -71.45 52.7 -71.25 51.8 -71.05 50.65 -70.55 50.4 -70.1 50.2 -69.15 50.6 -66.05 51.95 -59.85 54.55
M -86.6 54.05
Q -86.6 54.1 -86.55 54.15
L -84.05 64.75
Q -83.85 65.7 -84.25 66.2 -84.7 66.7 -85.6 66.6 -89.5 66.2 -93.4 63.3 -94.55 62.35 -93.7 60.9 -92.7 59.1 -92 57.85 -91.7 57.35 -91.5 56.95 -91.3 56.65 -91.15 56.35 -89.6 53.8 -88.2 52.1
L -87.05 52.1 -86.55 54.1 -86.6 54.05
M -96.15 57.8
Q -96.05 57.8 -95.95 57.8 -96.05 57.9 -96.1 58 -96.2 58.15 -96.35 58.65 -96.45 59.05 -96.65 59.25
L -96.15 57.8
M -15.65 115.95
Q -14.2 115.95 -13.35 117.5 -12.55 119.05 -13.35 120.2 -13.9 121 -15.5 121.85 -25.5 127.35 -30.2 130.65 -32.05 131.9 -34.95 132.15 -38.35 132.25 -40.05 132.3 -51.05 133.35 -61.85 131.1 -62.55 131.05 -62.9 131 -63.45 130.85 -63.5 130.25 -63.6 129.5 -63 129.3 -62.65 129.2 -61.85 129.1 -58.65 127.95 -55.15 128.1 -51.85 128.25 -47.25 127.8 -44.6 127.55 -39.35 127 -36.65 126.8 -33.35 125.05 -29.7 122.9 -27.85 121.9 -24.65 120.3 -18.35 116.85 -16.65 116 -15.65 115.95
M -79.5 143.8
Q -73.9 146.15 -71.75 146.9 -70.95 147.15 -70.75 147.8 -70.65 148.1 -70.7 149
L -72.65 180.5
Q -72.95 186.9 -73.55 199.6 -74.15 210.75 -74.85 218.7 -74.95 219.75 -74.9 221.35 -74.85 222.2 -74.75 224 -74.75 225.1 -75.5 225.3 -75.95 225.45 -76.15 225.05 -76.3 224.5 -76.45 224.3 -81.5 216.1 -82.2 214.9 -82.75 214 -82.7 212.55 -82.5 210.9 -82.5 210.05
L -79.5 143.8
M -1.9 150.3
Q -1.85 150.35 -1.8 151.5 -1.05 163.45 -0.7 178.45 -0.5 187.45 -0.35 205.45
L -0.4 208.35
Q -0.6 210.35 -2.05 210.4 -3.75 210.5 -4.25 208.7 -4.6 207.5 -4.55 206.25 -4.55 205 -4.85 201.2 -5.25 197.35 -5.15 195 -5.2 185.45 -5.2 180.65 -5.25 172.1 -5.1 166.3 -4.95 160.7 -4.8 158.85 -4.5 154.65 -3.7 151.45 -3.65 150.65 -3.6 150.25 -3.45 149.55 -2.7 149.6 -2.05 149.65 -1.9 150.3
M -24.8 157.7
Q -23.9 158.2 -23.7 159 -23.6 159.35 -23.65 160.45 -25.45 191.85 -25.45 192.15 -25.9 201.6 -26.55 220.5 -26.65 222.6 -27.4 228.55 -27.5 229.3 -27.7 229.65 -28.05 230.15 -28.8 230.05 -29.5 230 -29.8 229.55 -30 229.2 -30.05 228.4 -30.6 222.6 -30.5 214.6 -30.25 205.4 -30.2 200.75 -30 191.6 -28.55 180.05 -27.85 174.6 -25.55 159.5 -25.55 159.4 -24.8 157.7 Z"/>

<path fill="#EAAB83" stroke="none" d="
M 3.1 85
Q 6.9 82.55 7.7 80.35
L -9.65 73.7
Q -9.75 73.7 -9.8 73.7 -9.9 73.65 -10 73.65
L -10.2 73.65
Q -10.25 73.7 -10.65 73.3
L -10.95 73.2
Q -11.05 73.25 -11 73.6 -10.95 74.25 -10.8 74.85 -10.4 75.7 -10.4 75.75
L -10.4 75.8 -5.75 87.9
Q -5.15 89.5 -4.65 89.8 -3.9 90.25 -2.35 88.95 -0.25 87.2 3.1 85
M -71.75 146.9
Q -73.9 146.15 -79.5 143.8
L -82.5 210.05
Q -82.5 210.9 -82.7 212.55 -82.75 214 -82.2 214.9 -81.5 216.1 -76.45 224.3 -76.3 224.5 -76.15 225.05 -75.95 225.45 -75.5 225.3 -74.75 225.1 -74.75 224 -74.85 222.2 -74.9 221.35 -74.95 219.75 -74.85 218.7 -74.15 210.75 -73.55 199.6 -72.95 186.9 -72.65 180.5
L -70.7 149
Q -70.65 148.1 -70.75 147.8 -70.95 147.15 -71.75 146.9
M -54.25 56.95
Q -56.75 55.85 -59.85 54.55 -66.05 51.95 -69.15 50.6 -70.1 50.2 -70.55 50.4 -71.05 50.65 -71.25 51.8 -71.45 52.7 -71.65 53.6
L -72.05 55.25
Q -72.25 56.05 -72.5 56.95 -73 58.8 -73.65 60.8 -74.3 62.8 -72.2 63.2
L -31.35 71.5
Q -29 72 -24.5 71.95 -20.05 71.85 -21.1 70.65
L -27.3 68.35
Q -29.1 67.65 -33.05 66.1
L -34.3 65.65
Q -44.7 61.35 -50.6 58.6 -52.25 57.85 -54.25 56.95
M -106.7 -13
Q -107.1 -12.7 -107.45 -12.35 -110.1 -10.05 -112.9 -6.2 -114.65 -3.7 -118.2 1.3 -119.9 3.4 -121.3 6.9 -122.15 8.85 -123.65 12.85 -124.25 14.35 -125.65 17.3 -126.75 19.95 -126.55 22.15 -124.8 18.3 -121 15.3 -120.15 14.6 -118.95 13.4 -117.7 12 -117.05 11.35 -109.9 3.9 -101.5 -1.15 -100.5 -1.75 -99.95 -1.75 -99.15 -1.75 -98.55 -0.8 -92.9 7.85 -81.3 7.35 -67.4 6.8 -57.1 -7.3 -56.45 -8.15 -56.8 -9 -57.1 -9.75 -58.65 -9.65 -59.15 -9.6 -63 -8.95 -65.6 -8.55 -67.35 -8.75 -74.65 -9.65 -79.25 -5.45 -79.95 -4.75 -80.5 -4.45 -82.2 -3.35 -83.75 -4.45 -84.4 -4.9 -84.4 -5.7 -84.4 -6.1 -84.15 -7.15
L -83.55 -8.9
Q -82.65 -11.8 -85.35 -12.25 -85.6 -12.3 -85.85 -12.35 -89.15 -13 -90.75 -13.4 -93.7 -14.2 -95.85 -15.25 -98.85 -16.7 -101.75 -15.85 -103.8 -15.2 -106.7 -13 Z"/>

<path fill="#2A2A2A" stroke="none" d="
M -23.7 159
Q -23.9 158.2 -24.8 157.7 -25.55 159.4 -25.55 159.5 -27.85 174.6 -28.55 180.05 -30 191.6 -30.2 200.75 -30.25 205.4 -30.5 214.6 -30.6 222.6 -30.05 228.4 -30 229.2 -29.8 229.55 -29.5 230 -28.8 230.05 -28.05 230.15 -27.7 229.65 -27.5 229.3 -27.4 228.55 -26.65 222.6 -26.55 220.5 -25.9 201.6 -25.45 192.15 -25.45 191.85 -23.65 160.45 -23.6 159.35 -23.7 159
M -1.8 151.5
Q -1.85 150.35 -1.9 150.3 -2.05 149.65 -2.7 149.6 -3.45 149.55 -3.6 150.25 -3.65 150.65 -3.7 151.45 -4.5 154.65 -4.8 158.85 -4.95 160.7 -5.1 166.3 -5.25 172.1 -5.2 180.65 -5.2 185.45 -5.15 195 -5.25 197.35 -4.85 201.2 -4.55 205 -4.55 206.25 -4.6 207.5 -4.25 208.7 -3.75 210.5 -2.05 210.4 -0.6 210.35 -0.4 208.35
L -0.35 205.45
Q -0.5 187.45 -0.7 178.45 -1.05 163.45 -1.8 151.5 Z"/>

<path fill="#2A2A29" stroke="none" d="
M -13.35 117.5
Q -14.2 115.95 -15.65 115.95 -16.65 116 -18.35 116.85 -24.65 120.3 -27.85 121.9 -29.7 122.9 -33.35 125.05 -36.65 126.8 -39.35 127 -44.6 127.55 -47.25 127.8 -51.85 128.25 -55.15 128.1 -58.65 127.95 -61.85 129.1 -62.65 129.2 -63 129.3 -63.6 129.5 -63.5 130.25 -63.45 130.85 -62.9 131 -62.55 131.05 -61.85 131.1 -51.05 133.35 -40.05 132.3 -38.35 132.25 -34.95 132.15 -32.05 131.9 -30.2 130.65 -25.5 127.35 -15.5 121.85 -13.9 121 -13.35 120.2 -12.55 119.05 -13.35 117.5 Z"/>

<path fill="#EAAC83" stroke="none" d="
M -86.55 54.15
Q -86.6 54.1 -86.6 54.05
L -86.55 54.1 -87.05 52.1 -88.2 52.1
Q -89.6 53.8 -91.15 56.35 -91.3 56.65 -91.5 56.95 -91.7 57.35 -92 57.85 -92.7 59.1 -93.7 60.9 -94.55 62.35 -93.4 63.3 -89.5 66.2 -85.6 66.6 -84.7 66.7 -84.25 66.2 -83.85 65.7 -84.05 64.75
L -86.55 54.15 Z"/>

<path fill="#2B2B2A" stroke="none" d="
M 8.4 134.95
Q 8.45 133 5.9 132.9 -1.35 132.55 -3.95 132.25 -6.15 132 -8.7 133.2 -10.15 133.8 -10.1 135.2 -10.05 135.9 -9.5 136.25 -9.4 136.3 -8.5 136.65 -6.95 137.25 -4.5 137.2 -1.3 137.15 -0.8 137.2
L 5.8 137.2
Q 8.35 137.2 8.4 134.95 Z"/>
</g>

<g id="Layer1_0_FILL">
<path fill="#F8F1C3" stroke="none" d="
M -52.9 -116.25
Q -53.6 -112.4 -55.25 -104.75 -56.65 -97.8 -57.3 -93.05 -57.75 -92 -57.35 -90.75 -57.15 -89.95 -56.35 -88.7 -55.05 -86.75 -53.75 -84.85 -51.45 -81.55 -48.9 -78.15 -47.95 -76.9 -47.2 -76.5 -46.2 -75.9 -44.8 -76.45 -36.15 -79.6 -30.65 -82.4 -30.1 -82.7 -28.8 -83.1 -27.65 -83.6 -27.35 -84.7
L -19.25 -113.05
Q -19 -113.9 -19.1 -114.35 -19.25 -115 -20 -115.5 -21.05 -116.1 -27.95 -121.15 -30.55 -123 -34.15 -122.5 -41.45 -121.3 -50.6 -117.75 -51.15 -117.5 -51.8 -117.25 -52.4 -117 -52.5 -116.95 -52.8 -116.7 -52.9 -116.25
M -50.2 -109.25
Q -50.55 -109.6 -50.1 -112.3 -49.8 -114.25 -48.95 -115.15 -48.05 -116.1 -46.1 -116.2 -43.25 -116.35 -39.05 -116.75 -36.7 -116.95 -31.9 -117.4 -30.9 -116.95 -27.45 -115.6 -24.5 -114.45 -22.9 -113.5 -22.4 -113.2 -22.4 -112.9 -22.4 -112.7 -22.6 -112.05 -24.05 -108.25 -24.9 -107.85 -25.9 -107.3 -29.25 -109.05 -33 -111.05 -38.15 -110.55 -44 -109.55 -46.9 -109.25 -49.8 -108.9 -50.2 -109.25
M 28.85 -106.3
Q 27.95 -106.7 27.15 -105.95 24.35 -103.4 22.95 -102.05 20.6 -99.8 19.75 -97.55 14.4 -83.95 10.2 -71.95 9.85 -70.95 9 -68.75 8.45 -66.8 9 -65.45 11.75 -58.15 15.3 -53.85 17.45 -51.15 17.8 -50.75 19.55 -49.15 21.7 -49.2 25.2 -49.3 29.2 -50.4 31.9 -51.2 36.4 -52.95 40.6 -54.6 41.8 -58.5 44.8 -69.2 45.95 -74.7 47.9 -83.75 47.85 -91.2 47.8 -95.25 46.6 -97.65 45.05 -100.6 41.45 -101.8 40.7 -102.05 28.85 -106.3
M 27.25 -99.8
Q 28.3 -101.15 29.7 -101.25 30.55 -101.25 32.3 -100.6 34.3 -99.95 38.5 -99.2 40.6 -98.65 41.95 -96.55 43.25 -94.45 42.95 -92.4
L 38.3 -75.6
Q 38 -74.6 37.45 -74.7 37.1 -74.8 36.4 -75.45 31.85 -79.8 30.75 -81.05 29.55 -82.4 27.8 -82 23.15 -81.15 20.9 -80.7 20 -80.55 19.65 -80.85 19.3 -81.2 19.5 -82.1
L 23 -95.5
Q 23.35 -96.85 24.9 -97.9 26.9 -99.3 27.25 -99.8
M 15.55 -102.45
Q 15.7 -103.2 15.1 -103.9 8.65 -111 1.95 -116.15 0.05 -117.7 -2.9 -116.95 -5.9 -116.15 -6.65 -115.85 -9.85 -114.6 -11.65 -113.05 -13.95 -111.05 -14.8 -108.05 -19.55 -91.85 -23.25 -75.4 -23.65 -73.45 -23.4 -72.45 -23.15 -71.5 -21.8 -70.2 -18.35 -66.8 -17.15 -65.6 -14.5 -63.15 -12.15 -61.5 -11.15 -60.8 -10 -61.15 -8.1 -61.6 -4.8 -62.95 -1.35 -64.45 0.2 -64.9 1.8 -65.35 2.55 -66.3 3.3 -67.15 3.6 -68.8 4.45 -72.8 7.7 -81.7
L 15.1 -101.3
Q 15.5 -102.05 15.55 -102.45
M 7.7 -105.45
Q 10.5 -102.8 10.7 -101.85 10.9 -100.9 9.35 -97.4 7.5 -93.35 5 -86.45 4.8 -85.7 4.65 -85.5 4.45 -85.15 4 -85 3.45 -84.9 3.25 -85.4 3.05 -86 2.9 -86.3
L -4.8 -101.45
Q -5.6 -103.05 -7.6 -102.15
L -14.45 -98.65
Q -14.35 -101 -13.6 -104.1 -12.45 -108.9 -12.45 -109.15 -12.35 -109.7 -11.8 -110 -11.55 -110.15 -10.8 -110.35 -10.75 -110.35 -8.7 -110.8 -7.45 -111.05 -6.75 -111.5 -2.65 -113.6 0.8 -111.85 2.95 -110.75 6.4 -106.85
L 7.7 -105.45 Z"/>

<path fill="#EAAB83" stroke="none" d="
M -50.1 -112.3
Q -50.55 -109.6 -50.2 -109.25 -49.8 -108.9 -46.9 -109.25 -44 -109.55 -38.15 -110.55 -33 -111.05 -29.25 -109.05 -25.9 -107.3 -24.9 -107.85 -24.05 -108.25 -22.6 -112.05 -22.4 -112.7 -22.4 -112.9 -22.4 -113.2 -22.9 -113.5 -24.5 -114.45 -27.45 -115.6 -30.9 -116.95 -31.9 -117.4 -36.7 -116.95 -39.05 -116.75 -43.25 -116.35 -46.1 -116.2 -48.05 -116.1 -48.95 -115.15 -49.8 -114.25 -50.1 -112.3
M 71.95 -77.75
Q 70.4 -79.25 69.15 -79.6 67.55 -80.15 65.65 -79.3 64.35 -78.7 61.4 -77.9 58.5 -77.1 57.1 -76.45 56.55 -76.2 56.35 -76.05 56.05 -75.85 55.85 -75.4 55.5 -74.2 54.95 -71.2 54.45 -68.6 53.9 -67.45 53.6 -65.95 54 -65.6 54.4 -65.3 55.45 -65.65 58.45 -66.75 64.5 -68.9 66.1 -69.55 67.6 -68.3 68.05 -67.9 70.9 -65.75 72.85 -64.2 74.05 -63.05 74.7 -62.5 75.15 -62.55 75.55 -62.6 76.1 -63.2 78.8 -66.9 79.95 -68.05 80.55 -68.75 80.5 -69.2 80.45 -69.55 79.85 -70.15 73.7 -75.85 71.95 -77.75
M 29.7 -101.25
Q 28.3 -101.15 27.25 -99.8 26.9 -99.3 24.9 -97.9 23.35 -96.85 23 -95.5
L 19.5 -82.1
Q 19.3 -81.2 19.65 -80.85 20 -80.55 20.9 -80.7 23.15 -81.15 27.8 -82 29.55 -82.4 30.75 -81.05 31.85 -79.8 36.4 -75.45 37.1 -74.8 37.45 -74.7 38 -74.6 38.3 -75.6
L 42.95 -92.4
Q 43.25 -94.45 41.95 -96.55 40.6 -98.65 38.5 -99.2 34.3 -99.95 32.3 -100.6 30.55 -101.25 29.7 -101.25
M 10.7 -101.85
Q 10.5 -102.8 7.7 -105.45
L 6.4 -106.85
Q 2.95 -110.75 0.8 -111.85 -2.65 -113.6 -6.75 -111.5 -7.45 -111.05 -8.7 -110.8 -10.75 -110.35 -10.8 -110.35 -11.55 -110.15 -11.8 -110 -12.35 -109.7 -12.45 -109.15 -12.45 -108.9 -13.6 -104.1 -14.35 -101 -14.45 -98.65
L -7.6 -102.15
Q -5.6 -103.05 -4.8 -101.45
L 2.9 -86.3
Q 3.05 -86 3.25 -85.4 3.45 -84.9 4 -85 4.45 -85.15 4.65 -85.5 4.8 -85.7 5 -86.45 7.5 -93.35 9.35 -97.4 10.9 -100.9 10.7 -101.85 Z"/>

<path fill="#F7F1C3" stroke="none" d="
M 67.85 -83.25
Q 66 -84.7 62.4 -84 58.85 -83.35 57.15 -81.35 52.3 -75.75 49.5 -67.5 47.7 -62.25 45.5 -51.6 45.6 -50.45 46.5 -48.25 47.6 -45.5 47.9 -44.4 48.3 -42.6 50.35 -42.5 57.05 -42.25 61.25 -42.4 64.35 -42.5 66.45 -43.05 69.15 -43.8 70.95 -45.45 79.25 -52.85 85.7 -65.8 86.1 -66.7 85.95 -67.2 85.85 -67.7 85.15 -68.45 81.85 -71.8 76.65 -76 70.8 -80.8 67.85 -83.25
M 69.15 -79.6
Q 70.4 -79.25 71.95 -77.75 73.7 -75.85 79.85 -70.15 80.45 -69.55 80.5 -69.2 80.55 -68.75 79.95 -68.05 78.8 -66.9 76.1 -63.2 75.55 -62.6 75.15 -62.55 74.7 -62.5 74.05 -63.05 72.85 -64.2 70.9 -65.75 68.05 -67.9 67.6 -68.3 66.1 -69.55 64.5 -68.9 58.45 -66.75 55.45 -65.65 54.4 -65.3 54 -65.6 53.6 -65.95 53.9 -67.45 54.45 -68.6 54.95 -71.2 55.5 -74.2 55.85 -75.4 56.05 -75.85 56.35 -76.05 56.55 -76.2 57.1 -76.45 58.5 -77.1 61.4 -77.9 64.35 -78.7 65.65 -79.3 67.55 -80.15 69.15 -79.6 Z"/>
</g>

<path id="Layer3_0_MEMBER_3_1_STROKES" stroke="#000000" stroke-width="4" stroke-linejoin="round" stroke-linecap="round" fill="none" d="
M -151.54436798095702 -148.1205291748047
Q -153.42848739624023 -148.87716217041014 -155.3242515563965 -148.0839126586914 -157.1805206298828 -147.30718917846679 -157.95394592285155 -145.4154930114746
L -211.55914306640625 -14.30425720214842
Q -212.332568359375 -12.412561035156244 -211.5454460144043 -10.574292755126947 -210.74157638549804 -8.696912384033197 -208.85745697021483 -7.94027938842774
L 126.29082946777342 126.65004959106449
Q 128.20307006835938 127.41797561645507 130.04259185791014 126.60214004516604 131.84261856079107 125.8028305053711 132.61604385375975 123.91113433837893
L 186.22124099731448 -7.20010147094726
Q 186.99466629028322 -9.091797637939436 186.263786315918 -10.907479858398432 185.51615905761716 -12.76227416992188 183.60391845703126 -13.530200195312489
L -151.54436798095702 -148.1205291748047 Z"/>

<path id="Layer3_0_MEMBER_4_1_STROKES" stroke="#CCCCCC" stroke-width="1.65" stroke-linejoin="miter" stroke-linecap="round" stroke-miterlimit="4" fill="none" d="
M -127.85 -79
Q -128.95 -79.45 -130 -78.95 -131.15 -78.5 -131.6 -77.35
L -139.25 -58.55 -158.2 -66.15
Q -159.35 -66.6 -160.5 -66.15 -161.65 -65.7 -162.1 -64.6
L -168.25 -49.5
Q -168.7 -48.35 -168.25 -47.2 -167.8 -46.05 -166.65 -45.6
L -147.7 -38 -155.35 -19.2
Q -155.8 -18.1 -155.3 -17.05 -154.85 -16 -153.75 -15.55
L -138.35 -9.35
Q -137.25 -8.9 -136.15 -9.35 -135.1 -9.8 -134.65 -10.9
L -127 -29.7 -108.05 -22.1
Q -106.9 -21.6 -105.75 -22.1 -104.55 -22.55 -104.1 -23.7
L -97.95 -38.8
Q -97.5 -39.9 -98 -41.05 -98.45 -42.15 -99.6 -42.65
L -118.55 -50.25 -110.9 -69.05
Q -110.45 -70.2 -110.85 -71.25 -111.35 -72.35 -112.45 -72.8
L -127.85 -79 Z"/>

<path id="Layer3_0_MEMBER_12_1_STROKES" stroke="#000000" stroke-width="0.5" stroke-linejoin="miter" stroke-linecap="butt" stroke-miterlimit="4" fill="none" d="
M -152.04315414428712 -58.739379882812486
L -160.69257812499998 -55.120178985595686 -157.02492294311523 -46.554631042480466 -156.28561935424804 -48.36287002563476 -150.1270797729492 -45.88969650268554 -146.63529205322266 -54.430148315429676 -152.79383163452147 -56.9033218383789 -152.04315414428712 -58.739379882812486 Z"/>

<path id="Layer3_0_MEMBER_13_1_STROKES" stroke="#000000" stroke-width="0.5" stroke-linejoin="miter" stroke-linecap="butt" stroke-miterlimit="4" fill="none" d="
M -109.0177406311035 -41.46104431152342
L -105.35008544921875 -32.8954963684082 -113.99950942993162 -29.276295471191403 -113.26020584106443 -31.0845344543457 -119.41874542236327 -33.55770797729491 -115.92695770263671 -42.09815979003906 -109.76841812133787 -39.62498626708984 -109.0177406311035 -41.46104431152342 Z"/>

<path id="Layer3_0_MEMBER_14_1_STROKES" stroke="#000000" stroke-width="0.5" stroke-linejoin="miter" stroke-linecap="butt" stroke-miterlimit="4" fill="none" d="
M -118.13838272094726 -63.03356552124022
L -121.80603790283203 -71.59911346435545 -130.45546188354493 -67.97991256713865 -128.59946365356444 -67.23457260131835 -131.0903480529785 -61.14219818115234 -122.48526535034179 -57.68653106689452 -119.99438095092773 -63.77890548706053 -118.13838272094726 -63.03356552124022 Z"/>

<path id="Layer3_0_MEMBER_15_1_STROKES" stroke="#000000" stroke-width="0.5" stroke-linejoin="miter" stroke-linecap="butt" stroke-miterlimit="4" fill="none" d="
M -135.80205154418945 -19.83056335449217
L -144.45147552490235 -16.211362457275385 -148.1191307067871 -24.776910400390605 -146.26313247680665 -24.0315704345703 -143.77224807739256 -30.123944854736322 -135.16716537475585 -26.6682777404785 -137.6580497741699 -20.575903320312477 -135.80205154418945 -19.83056335449217 Z"/>

<path id="Layer3_0_MEMBER_16_1_STROKES" stroke="#000000" stroke-width="0.7" stroke-linejoin="miter" stroke-linecap="butt" stroke-miterlimit="4" fill="none" d="
M -125.56321716308594 -41.10993499755858
Q -126.77485122680663 -38.066364288330064 -129.81597290039062 -36.79385986328124 -132.8570945739746 -35.521355438232405 -135.92230377197265 -36.75229568481444 -138.9875129699707 -37.98323593139648 -140.2770538330078 -40.994866943359355 -141.56659469604492 -44.006497955322246 -140.32683944702148 -47.038775634765614 -139.08708419799805 -50.07105331420897 -136.04596252441405 -51.34355773925779 -133.0329620361328 -52.62735519409179 -129.96775283813474 -51.396414947509754 -126.90254364013671 -50.16547470092773 -125.61300277709961 -47.15384368896483 -124.31208801269531 -44.17003173828124 -125.55184326171876 -41.13775405883787
L -125.56321716308594 -41.10993499755858 Z"/>

<path id="Layer2_0_1_STROKES" stroke="#000000" stroke-width="4" stroke-linejoin="round" stroke-linecap="round" fill="none" d="
M 7.7 80.35
Q 9.25 81 11.05 81.55 12.8 82.05 14.35 82.6 15.85 83.1 22.75 85.55 29.6 88 32.75 89.65 35.9 91.3 39.5 92.6 43.05 93.9 40.1 98.85 37.15 103.75 32.5 113.45 27.85 123.1 26.55 126.45 25.2 129.75 24.25 131.7 23.35 133.6 23.75 135.7 24.1 137.8 24.1 138.3
L 25.35 177.25
Q 25.55 183.15 25.9 195 26.25 205.4 26.65 212.7 26.7 213.6 26.75 215.35 26.7 216.9 26.05 217.95 3.2 223.8 -8.2 226.8
L -89.5 248.3
Q -89.95 248.45 -92.15 248.8 -92.9 248.4 -93 247.6 -92.9 246.65 -92.9 246.2 -91.9 224.05 -91.75 219.85 -90.65 197.65 -90.2 186.55 -89.3 166.65 -88.75 156.7 -88.55 152.95 -87.8 134.4 -87.95 124.9 -88.7 123.05 -90.7 118.1 -94.85 112.65 -103.95 100.5 -123.55 75.05 -132.25 63.25 -137.35 56.95 -137.95 56.25 -138.45 55.6 -139.5 54.3 -139.15 51.8 -137.35 39.45 -135.1 27.4 -134.25 22.2 -134.15 21.05 -133.9 17.5 -132.35 13.95 -131.1 11.1 -128.65 7.6 -120.25 -4.35 -114.45 -12.35 -111.3 -16.75 -108.9 -19.95 -107.3 -22.1 -104.4 -21.55 -100.45 -20.8 -95.5 -19.4 -92.95 -18.7 -86.5 -17.35 -84.4 -16.95 -81.85 -16.45 -80 -16.1 -77.15 -15.45 -74.3 -14.85 -74.45 -14.15 -74.6 -13.45 -74.9 -13.65 -75.2 -13.9 -75.35 -13.2 -75.5 -12.55 -78.15 -10.6 -80.85 -8.65 -81.5 -7.6 -80.35 -8.85 -78.2 -10.5 -76.7 -11.65 -75.8 -12.35 -75.05 -13 -74.8 -13.2 -74.15 -13.75 -73.1 -14.1 -71.95 -14.5 -70.25 -14.65 -59.45 -15.45 -52.3 -18.95 -50.75 -19.75 -50.05 -19.2 -49.35 -18.65 -49.6 -16.85 -49.8 -15.45 -50 -14.1 -50.2 -13.2 -50.35 -12.35 -52.4 -1.25 -56.3 7.45 -57.2 9.5 -59.35 11 -60.55 11.8 -63.5 13.25 -73.7 18.15 -85 21.6 -97.4 25.35 -105.95 17.95 -106.65 17.35 -106.65 18 -105.35 21.3 -100.7 23.2 -96.1 25.05 -94.7 28 -93.35 30.95 -91.75 34.35 -90.15 37.75 -75.1 45.4 -67.3 49.35 -49.6 56.95 -39.4 61.35 -25.9 67 -23.7 67.9 -21.45 68.85 -17.65 70.45 -13.6 72.1 -13.35 72.2 -12.8 72.45 -12.55 72.5333984375 -11.425 73 -11.2169921875 73.089453125 -10.95 73.2
L -10.65 73.3 -10.1 73.55
M -9.95 73.6
Q -9.875 73.625 -9.8 73.65 -9.725 73.675 -9.65 73.7
L 7.7 80.35"/>

<path id="Layer1_0_1_STROKES" stroke="#000000" stroke-width="4" stroke-linejoin="round" stroke-linecap="round" fill="none" d="
M -20.923985290527344 -77.78086700439454
Q -16.94693603515625 -94.16591491699218 -11.924266052246093 -110.28328094482421 -11.023767089843748 -113.26847839355469 -8.690365600585936 -115.22935791015625 -6.864482116699219 -116.74874420166014 -3.6438751220703134 -117.94454956054688 -2.888926696777344 -118.23184661865236 0.12411651611328134 -118.98109588623048 3.086323547363281 -119.68119659423829 4.95987548828125 -118.09936828613282 11.57194061279297 -112.83708343505859 17.90113525390625 -105.62931518554689 18.489230346679687 -104.91929626464844 18.326596069335938 -104.17194213867188 18.26985321044922 -103.77284698486328 17.857257080078124 -103.0297119140625
L 10.127612304687501 -83.55758666992188
Q 6.727909851074219 -74.71379241943359 5.81053466796875 -70.72874755859375 5.482734680175781 -69.08406219482423 4.718504333496093 -68.2468490600586 3.952586364746094 -67.30965118408203 2.345236206054688 -66.88672180175782 0.7878784179687499 -66.46294860839843 -2.686909484863281 -65.02140045166016 -6.009188842773438 -63.727297973632815 -7.916493225097656 -63.30943145751953 -9.07222442626953 -62.97889251708984 -10.060258483886718 -63.69566192626953 -12.382054138183593 -65.38506927490235 -14.990303039550778 -67.8794174194336 -16.16986846923828 -69.09948577880859 -19.561962890625 -72.55718994140625 -20.88981781005859 -73.87977447509766 -21.123747253417967 -74.83384857177735 -21.356832885742186 -75.83791503906251 -20.923985290527344 -77.78086700439454 Z
M 23.576998901367187 -50.82627868652344
Q 21.426483154296875 -50.81257019042969 19.70375213623047 -52.44185943603516 19.360556030273436 -52.847705078124996 17.25644989013672 -55.583576965332036 13.779559326171876 -59.942831420898436 11.153175354003906 -67.28812713623047 10.62604217529297 -68.64720306396484 11.20886688232422 -70.5876235961914 12.095864868164062 -72.77294311523438 12.462687683105468 -73.76688385009766 16.864561462402342 -85.69417266845703 22.44326171875 -99.20180969238281 23.331103515625003 -101.43712158203125 25.718716430664063 -103.647119140625 27.141285705566407 -104.97328643798829 29.983892822265624 -107.47564392089843 30.796427917480468 -108.21202850341797 31.68954010009766 -107.79690093994141 43.466007995605466 -103.34756622314453 44.211674499511716 -103.08494720458984 47.790873718261714 -101.82437591552734 49.29085235595703 -98.84866790771486 50.450166320800776 -96.4287826538086 50.431809997558595 -92.37855682373048 50.35607452392578 -84.92884979248046 48.25364227294922 -75.91313934326172 47.01099853515625 -70.43338623046876 43.83088073730468 -59.785647583007815 42.56524658203125 -55.906494140625 38.33804168701172 -54.32762603759766 33.80919494628906 -52.65383605957032 31.09610595703125 -51.899523925781246 27.078152465820313 -50.86719665527343 23.576998901367187 -50.82627868652344 Z
M 47.41387023925781 -52.824258422851564
Q 49.79326629638672 -63.43550567626953 51.681591796875 -68.65432739257812 54.620393371582026 -76.85581512451172 59.56416015625 -82.37311096191405 61.29765319824219 -84.3441162109375 64.8580810546875 -84.9341064453125 68.46934509277344 -85.57324523925782 70.29459228515624 -84.09224548339844 73.20279541015624 -81.59283447265625 78.9708969116211 -76.69484100341796 84.09922332763671 -72.40772552490235 87.3421844482422 -69.00254516601562 88.0294204711914 -68.24084625244141 88.12096710205078 -67.7392349243164 88.26250610351562 -67.23677978515626 87.84737854003906 -66.34366760253906 81.17981567382812 -53.504495239257814 72.75619812011719 -46.245697021484375 70.92862701416016 -44.62632598876953 68.2163818359375 -43.92200622558593 66.10742034912109 -43.40753021240234 63.006205749511714 -43.35986175537109 58.80431518554687 -43.280764770507815 52.10955657958984 -43.64379730224609 50.06155700683593 -43.77837829589844 49.69199523925781 -45.58485412597656 49.410604858398436 -46.68974914550781 48.357182312011716 -49.45789337158203 47.49444732666016 -51.67274627685547 47.41387023925781 -52.824258422851564 Z
M -54.67092437744141 -96.0028091430664
Q -53.94086151123047 -100.74111480712891 -52.42378540039063 -107.66642761230469 -50.644934082031256 -115.28741455078125 -49.88006744384766 -119.12501373291016 -49.77248840332031 -119.57325744628906 -49.46831512451172 -119.81815643310547 -49.367486572265626 -119.86646118164063 -48.76335906982422 -120.10629730224609 -48.109239196777345 -120.34528961181641 -47.55510406494141 -120.58596954345703 -38.34658966064454 -123.98101043701172 -31.02745208740234 -125.05763092041016 -27.41956329345703 -125.49680023193359 -24.851181030273438 -123.60320434570313 -18.03745880126953 -118.43752899169921 -16.997744750976562 -117.81990051269531 -16.256297302246093 -117.30731964111328 -16.117289733886718 -116.65488739013671 -16.024899291992188 -116.2032684326172 -16.289205932617186 -115.3576171875
L -24.86641082763672 -87.14864044189453
Q -25.184928894042965 -86.05387115478516 -26.34319152832031 -85.57335510253905 -27.64974365234375 -85.19535522460937 -28.204722595214843 -84.90468292236329 -33.751136779785156 -82.19792938232422 -42.45297698974609 -79.19438934326172 -43.862045288085945 -78.66809997558595 -44.85176696777344 -79.28488464355469 -45.594902038574226 -79.69748077392579 -46.52366180419922 -80.96332244873048 -49.01589355468751 -84.40583801269531 -51.25985107421875 -87.74414978027343 -52.527587890625 -89.66579895019531 -53.794480895996095 -91.63744049072265 -54.573263549804686 -92.90075073242188 -54.75973205566407 -93.70400390625 -55.13857574462891 -94.96056365966797 -54.67092437744141 -96.0028091430664 Z"/>
</defs>

<g transform="matrix( 1, 0, 0, 1, 629.05,292.1) ">
<g transform="matrix( 0.5624237060546875, 0.225860595703125, -0.22747802734375, 0.5563812255859375, -156.1,-149.95) ">
<use xlink:href="#Layer3_0_MEMBER_0_FILL"/>
</g>

<g transform="matrix( 0.5624237060546875, 0.225860595703125, -0.22747802734375, 0.5563812255859375, -156.1,-149.95) ">
<use xlink:href="#Layer3_0_MEMBER_1_FILL"/>
</g>

<g transform="matrix( 0.5624237060546875, 0.225860595703125, -0.22747802734375, 0.5563812255859375, -156.1,-149.95) ">
<use xlink:href="#Layer3_0_MEMBER_2_FILL"/>
</g>

<g transform="matrix( 0.5624237060546875, 0.225860595703125, -0.22747802734375, 0.5563812255859375, -156.1,-149.95) ">
<use xlink:href="#Layer3_0_MEMBER_3_FILL"/>

<use xlink:href="#Layer3_0_MEMBER_3_1_STROKES" transform="matrix( 1.527252197265625, -0.6199798583984375, 0.624420166015625, 1.5438385009765625, 332,134.7) "/>
</g>

<g transform="matrix( 1, 0, 0, 1, 0,0) ">
<use xlink:href="#Layer3_0_MEMBER_4_FILL"/>

<use xlink:href="#Layer3_0_MEMBER_4_1_STROKES"/>
</g>

<g transform="matrix( 0.5624237060546875, 0.225860595703125, -0.22747802734375, 0.5563812255859375, -156.1,-149.95) ">
<use xlink:href="#Layer3_0_MEMBER_5_FILL"/>
</g>

<g transform="matrix( 0.562408447265625, 0.225860595703125, -0.2274627685546875, 0.556365966796875, -156.1,-149.95) ">
<use xlink:href="#Layer3_0_MEMBER_6_MEMBER_0_FILL"/>
</g>

<g transform="matrix( 1, 0, 0, 1, -139.25,-108.85) ">
<use xlink:href="#Layer3_0_MEMBER_6_MEMBER_1_FILL"/>
</g>

<g transform="matrix( 0.562408447265625, 0.225860595703125, -0.2274627685546875, 0.556365966796875, -156.1,-149.95) ">
<use xlink:href="#Layer3_0_MEMBER_7_MEMBER_0_FILL"/>
</g>

<g transform="matrix( 1, 0, 0, 1, -139.25,-108.85) ">
<use xlink:href="#Layer3_0_MEMBER_7_MEMBER_1_FILL"/>
</g>

<g transform="matrix( 0.5624237060546875, 0.225860595703125, -0.22747802734375, 0.5563812255859375, -156.1,-149.95) ">
<use xlink:href="#Layer3_0_MEMBER_8_FILL"/>
</g>

<g transform="matrix( 0.5624237060546875, 0.225860595703125, -0.22747802734375, 0.5563812255859375, -156.1,-149.95) ">
<use xlink:href="#Layer3_0_MEMBER_9_FILL"/>
</g>

<g transform="matrix( 0.5624237060546875, 0.225860595703125, -0.22747802734375, 0.5563812255859375, -156.1,-149.95) ">
<use xlink:href="#Layer3_0_MEMBER_10_FILL"/>
</g>

<g transform="matrix( 0.5624237060546875, 0.225860595703125, -0.22747802734375, 0.5563812255859375, -156.1,-149.95) ">
<use xlink:href="#Layer3_0_MEMBER_11_FILL"/>
</g>

<g transform="matrix( 0.5624237060546875, 0.225860595703125, -0.22747802734375, 0.5563812255859375, -156.1,-149.95) ">
<use xlink:href="#Layer3_0_MEMBER_12_1_STROKES" transform="matrix( 1.527252197265625, -0.6199798583984375, 0.624420166015625, 1.5438385009765625, 332,134.7) "/>
</g>

<g transform="matrix( 0.5624237060546875, 0.225860595703125, -0.22747802734375, 0.5563812255859375, -156.1,-149.95) ">
<use xlink:href="#Layer3_0_MEMBER_13_1_STROKES" transform="matrix( 1.527252197265625, -0.6199798583984375, 0.624420166015625, 1.5438385009765625, 332,134.7) "/>
</g>

<g transform="matrix( 0.5624237060546875, 0.225860595703125, -0.22747802734375, 0.5563812255859375, -156.1,-149.95) ">
<use xlink:href="#Layer3_0_MEMBER_14_1_STROKES" transform="matrix( 1.527252197265625, -0.6199798583984375, 0.624420166015625, 1.5438385009765625, 332,134.7) "/>
</g>

<g transform="matrix( 0.5624237060546875, 0.225860595703125, -0.22747802734375, 0.5563812255859375, -156.1,-149.95) ">
<use xlink:href="#Layer3_0_MEMBER_15_1_STROKES" transform="matrix( 1.527252197265625, -0.6199798583984375, 0.624420166015625, 1.5438385009765625, 332,134.7) "/>
</g>

<g transform="matrix( 0.5624237060546875, 0.225860595703125, -0.22747802734375, 0.5563812255859375, -156.1,-149.95) ">
<use xlink:href="#Layer3_0_MEMBER_16_1_STROKES" transform="matrix( 1.527252197265625, -0.6199798583984375, 0.624420166015625, 1.5438385009765625, 332,134.7) "/>
</g>

<g transform="matrix( 0.5624237060546875, 0.225860595703125, -0.22747802734375, 0.5563812255859375, -156.1,-149.95) ">
<use xlink:href="#Layer3_0_MEMBER_17_FILL"/>
</g>

<g transform="matrix( 0.5624237060546875, 0.225860595703125, -0.22747802734375, 0.5563812255859375, -156.1,-149.95) ">
<use xlink:href="#Layer3_0_MEMBER_18_FILL"/>
</g>

<g transform="matrix( 1, 0, 0, 1, 0,0) ">
<use xlink:href="#Layer2_0_FILL"/>

<use xlink:href="#Layer2_0_1_STROKES"/>
</g>

<g transform="matrix( 0.999847412109375, 0.016876220703125, -0.016876220703125, 0.999847412109375, 1.05,-2) ">
<use xlink:href="#Layer1_0_FILL"/>

<use xlink:href="#Layer1_0_1_STROKES" transform="matrix( 0.9998626708984375, -0.016876220703125, 0.016876220703125, 0.9998626708984375, -1,2) "/>
</g>
</g>
</svg>
