<svg xmlns="http://www.w3.org/2000/svg" viewBox="0 0 504 504"><defs><style>.cls-1{fill:#f8993a;}.cls-2{fill:none;stroke:#010101;stroke-linecap:round;stroke-linejoin:round;stroke-width:4px;}</style></defs><title>Asset 2</title><g id="Layer_2" data-name="Layer 2"><g id="Layer_1-2" data-name="Layer 1"><g id="Layer0_0_MEMBER_0_FILL" data-name="Layer0 0 MEMBER 0 FILL"><path class="cls-1" d="M361.36,26.61c-1.76-.91-2.8-1.21-3.11-.9s-6.74,7.95-18.94,22.56L320.59,70.66c-.2.2-.62.24-1.28.12a34.15,34.15,0,0,1-3.71-1.15q-7.34-2.55-13.09-4.09t-13.18-3c-3.86-.76-5.82-1.19-5.88-1.27s-1.21-6.2-3.28-18.26L272.92,2h-21q-8.47,0-14.84.09-6.13.12-6.14.21,0,.42-2.56,14.75-2.94,16.77-5.11,29.3-2.61,14.79-2.69,14.93a41.4,41.4,0,0,1-5.2,1.06,189.66,189.66,0,0,0-27,7.29,30.5,30.5,0,0,1-3.92,1.24,1.26,1.26,0,0,1-1.19-.38q-.51-.6-18.77-22.39Q146,25.92,145.75,25.71c-.31-.31-1.35,0-3.11.9s-6.87,3.81-15.48,8.78q-17.91,10.41-18,10.7t10.11,28.4l10.23,28-1.58,1.41q-8.56,7.71-12.11,11.3-3.7,3.7-11.85,12.71l-1.41,1.53L75,119.4q-10.92-4-19.66-7.12-8.33-2.94-8.7-3c-.37,0-1.22,1-2.56,3.12s-4.15,6.93-8.7,14.75q-7.45,12.92-8.78,15.48c-.91,1.76-1.21,2.8-.9,3.11s7.95,6.74,22.56,18.94l22.39,18.72c.2.2.24.62.12,1.28a36.77,36.77,0,0,1-1.15,3.66q-2.5,7.34-4.22,13.69t-3,13.18c-.65,3.47-1,5.24-1.1,5.33s-5.07.95-14.93,2.69q-12.54,2.17-29.3,5.11Q2.72,230.92,2.3,230.91q-.09,0-.21,6.19Q2,243.49,2,252t.09,14.92q.12,6.19.21,6.19.42,0,14.75,2.51,16.77,3,29.3,5.12,14.79,2.64,14.93,2.73t1.1,5.29q1.29,6.78,3,13.17t4.22,13.69a34.15,34.15,0,0,1,1.15,3.71c.12.66.08,1.08-.12,1.28L48.27,339.31q-21.92,18.3-22.56,18.94c-.31.31,0,1.35.9,3.11s3.81,6.87,8.78,15.48q6.82,11.73,8.7,14.75c1.34,2.11,2.19,3.13,2.56,3.08s3.15-1,8.7-3q8.74-3.12,19.66-7.12l27.5-10,1.41,1.49q8.14,9,11.85,12.79,3.54,3.49,12.11,11.26l1.58,1.41-10.23,28q-10.23,28-10.11,28.35t18,10.71q12.92,7.46,15.48,8.82c1.76.91,2.8,1.21,3.11.9q.21-.21,18.72-22.39,18.25-21.82,18.77-22.39a1.36,1.36,0,0,1,1.19-.42c.46.08,1.76.49,3.92,1.23a183.28,183.28,0,0,0,27,7.3c3.38.62,5.11,1,5.2,1.06s.95,5.08,2.69,15q2.17,12.54,5.11,29.3,2.57,14.32,2.56,14.71a55.71,55.71,0,0,0,6.14.21q6.36.13,14.84.13h21l7.25-41q3.1-18.14,3.28-18.3c.06-.08,2-.5,5.88-1.23q7.51-1.5,13.18-3t13.09-4.09a34.15,34.15,0,0,1,3.71-1.15c.66-.15,1.08-.12,1.28.08l18.72,22.39q18.3,21.92,18.94,22.6c.31.31,1.35,0,3.11-.9s6.87-3.85,15.48-8.82q17.91-10.36,18-10.71T376.71,407.5l-2.22-6,2.52-2.22q6.44-5.58,11.6-10.75T399.27,377l2.18-2.47,7.2,2.6q19.88,7.29,34.84,12.71Q457.56,395,457.78,395a37.93,37.93,0,0,0,2.43-3.75q2.27-3.75,5.29-9,4.56-8,10.4-18c1.22-2.1,2-3.54,2.35-4.3s.41-1.21.21-1.41-7.8-6.6-22.56-18.94l-22.6-18.89c-.2-.2-.23-.62-.08-1.28a34.15,34.15,0,0,1,1.15-3.71,200.34,200.34,0,0,0,7.46-27.8c.23-1.22.45-2.29.68-3.2a4.93,4.93,0,0,1,.47-1.36q.39,0,19.4-3.33l29-5.07q9.85-1.75,10.24-1.75T502,252q0-8.49-.13-14.88a56.48,56.48,0,0,0-.21-6.19q-.26,0-14.5-2.51l-44.52-7.81-.81-4.47a201.34,201.34,0,0,0-7.46-27.77,36.77,36.77,0,0,1-1.15-3.66c-.15-.66-.12-1.08.08-1.28l22.6-18.94Q478,146,478.46,145.54q.3-.25-.21-1.41c-.34-.74-1.13-2.16-2.35-4.26q-5.83-10.06-10.4-18.08-3-5.25-5.29-9a37.93,37.93,0,0,0-2.43-3.75q-.21,0-14.29,5.07l-34.84,12.71-7.2,2.64L399.27,127q-5.37-6.2-10.66-11.47T377,104.69l-2.52-2.18,2.22-6q18.3-50,18.17-50.41t-18-10.7q-12.91-7.45-15.48-8.78m-61.15,85.67A148.05,148.05,0,0,1,396.33,220a134.5,134.5,0,0,1,2.6,15.61,175.46,175.46,0,0,1,0,32.84,132.63,132.63,0,0,1-2.6,15.6,148.27,148.27,0,0,1-67.17,94.08,146.76,146.76,0,0,1-36.54,16.07,140.86,140.86,0,0,1-23.07,4.61,157.78,157.78,0,0,1-24.22.81A144.62,144.62,0,0,1,200,390.4a146.72,146.72,0,0,1-39.45-22.3,148.15,148.15,0,0,1-50.66-75.48,141.76,141.76,0,0,1-4.65-23,158.44,158.44,0,0,1-.81-24.26A144.06,144.06,0,0,1,123.49,179,145.75,145.75,0,0,1,171,128.4a147.71,147.71,0,0,1,64.17-23.29c1.88-.22,5.06-.45,9.56-.68s7.27-.3,8.27-.21c2,.11,4.33.21,7,.3A136,136,0,0,1,300.21,112.28Z"/></g><path id="Layer0_0_MEMBER_0_1_STROKES" data-name="Layer0 0 MEMBER 0 1 STROKES" class="cls-2" d="M230.91,2.3q0,.42-2.56,14.75-2.94,16.77-5.11,29.3-2.61,14.79-2.69,14.93a41.4,41.4,0,0,1-5.2,1.06,189.66,189.66,0,0,0-27,7.29,30.5,30.5,0,0,1-3.92,1.24,1.26,1.26,0,0,1-1.19-.38q-.51-.6-18.77-22.39Q146,25.92,145.75,25.71c-.31-.31-1.35,0-3.11.9s-6.87,3.81-15.48,8.78q-17.91,10.41-18,10.7t10.11,28.4l10.23,28-1.58,1.41q-8.56,7.71-12.11,11.3-3.7,3.7-11.85,12.71l-1.41,1.53L75,119.4q-10.92-4-19.66-7.12-8.33-2.94-8.7-3c-.37,0-1.22,1-2.56,3.12s-4.15,6.93-8.7,14.75q-7.45,12.92-8.78,15.48c-.91,1.76-1.21,2.8-.9,3.11s7.95,6.74,22.56,18.94l22.39,18.72c.2.2.24.62.12,1.28a36.77,36.77,0,0,1-1.15,3.66q-2.5,7.34-4.22,13.69t-3,13.18c-.65,3.47-1,5.24-1.1,5.33s-5.07.95-14.93,2.69q-12.54,2.17-29.3,5.11Q2.72,230.92,2.3,230.91q-.09,0-.21,6.19Q2,243.49,2,252t.09,14.92q.12,6.19.21,6.19.42,0,14.75,2.51,16.77,3,29.3,5.12,14.79,2.64,14.93,2.73t1.1,5.29q1.29,6.78,3,13.17t4.22,13.69a34.15,34.15,0,0,1,1.15,3.71c.12.66.08,1.08-.12,1.28L48.27,339.31q-21.92,18.3-22.56,18.94c-.31.31,0,1.35.9,3.11s3.81,6.87,8.78,15.48q6.82,11.73,8.7,14.75c1.34,2.11,2.19,3.13,2.56,3.08s3.15-1,8.7-3q8.74-3.12,19.66-7.12l27.5-10,1.41,1.49q8.14,9,11.85,12.79,3.54,3.49,12.11,11.26l1.58,1.41-10.23,28q-10.23,28-10.11,28.35t18,10.71q12.92,7.46,15.48,8.82c1.76.91,2.8,1.21,3.11.9q.21-.21,18.72-22.39,18.25-21.82,18.77-22.39a1.36,1.36,0,0,1,1.19-.42c.46.08,1.76.49,3.92,1.23a183.28,183.28,0,0,0,27,7.3c3.38.62,5.11,1,5.2,1.06s.95,5.08,2.69,15q2.17,12.54,5.11,29.3,2.57,14.32,2.56,14.71a55.71,55.71,0,0,0,6.14.21q6.36.13,14.84.13h21l7.25-41q3.1-18.14,3.28-18.3c.06-.08,2-.5,5.88-1.23q7.51-1.5,13.18-3t13.09-4.09a34.15,34.15,0,0,1,3.71-1.15c.66-.15,1.08-.12,1.28.08l18.72,22.39q18.3,21.92,18.94,22.6c.31.31,1.35,0,3.11-.9s6.87-3.85,15.48-8.82q17.91-10.36,18-10.71T376.71,407.5l-2.22-6,2.52-2.22q6.44-5.58,11.6-10.75T399.27,377l2.18-2.47,7.2,2.6q19.88,7.29,34.84,12.71Q457.56,395,457.78,395a37.93,37.93,0,0,0,2.43-3.75q2.27-3.75,5.29-9,4.56-8,10.4-18c1.22-2.1,2-3.54,2.35-4.3s.41-1.21.21-1.41-7.8-6.6-22.56-18.94l-22.6-18.89c-.2-.2-.23-.62-.08-1.28a34.15,34.15,0,0,1,1.15-3.71,200.34,200.34,0,0,0,7.46-27.8c.23-1.22.45-2.29.68-3.2a4.93,4.93,0,0,1,.47-1.36q.39,0,19.4-3.33l29-5.07q9.85-1.75,10.24-1.75T502,252q0-8.49-.13-14.88a56.48,56.48,0,0,0-.21-6.19q-.26,0-14.5-2.51l-44.52-7.81-.81-4.47a201.34,201.34,0,0,0-7.46-27.77,36.77,36.77,0,0,1-1.15-3.66c-.15-.66-.12-1.08.08-1.28l22.6-18.94Q478,146,478.46,145.54q.3-.25-.21-1.41c-.34-.74-1.13-2.16-2.35-4.26q-5.83-10.06-10.4-18.08-3-5.25-5.29-9a37.93,37.93,0,0,0-2.43-3.75q-.21,0-14.29,5.07l-34.84,12.71-7.2,2.64L399.27,127q-5.37-6.2-10.66-11.47T377,104.69l-2.52-2.18,2.22-6q18.3-50,18.17-50.41t-18-10.7q-12.91-7.45-15.48-8.78c-1.76-.91-2.8-1.21-3.11-.9s-6.74,7.95-18.94,22.56L320.59,70.66c-.2.2-.62.24-1.28.12a34.15,34.15,0,0,1-3.71-1.15q-7.34-2.55-13.09-4.09t-13.18-3c-3.86-.76-5.82-1.19-5.88-1.27s-1.21-6.2-3.28-18.26L272.92,2h-21q-8.47,0-14.84.09Q230.92,2.21,230.91,2.3ZM260,104.52a136,136,0,0,1,40.21,7.76A148.05,148.05,0,0,1,396.33,220a134.5,134.5,0,0,1,2.6,15.61,175.46,175.46,0,0,1,0,32.84,132.63,132.63,0,0,1-2.6,15.6,148.27,148.27,0,0,1-67.17,94.08,146.76,146.76,0,0,1-36.54,16.07,140.86,140.86,0,0,1-23.07,4.61,157.78,157.78,0,0,1-24.22.81A144.62,144.62,0,0,1,200,390.4a146.72,146.72,0,0,1-39.45-22.3,148.15,148.15,0,0,1-50.66-75.48,141.76,141.76,0,0,1-4.65-23,158.44,158.44,0,0,1-.81-24.26A144.06,144.06,0,0,1,123.49,179,145.75,145.75,0,0,1,171,128.4a147.71,147.71,0,0,1,64.17-23.29c1.88-.22,5.06-.45,9.56-.68s7.27-.3,8.27-.21C255,104.33,257.29,104.43,260,104.52Z"/></g></g></svg>