<svg xmlns="http://www.w3.org/2000/svg" viewBox="0 0 402.56 401.31"><defs><style>.cls-1{fill:#1a1a1a;}.cls-2{fill:gray;}.cls-3{fill:#dcdcdc;}.cls-16,.cls-18,.cls-4,.cls-5,.cls-8,.cls-9{fill:none;}.cls-16,.cls-18,.cls-4,.cls-8,.cls-9{stroke:#000;}.cls-16,.cls-18,.cls-4,.cls-5{stroke-linecap:round;}.cls-16,.cls-18,.cls-4{stroke-linejoin:round;}.cls-4{stroke-width:4px;}.cls-5{stroke:#ccc;stroke-width:1.65px;}.cls-6{fill:#ddd;}.cls-7{fill:#ff3434;}.cls-8{stroke-width:0.5px;}.cls-9{stroke-width:0.7px;}.cls-10{fill:#f7f1c3;}.cls-11{fill:#eaab83;}.cls-12{fill:#2a2a2a;}.cls-13{fill:#2a2a29;}.cls-14{fill:#eaac83;}.cls-15{fill:#2b2b2a;}.cls-16{stroke-width:4px;}.cls-17{fill:#f8f1c3;}.cls-18{stroke-width:4px;}</style></defs><title>Asset 1</title><g id="Layer_2" data-name="Layer 2"><g id="Layer_1-2" data-name="Layer 1"><g id="Layer3_0_MEMBER_0_FILL" data-name="Layer3 0 MEMBER 0 FILL"><path class="cls-1" d="M340.08,267.57,384.5,158.91,57.26,27.49,12.83,136.15Z"/></g><g id="Layer3_0_MEMBER_1_FILL" data-name="Layer3 0 MEMBER 1 FILL"><path class="cls-2" d="M255.16,108.78a5.8,5.8,0,0,0-3.24-7.62L165.73,66.55a5.75,5.75,0,0,0-4.53,0A5.62,5.62,0,0,0,158,69.77l-2.4,5.87a5.55,5.55,0,0,0,0,4.48,5.69,5.69,0,0,0,3.23,3.15l86.19,34.61a5.88,5.88,0,0,0,7.68-3.23Z"/></g><g id="Layer3_0_MEMBER_2_FILL" data-name="Layer3 0 MEMBER 2 FILL"><path class="cls-2" d="M208,219.67a5.64,5.64,0,0,0,3.14-3.18l2.41-5.9a5.78,5.78,0,0,0-3.25-7.58l-86.19-34.62a5.75,5.75,0,0,0-4.53,0,5.6,5.6,0,0,0-3.16,3.17l-2.41,5.9a5.52,5.52,0,0,0,0,4.45,5.69,5.69,0,0,0,3.23,3.15l86.19,34.61A5.75,5.75,0,0,0,208,219.67Z"/></g><g id="Layer3_0_MEMBER_3_FILL" data-name="Layer3 0 MEMBER 3 FILL"><path class="cls-3" d="M400.18,143.31a4.78,4.78,0,0,0,0-3.71,4.55,4.55,0,0,0-2.66-2.62L62.41,2.39a4.82,4.82,0,0,0-3.78,0A4.76,4.76,0,0,0,56,5.09L2.4,136.2a4.65,4.65,0,0,0,0,3.73,4.75,4.75,0,0,0,2.69,2.64L340.25,277.16a4.66,4.66,0,0,0,3.75-.05,4.79,4.79,0,0,0,2.57-2.69l53.61-131.11m-15.62,15.62L340.15,267.56,12.84,136.12,57.26,27.49Z"/></g><path id="Layer3_0_MEMBER_3_1_STROKES" data-name="Layer3 0 MEMBER 3 1 STROKES" class="cls-4" d="M62.4,2.37a4.78,4.78,0,0,0-3.78,0A4.65,4.65,0,0,0,56,5.07L2.38,136.18a4.65,4.65,0,0,0,0,3.73,4.73,4.73,0,0,0,2.68,2.64L340.23,277.14a4.66,4.66,0,0,0,3.75-.05,4.84,4.84,0,0,0,2.58-2.69l53.6-131.11a4.73,4.73,0,0,0,0-3.71,4.55,4.55,0,0,0-2.66-2.62Z"/><g id="Layer3_0_MEMBER_4_FILL" data-name="Layer3 0 MEMBER 4 FILL"><path d="M45.71,103.31a2.69,2.69,0,0,0,1.6,1.6l19,7.6-7.65,18.8a2.53,2.53,0,0,0,0,2.15,2.72,2.72,0,0,0,1.55,1.5l15.4,6.2a2.8,2.8,0,0,0,2.2,0,2.75,2.75,0,0,0,1.5-1.55L87,120.81l19,7.6a2.8,2.8,0,0,0,2.3,0,2.7,2.7,0,0,0,1.65-1.6l6.15-15.1a2.8,2.8,0,0,0-.05-2.25,2.92,2.92,0,0,0-1.6-1.6l-19-7.6,7.65-18.8a3,3,0,0,0,0-2.2,3,3,0,0,0-1.6-1.55l-15.4-6.2a2.56,2.56,0,0,0-2.15,0,2.69,2.69,0,0,0-1.6,1.6L74.71,92l-18.95-7.6a3.05,3.05,0,0,0-2.3,0,2.72,2.72,0,0,0-1.6,1.55L45.71,101A3.05,3.05,0,0,0,45.71,103.31Z"/></g><path id="Layer3_0_MEMBER_4_1_STROKES" data-name="Layer3 0 MEMBER 4 1 STROKES" class="cls-5" d="M86.11,71.51a2.56,2.56,0,0,0-2.15,0,2.69,2.69,0,0,0-1.6,1.6L74.71,92l-18.95-7.6a3.05,3.05,0,0,0-2.3,0,2.72,2.72,0,0,0-1.6,1.55L45.71,101a3.05,3.05,0,0,0,0,2.3,2.69,2.69,0,0,0,1.6,1.6l19,7.6-7.65,18.8a2.53,2.53,0,0,0,0,2.15,2.72,2.72,0,0,0,1.55,1.5l15.4,6.2a2.8,2.8,0,0,0,2.2,0,2.75,2.75,0,0,0,1.5-1.55L87,120.81l19,7.6a2.8,2.8,0,0,0,2.3,0,2.7,2.7,0,0,0,1.65-1.6l6.15-15.1a2.8,2.8,0,0,0-.05-2.25,2.92,2.92,0,0,0-1.6-1.6l-19-7.6,7.65-18.8a3,3,0,0,0,0-2.2,3,3,0,0,0-1.6-1.55Z"/><g id="Layer3_0_MEMBER_5_FILL" data-name="Layer3 0 MEMBER 5 FILL"><path class="cls-2" d="M244,136.15l2.42-5.9a5.78,5.78,0,0,0-3.25-7.58L156.94,88.05a5.75,5.75,0,0,0-4.53,0,5.6,5.6,0,0,0-3.16,3.17l-2.42,5.89a5.58,5.58,0,0,0,0,4.46,5.64,5.64,0,0,0,3.23,3.14l86.19,34.62a5.75,5.75,0,0,0,4.53,0A5.68,5.68,0,0,0,244,136.15Z"/></g><g id="Layer3_0_MEMBER_6_MEMBER_0_FILL" data-name="Layer3 0 MEMBER 6 MEMBER 0 FILL"><path class="cls-6" d="M250.25,170.9a2.89,2.89,0,0,0-3.75,1.57l-13.61,33.27a2.75,2.75,0,0,0,0,2.18,2.68,2.68,0,0,0,1.56,1.53L268.09,223a2.83,2.83,0,0,0,2.23,0,2.78,2.78,0,0,0,1.55-1.55l13.6-33.27a2.71,2.71,0,0,0,0-2.18,2.83,2.83,0,0,0-1.6-1.55Z"/></g><g id="Layer3_0_MEMBER_6_MEMBER_1_FILL" data-name="Layer3 0 MEMBER 6 MEMBER 1 FILL"><path class="cls-7" d="M265.56,181.31a16.81,16.81,0,0,0-13.15.05,16.55,16.55,0,0,0-9.3,9.3,16.28,16.28,0,0,0,.15,13.05,17.17,17.17,0,0,0,22.55,9A16.95,16.95,0,0,0,275,190.41,16.62,16.62,0,0,0,265.56,181.31Z"/></g><g id="Layer3_0_MEMBER_7_MEMBER_0_FILL" data-name="Layer3 0 MEMBER 7 MEMBER 0 FILL"><path class="cls-6" d="M329.73,205.9a2.71,2.71,0,0,0,0-2.18,2.83,2.83,0,0,0-1.6-1.55l-33.6-13.5a2.92,2.92,0,0,0-3.75,1.57l-13.61,33.27a2.75,2.75,0,0,0,0,2.18,2.68,2.68,0,0,0,1.57,1.54l33.6,13.49a2.79,2.79,0,0,0,2.23,0,2.73,2.73,0,0,0,1.55-1.54Z"/></g><g id="Layer3_0_MEMBER_7_MEMBER_1_FILL" data-name="Layer3 0 MEMBER 7 MEMBER 1 FILL"><path class="cls-7" d="M309.81,199.06a17.26,17.26,0,0,0-22.4,9.4,16.4,16.4,0,0,0,.1,13,16.58,16.58,0,0,0,9.4,9.15,16.81,16.81,0,0,0,13.2-.1,16.95,16.95,0,0,0,9.15-22.35A16.79,16.79,0,0,0,309.81,199.06Z"/></g><g id="Layer3_0_MEMBER_8_FILL" data-name="Layer3 0 MEMBER 8 FILL"><path class="cls-2" d="M232,160.83a5.62,5.62,0,0,0,3.13-3.18l2.41-5.89a5.64,5.64,0,0,0,0-4.45,5.72,5.72,0,0,0-3.24-3.14l-86.19-34.61a5.79,5.79,0,0,0-4.53,0,5.66,5.66,0,0,0-3.16,3.17l-2.41,5.9a5.56,5.56,0,0,0,.05,4.45,5.66,5.66,0,0,0,3.23,3.15l86.19,34.61A5.75,5.75,0,0,0,232,160.83Z"/></g><g id="Layer3_0_MEMBER_9_FILL" data-name="Layer3 0 MEMBER 9 FILL"><path class="cls-6" d="M220.64,193.27l8-19.66a6.14,6.14,0,0,0,0-5,6.37,6.37,0,0,0-3.58-3.48l-85-34.13a6.35,6.35,0,0,0-5,0,6.24,6.24,0,0,0-3.54,3.53l-8,19.67a6.25,6.25,0,0,0,.06,5,6.33,6.33,0,0,0,3.59,3.48l85,34.12a6.43,6.43,0,0,0,5,0A6.28,6.28,0,0,0,220.64,193.27Z"/></g><g id="Layer3_0_MEMBER_10_FILL" data-name="Layer3 0 MEMBER 10 FILL"><path d="M146,146.33a5.7,5.7,0,0,0-4.44,0,5.56,5.56,0,0,0-3.11,3.13,5.49,5.49,0,0,0,0,4.39,5.59,5.59,0,0,0,3.16,3.08l16.54,6.64a5.59,5.59,0,0,0,4.43,0,5.72,5.72,0,0,0-.09-10.6Z"/></g><g id="Layer3_0_MEMBER_11_FILL" data-name="Layer3 0 MEMBER 11 FILL"><path d="M205.44,182.57a5.59,5.59,0,0,0,4.43,0,5.73,5.73,0,0,0-.08-10.6l-16.54-6.64a5.63,5.63,0,0,0-4.43,0,5.52,5.52,0,0,0-3.11,3.12,5.37,5.37,0,0,0,0,4.39,5.51,5.51,0,0,0,3.16,3.08Z"/></g><path id="Layer3_0_MEMBER_12_1_STROKES" data-name="Layer3 0 MEMBER 12 1 STROKES" class="cls-8" d="M61.9,91.75l-8.65,3.62,3.67,8.56.74-1.8,6.16,2.47,3.49-8.54-6.16-2.47Z"/><path id="Layer3_0_MEMBER_13_1_STROKES" data-name="Layer3 0 MEMBER 13 1 STROKES" class="cls-8" d="M104.92,109l3.67,8.56-8.65,3.62.74-1.81-6.16-2.47L98,108.39l6.16,2.47Z"/><path id="Layer3_0_MEMBER_14_1_STROKES" data-name="Layer3 0 MEMBER 14 1 STROKES" class="cls-8" d="M95.8,87.46l-3.66-8.57-8.65,3.62,1.85.74-2.49,6.1,8.61,3.45L94,86.71Z"/><path id="Layer3_0_MEMBER_15_1_STROKES" data-name="Layer3 0 MEMBER 15 1 STROKES" class="cls-8" d="M78.14,130.66l-8.65,3.62-3.67-8.57,1.86.75,2.49-6.09,8.6,3.45-2.49,6.09Z"/><path id="Layer3_0_MEMBER_16_1_STROKES" data-name="Layer3 0 MEMBER 16 1 STROKES" class="cls-9" d="M88.38,109.38a7.56,7.56,0,0,1-4.25,4.32,7.81,7.81,0,0,1-6.11,0,7.64,7.64,0,0,1-4.35-4.25A7.85,7.85,0,0,1,77.9,99.15a8,8,0,0,1,10.43,4.19,7.4,7.4,0,0,1,.06,6Z"/><g id="Layer3_0_MEMBER_17_FILL" data-name="Layer3 0 MEMBER 17 FILL"><path class="cls-1" d="M147,147.93a6.39,6.39,0,0,0-4.31-.28,4.11,4.11,0,0,0-2.81,2.4,4.06,4.06,0,0,0,.33,3.67,6.34,6.34,0,0,0,3.29,2.77L157.21,162a6.43,6.43,0,0,0,4.34.29,4,4,0,0,0,2.48-6.07,6.4,6.4,0,0,0-3.32-2.78Z"/></g><g id="Layer3_0_MEMBER_18_FILL" data-name="Layer3 0 MEMBER 18 FILL"><path class="cls-1" d="M204.46,181a6.42,6.42,0,0,0,4.3.27,4.1,4.1,0,0,0,2.82-2.4,4,4,0,0,0-.34-3.66,6.29,6.29,0,0,0-3.28-2.78l-13.72-5.51a6.33,6.33,0,0,0-4.31-.27,4.1,4.1,0,0,0-2.82,2.4,4,4,0,0,0,.34,3.66,6.34,6.34,0,0,0,3.28,2.78Z"/></g><g id="Layer2_0_FILL" data-name="Layer2 0 FILL"><path class="cls-10" d="M203.31,223.81c.26.27.41.38.45.35h.2l0,0,0-.05h-.1l-.55-.25m1,.4-.15-.05v.05h.15m-99.25-93.65q-2.4,3.19-5.55,7.6-5.81,8-14.2,20a37.1,37.1,0,0,0-3.7,6.35,21.11,21.11,0,0,0-1.8,7.1c-.07.77-.39,2.88-1,6.35q-2.25,12-4,24.4a4.79,4.79,0,0,0,.7,3.8c.33.43.7.88,1.1,1.35q5.1,6.3,13.8,18.1Q110,251,119.11,263.16a46.17,46.17,0,0,1,6.15,10.4q.75,1.85.9,11.35-.75,18.55-1,22.3-.55,9.94-1.45,29.85-.45,11.1-1.55,33.3-.15,4.2-1.15,26.35c0,.3,0,.77-.1,1.4a1.51,1.51,0,0,0,.85,1.2,24.87,24.87,0,0,0,2.65-.5l81.3-21.5q11.4-3,34.25-8.85a5.29,5.29,0,0,0,.7-2.6c0-1.17-.07-2.05-.1-2.65q-.41-7.31-.75-17.7-.36-11.85-.55-17.75l-1.25-38.95a24.33,24.33,0,0,0-.35-2.6,6.32,6.32,0,0,1,.5-4q.94-1.95,2.3-5.25t6-13q4.65-9.7,7.6-14.6t-.6-6.25a54.71,54.71,0,0,1-6.75-3,85.42,85.42,0,0,0-10-4.1c-4.6-1.63-7.4-2.62-8.4-2.95s-2.14-.72-3.3-1.05-2.32-.77-3.35-1.2q-.81,2.2-4.6,4.65a59.89,59.89,0,0,0-5.45,4c-1,.87-1.8,1.15-2.3.85a4,4,0,0,1-1.1-1.9l-4.65-12.1v-.05s-.14-.33-.4-.9a7.25,7.25,0,0,1-.2-1.25c0-.23,0-.37,0-.4l-.5-.2a6.85,6.85,0,0,0-.65-.25,5.81,5.81,0,0,1-.7-.25,7.42,7.42,0,0,1-.8-.4q-4.05-1.65-7.85-3.25l-4.45-1.85q-13.5-5.65-23.7-10-17.7-7.61-25.5-11.55-15.06-7.65-16.65-11c-1.07-2.27-2-4.38-2.95-6.35s-2.94-3.57-6-4.8-5.09-3-6-5.2c0-.43.23-.45.7,0q8.55,7.39,21,3.65a152,152,0,0,0,21.5-8.35,43.06,43.06,0,0,0,4.15-2.25,8.54,8.54,0,0,0,3-3.55,87.11,87.11,0,0,0,6-19.8c.1-.57.21-1.15.35-1.75.13-.9.26-1.82.4-2.75.16-1.2,0-2-.45-2.35s-1.22-.28-2.25.25q-7.16,3.49-17.95,4.3a11.71,11.71,0,0,0-2.85.55,5,5,0,0,0-1.7.9c-.17.13-.5.42-1,.85l-2.4,1.85a25.83,25.83,0,0,0-3.3,2.9,13.72,13.72,0,0,1,3.35-3c1.76-1.3,2.7-2.17,2.8-2.6s.25-.62.45-.45.35,0,.45-.5-.8-.9-2.7-1.3-3.47-.77-4.7-1l-4.65-.9q-6.45-1.35-9-2-5-1.4-8.9-2.15a4.19,4.19,0,0,0-4.5,1.6m1.45,7.6a6.73,6.73,0,0,1,.75-.65,17.3,17.3,0,0,1,4.95-2.85,8,8,0,0,1,5.9.6,28.48,28.48,0,0,0,5.1,1.85c1.06.27,2.7.62,4.9,1l.5.1q2.7.45,1.8,3.35l-.6,1.75a7.25,7.25,0,0,0-.25,1.45,1.43,1.43,0,0,0,.65,1.25,2.68,2.68,0,0,0,3.25,0,6,6,0,0,0,1.25-1q4.59-4.2,11.9-3.3a16.84,16.84,0,0,0,4.35-.2c2.56-.43,4-.67,4.35-.7,1-.07,1.65.15,1.85.65a1.65,1.65,0,0,1-.3,1.7q-10.31,14.1-24.2,14.65-11.61.49-17.25-8.15a1.7,1.7,0,0,0-1.4-1,3.37,3.37,0,0,0-1.55.6,75.14,75.14,0,0,0-15.55,12.5c-.44.43-1.07,1.12-1.9,2s-1.49,1.43-2.05,1.9a18.35,18.35,0,0,0-5.55,6.85,10.11,10.11,0,0,1,.9-4.85q1.39-3,2-4.45,1.5-4,2.35-6a21.51,21.51,0,0,1,3.1-5.6q3.54-5,5.3-7.5a36.07,36.07,0,0,1,5.45-6.15M219.86,283.41c1.7.07,2.53.75,2.5,2,0,1.5-.9,2.25-2.6,2.25h-6.6c-.34,0-1.57,0-3.7,0a10.66,10.66,0,0,1-4-.55l-1-.4a1.25,1.25,0,0,1-.6-1.05,2,2,0,0,1,1.4-2,8.77,8.77,0,0,1,4.75-.95q2.6.3,9.85.65m-65.75-78.35q3.09,1.31,5.6,2.4l3.65,1.65q5.89,2.74,16.3,7l1.25.45,5.75,2.25,6.2,2.3c.7.8-.44,1.23-3.4,1.3a33.89,33.89,0,0,1-6.85-.45l-40.85-8.3c-1.4-.27-1.89-1.07-1.45-2.4s.81-2.62,1.15-3.85l.45-1.7.4-1.65.4-1.8c.13-.77.36-1.23.7-1.4a1.9,1.9,0,0,1,1.4.2q3.09,1.35,9.3,3.95m-26.75-.5a.12.12,0,0,0,0,.1l2.5,10.6a1.73,1.73,0,0,1-.2,1.45,1.49,1.49,0,0,1-1.35.4,15.88,15.88,0,0,1-7.8-3.3,1.68,1.68,0,0,1-.3-2.4c.66-1.2,1.23-2.22,1.7-3,.2-.33.36-.63.5-.9a6.21,6.21,0,0,0,.35-.6,35.38,35.38,0,0,1,3-4.25h1.15l.5,2,0-.05m-9.55,3.75h.2a.65.65,0,0,0-.15.2,2.8,2.8,0,0,0-.25.65,1.3,1.3,0,0,1-.3.6l.5-1.45m80.5,58.15a2.58,2.58,0,0,1,2.3,1.55,2.48,2.48,0,0,1,0,2.7,6.22,6.22,0,0,1-2.15,1.65,170.93,170.93,0,0,0-14.7,8.8,10,10,0,0,1-4.75,1.5l-5.1.15a72.49,72.49,0,0,1-21.8-1.2c-.47,0-.82-.07-1.05-.1a.93.93,0,0,1-.1-1.7,8.23,8.23,0,0,1,1.15-.2,17.32,17.32,0,0,1,6.7-1,56.48,56.48,0,0,0,7.9-.3c1.76-.17,4.4-.43,7.9-.8a15.39,15.39,0,0,0,6-1.95q3.64-2.15,5.5-3.15,3.19-1.61,9.5-5.05a7.24,7.24,0,0,1,2.7-.9m-63.85,27.85q5.59,2.35,7.75,3.1a1.41,1.41,0,0,1,1,.9,4.26,4.26,0,0,1,0,1.2L141.31,331q-.3,6.4-.9,19.1-.6,11.14-1.3,19.1a19.83,19.83,0,0,0-.05,2.65c0,.57.08,1.45.15,2.65,0,.73-.25,1.17-.75,1.3a.47.47,0,0,1-.65-.25,2.35,2.35,0,0,0-.3-.75q-5.06-8.21-5.75-9.4a4.09,4.09,0,0,1-.5-2.35,23.41,23.41,0,0,0,.2-2.5l3-66.25m77.6,6.5a7.42,7.42,0,0,1,.1,1.2q.75,12,1.1,26.95.19,9,.35,27l-.05,2.9c-.14,1.33-.69,2-1.65,2.05a2,2,0,0,1-2.2-1.7,7.27,7.27,0,0,1-.3-2.45c0-.83-.1-2.52-.3-5.05a43.49,43.49,0,0,1-.3-6.2q-.06-9.56-.05-14.35-.06-8.55.1-14.35c.1-3.73.2-6.22.3-7.45a42.83,42.83,0,0,1,1.1-7.4c0-.53.06-.93.1-1.2a.76.76,0,0,1,.9-.65.82.82,0,0,1,.8.7m-22.9,7.4a2.1,2.1,0,0,1,1.1,1.3,6.14,6.14,0,0,1,.05,1.45q-1.8,31.4-1.8,31.7-.45,9.45-1.1,28.35-.1,2.1-.85,8.05a3.3,3.3,0,0,1-.3,1.1,1.07,1.07,0,0,1-1.1.4,1.21,1.21,0,0,1-1-.5,2.65,2.65,0,0,1-.25-1.15,129.68,129.68,0,0,1-.45-13.8q.24-9.19.3-13.85a201.79,201.79,0,0,1,1.65-20.7q.69-5.44,3-20.55A18.78,18.78,0,0,1,189.16,308.21Z"/><path class="cls-11" d="M217.06,235.51q3.8-2.44,4.6-4.65l-17.35-6.65h-.15a.53.53,0,0,0-.2-.05h-.2s-.19-.08-.45-.35l-.3-.1c-.07,0-.09.17,0,.4a7.25,7.25,0,0,0,.2,1.25c.26.57.4.87.4.9v.05l4.65,12.1a4,4,0,0,0,1.1,1.9c.5.3,1.26,0,2.3-.85a59.89,59.89,0,0,1,5.45-4m-74.85,61.9q-2.16-.75-7.75-3.1l-3,66.25a23.41,23.41,0,0,1-.2,2.5,4.09,4.09,0,0,0,.5,2.35q.69,1.2,5.75,9.4a2.35,2.35,0,0,1,.3.75.47.47,0,0,0,.65.25c.5-.13.75-.57.75-1.3-.07-1.2-.12-2.08-.15-2.65a19.83,19.83,0,0,1,.05-2.65q.69-7.95,1.3-19.1.6-12.71.9-19.1l1.95-31.5a4.26,4.26,0,0,0,0-1.2,1.41,1.41,0,0,0-1-.9m17.5-90q-2.51-1.1-5.6-2.4-6.21-2.59-9.3-3.95a1.9,1.9,0,0,0-1.4-.2c-.34.17-.57.63-.7,1.4l-.4,1.8-.4,1.65-.45,1.7c-.34,1.23-.72,2.52-1.15,3.85s.05,2.13,1.45,2.4l40.85,8.3a33.89,33.89,0,0,0,6.85.45c3-.07,4.1-.5,3.4-1.3l-6.2-2.3-5.75-2.25-1.25-.45q-10.41-4.31-16.3-7l-3.65-1.65m-52.45-70a6.73,6.73,0,0,0-.75.65,36.07,36.07,0,0,0-5.45,6.15q-1.75,2.5-5.3,7.5a21.51,21.51,0,0,0-3.1,5.6q-.85,2-2.35,6-.6,1.5-2,4.45a10.11,10.11,0,0,0-.9,4.85A18.35,18.35,0,0,1,93,165.81c.56-.47,1.25-1.1,2.05-1.9s1.46-1.62,1.9-2a75.14,75.14,0,0,1,15.55-12.5,3.37,3.37,0,0,1,1.55-.6,1.7,1.7,0,0,1,1.4,1q5.64,8.65,17.25,8.15,13.89-.56,24.2-14.65a1.65,1.65,0,0,0,.3-1.7c-.2-.5-.82-.72-1.85-.65-.34,0-1.79.27-4.35.7a16.84,16.84,0,0,1-4.35.2q-7.31-.9-11.9,3.3a6,6,0,0,1-1.25,1,2.68,2.68,0,0,1-3.25,0,1.43,1.43,0,0,1-.65-1.25,7.25,7.25,0,0,1,.25-1.45l.6-1.75q.9-2.9-1.8-3.35l-.5-.1c-2.2-.43-3.84-.78-4.9-1a28.48,28.48,0,0,1-5.1-1.85,8,8,0,0,0-5.9-.6A17.3,17.3,0,0,0,107.26,137.51Z"/><path class="cls-12" d="M190.26,309.51a2.1,2.1,0,0,0-1.1-1.3,18.78,18.78,0,0,0-.75,1.8q-2.31,15.11-3,20.55a201.79,201.79,0,0,0-1.65,20.7q-.06,4.65-.3,13.85a129.68,129.68,0,0,0,.45,13.8,2.65,2.65,0,0,0,.25,1.15,1.21,1.21,0,0,0,1,.5,1.07,1.07,0,0,0,1.1-.4,3.3,3.3,0,0,0,.3-1.1q.75-6,.85-8.05.65-18.9,1.1-28.35,0-.3,1.8-31.7a6.14,6.14,0,0,0-.05-1.45m21.9-7.5a7.42,7.42,0,0,0-.1-1.2.82.82,0,0,0-.8-.7.76.76,0,0,0-.9.65c0,.27-.07.67-.1,1.2a42.83,42.83,0,0,0-1.1,7.4c-.1,1.23-.2,3.72-.3,7.45s-.14,8.65-.1,14.35q0,4.8.05,14.35a43.49,43.49,0,0,0,.3,6.2c.2,2.53.3,4.22.3,5.05a7.27,7.27,0,0,0,.3,2.45,2,2,0,0,0,2.2,1.7c1,0,1.51-.72,1.65-2.05l.05-2.9q-.15-18-.35-27Q212.9,314,212.16,302Z"/><path class="cls-13" d="M200.61,268a2.58,2.58,0,0,0-2.3-1.55,7.24,7.24,0,0,0-2.7.9q-6.3,3.45-9.5,5.05-1.86,1-5.5,3.15a15.39,15.39,0,0,1-6,1.95c-3.5.37-6.14.63-7.9.8a56.48,56.48,0,0,1-7.9.3,17.32,17.32,0,0,0-6.7,1,8.23,8.23,0,0,0-1.15.2.93.93,0,0,0,.1,1.7c.23,0,.58.07,1.05.1a72.49,72.49,0,0,0,21.8,1.2l5.1-.15a10,10,0,0,0,4.75-1.5,170.93,170.93,0,0,1,14.7-8.8,6.22,6.22,0,0,0,2.15-1.65A2.48,2.48,0,0,0,200.61,268Z"/><path class="cls-14" d="M127.41,204.66a.12.12,0,0,1,0-.1l0,.05-.5-2h-1.15a35.38,35.38,0,0,0-3,4.25,6.21,6.21,0,0,1-.35.6c-.14.27-.3.57-.5.9-.47.83-1,1.85-1.7,3a1.68,1.68,0,0,0,.3,2.4,15.88,15.88,0,0,0,7.8,3.3,1.49,1.49,0,0,0,1.35-.4,1.73,1.73,0,0,0,.2-1.45Z"/><path class="cls-15" d="M222.36,285.46c0-1.3-.8-2-2.5-2q-7.26-.35-9.85-.65a8.77,8.77,0,0,0-4.75.95,2,2,0,0,0-1.4,2,1.25,1.25,0,0,0,.6,1.05l1,.4a10.66,10.66,0,0,0,4,.55c2.13,0,3.36,0,3.7,0h6.6C221.46,287.71,222.32,287,222.36,285.46Z"/></g><path id="Layer2_0_1_STROKES" data-name="Layer2 0 1 STROKES" class="cls-16" d="M221.66,230.86c1,.43,2.15.83,3.35,1.2s2.26.68,3.3,1.05,3.8,1.32,8.4,2.95a85.42,85.42,0,0,1,10,4.1,54.71,54.71,0,0,0,6.75,3q3.54,1.3.6,6.25t-7.6,14.6q-4.65,9.65-6,13t-2.3,5.25a6.32,6.32,0,0,0-.5,4,24.33,24.33,0,0,1,.35,2.6l1.25,38.95q.19,5.89.55,17.75.34,10.39.75,17.7c0,.6.06,1.48.1,2.65a5.29,5.29,0,0,1-.7,2.6q-22.86,5.85-34.25,8.85l-81.3,21.5a24.87,24.87,0,0,1-2.65.5,1.51,1.51,0,0,1-.85-1.2c.06-.63.1-1.1.1-1.4q1-22.15,1.15-26.35,1.1-22.2,1.55-33.3.9-19.9,1.45-29.85.2-3.75,1-22.3-.15-9.5-.9-11.35a46.17,46.17,0,0,0-6.15-10.4Q110,251,90.41,225.56q-8.7-11.81-13.8-18.1c-.4-.47-.77-.92-1.1-1.35a4.79,4.79,0,0,1-.7-3.8q1.8-12.34,4-24.4c.56-3.47.88-5.58,1-6.35a21.11,21.11,0,0,1,1.8-7.1,37.1,37.1,0,0,1,3.7-6.35q8.4-12,14.2-20,3.15-4.4,5.55-7.6a4.19,4.19,0,0,1,4.5-1.6q3.94.75,8.9,2.15,2.55.7,9,2l4.65.9c1.23.23,2.8.57,4.7,1s2.8.83,2.7,1.3-.25.63-.45.5-.35,0-.45.45-1,1.3-2.8,2.6a13.72,13.72,0,0,0-3.35,3,25.83,25.83,0,0,1,3.3-2.9l2.4-1.85c.5-.43.83-.72,1-.85a5,5,0,0,1,1.7-.9,11.71,11.71,0,0,1,2.85-.55q10.8-.8,17.95-4.3c1-.53,1.78-.62,2.25-.25s.61,1.15.45,2.35c-.14.93-.27,1.85-.4,2.75-.14.6-.25,1.18-.35,1.75a87.11,87.11,0,0,1-6,19.8,8.54,8.54,0,0,1-3,3.55,43.06,43.06,0,0,1-4.15,2.25,152,152,0,0,1-21.5,8.35q-12.41,3.75-21-3.65c-.47-.4-.7-.38-.7,0,.86,2.2,2.85,3.93,6,5.2s5.06,2.83,6,4.8,1.88,4.08,2.95,6.35,6.61,5.95,16.65,11q7.8,3.94,25.5,11.55,10.2,4.39,23.7,10l4.45,1.85q3.8,1.6,7.85,3.25l.8.35c.16,0,.62.24,1.37.55l.48.2.3.1.55.25m.15.05.15,0,.15.05,17.35,6.65"/><g id="Layer1_0_FILL" data-name="Layer1 0 FILL"><path class="cls-17" d="M164.08,31.38q-.77,3.84-2.55,11.46-1.51,6.93-2.24,11.67a3.2,3.2,0,0,0-.09,2.29,7.23,7.23,0,0,0,1,2.07c.85,1.32,1.69,2.61,2.54,3.89q2.24,3.34,4.73,6.79a5.78,5.78,0,0,0,1.68,1.67,2.55,2.55,0,0,0,2.39.09,127.17,127.17,0,0,0,14.25-5.71,11.35,11.35,0,0,1,1.86-.66,2.37,2.37,0,0,0,1.48-1.58l8.58-28.21a2.89,2.89,0,0,0,.17-1.3,2,2,0,0,0-.88-1.16q-1-.61-7.85-5.78a8.32,8.32,0,0,0-6.18-1.46,84.22,84.22,0,0,0-16.53,4.47c-.37.16-.77.32-1.21.48l-.7.29a1.2,1.2,0,0,0-.41.69m2.58,7.05c-.23-.24-.18-1.25.15-3a5.21,5.21,0,0,1,1.2-2.83,4.07,4.07,0,0,1,2.87-1q2.85-.11,7.05-.43l7.16-.53q1,.46,4.42,1.87A32.29,32.29,0,0,1,194,34.64c.33.21.49.41.49.61a4.67,4.67,0,0,1-.22.84q-1.52,3.78-2.37,4.17c-.67.35-2.11-.07-4.33-1.28a15.45,15.45,0,0,0-8.87-1.65c-3.91.6-6.83,1-8.77,1.15s-3,.19-3.3,0m79,4.28a1.47,1.47,0,0,0-1.71.32q-2.83,2.51-4.26,3.83a12.51,12.51,0,0,0-3.28,4.45q-5.58,13.5-10,25.43c-.24.66-.66,1.72-1.25,3.18a5.05,5.05,0,0,0-.06,3.3,41,41,0,0,0,6.1,11.71c1.41,1.82,2.22,2.87,2.45,3.14a5.46,5.46,0,0,0,3.87,1.61,31.24,31.24,0,0,0,7.52-1.07q2.72-.75,7.25-2.43a8.51,8.51,0,0,0,5.49-5.46Q261,80.07,262.21,74.6a76.55,76.55,0,0,0,2.18-16.47,15,15,0,0,0-1.14-6.47,8.58,8.58,0,0,0-5.08-4.24q-.75-.26-12.52-4.71m-1.71,6.47a3.38,3.38,0,0,1,2.47-1.4,8.5,8.5,0,0,1,2.59.69,49.16,49.16,0,0,0,6.18,1.5,5.85,5.85,0,0,1,3.4,2.71,6.12,6.12,0,0,1,.93,4.17l-4.93,16.72c-.21.66-.5,1-.87.88a3.05,3.05,0,0,1-1-.77c-3-3-4.84-4.84-5.56-5.69a2.84,2.84,0,0,0-2.93-1c-3.11.51-5.42.91-6.92,1.18A1.54,1.54,0,0,1,236,68c-.23-.23-.27-.65-.13-1.25l3.73-13.34A4.26,4.26,0,0,1,241.56,51a12.22,12.22,0,0,0,2.38-1.86m-11.66-2.84a1.66,1.66,0,0,0-.42-1.46,100.9,100.9,0,0,0-12.94-12.47,5.22,5.22,0,0,0-4.84-.88c-2,.5-3.26.84-3.77,1a17.42,17.42,0,0,0-5,2.72A10.14,10.14,0,0,0,202,40.23q-5,16.11-9,32.5a7.36,7.36,0,0,0-.2,2.94A5.43,5.43,0,0,0,194.4,78L199,82.63a48.08,48.08,0,0,0,4.93,4.18,2.36,2.36,0,0,0,2.14.39,38.16,38.16,0,0,0,5.23-1.71,48.18,48.18,0,0,1,5-1.87,4.38,4.38,0,0,0,2.38-1.36,5.1,5.1,0,0,0,1.09-2.48A108.88,108.88,0,0,1,224.09,67l7.73-19.47a3.68,3.68,0,0,0,.46-1.14m-7.79-3.14q2.74,2.7,2.94,3.65T226,51.28q-1.92,4-4.53,10.88a3.73,3.73,0,0,1-.37.94,1.16,1.16,0,0,1-.66.49.61.61,0,0,1-.74-.41,6.76,6.76,0,0,0-.34-.91L211.92,47c-.51-1.07-1.44-1.32-2.79-.74l-6.91,3.38a28.79,28.79,0,0,1,.95-5.43q1.23-4.79,1.23-5a1.17,1.17,0,0,1,.67-.84,4.35,4.35,0,0,1,1-.34s.74-.13,2.11-.41a5.65,5.65,0,0,0,2-.67c2.76-1.35,5.28-1.43,7.56-.22a22.46,22.46,0,0,1,5.51,5.09Z"/><path class="cls-11" d="M166.81,35.38c-.33,1.8-.38,2.81-.15,3s1.36.25,3.3,0,4.86-.55,8.77-1.15A15.45,15.45,0,0,1,187.6,39c2.22,1.21,3.66,1.63,4.33,1.28s1.36-1.65,2.37-4.17a4.67,4.67,0,0,0,.22-.84c0-.2-.16-.4-.49-.61a32.29,32.29,0,0,0-4.52-2.18q-3.42-1.41-4.42-1.87l-7.16.53q-4.2.33-7.05.43a4.07,4.07,0,0,0-2.87,1,5.21,5.21,0,0,0-1.2,2.83M288.26,72a7.18,7.18,0,0,0-2.77-1.89,4.6,4.6,0,0,0-3.5.24,30.61,30.61,0,0,1-4.28,1.33A30.83,30.83,0,0,0,273.39,73a4.53,4.53,0,0,0-.76.39,1.54,1.54,0,0,0-.51.64c-.24.8-.57,2.19-1,4.19A16.75,16.75,0,0,1,270,82c-.22,1-.2,1.61.07,1.85s.74.2,1.45,0c2-.69,5-1.73,9.1-3.09a2.87,2.87,0,0,1,3.09.65c.3.27,1.38,1.14,3.26,2.61,1.28,1,2.31,2,3.1,2.75a1.65,1.65,0,0,0,1.09.52,1.75,1.75,0,0,0,1-.64,48.56,48.56,0,0,1,3.93-4.78,1.68,1.68,0,0,0,.57-1.14,2,2,0,0,0-.63-1Q290,73.91,288.26,72m-41.85-24.2a3.38,3.38,0,0,0-2.47,1.4A12.22,12.22,0,0,1,241.56,51a4.26,4.26,0,0,0-1.94,2.37l-3.73,13.34c-.14.6-.1,1,.13,1.25a1.54,1.54,0,0,0,1.25.17c1.5-.27,3.81-.67,6.92-1.18a2.84,2.84,0,0,1,2.93,1c.72.85,2.57,2.74,5.56,5.69a3.05,3.05,0,0,0,1,.77c.37.08.66-.22.87-.88l4.93-16.72a6.12,6.12,0,0,0-.93-4.17,5.85,5.85,0,0,0-3.4-2.71,49.16,49.16,0,0,1-6.18-1.5,8.5,8.5,0,0,0-2.59-.69m-19-.93q-.19-.95-2.94-3.65l-1.28-1.42a22.46,22.46,0,0,0-5.51-5.09c-2.28-1.21-4.8-1.13-7.56.22a5.65,5.65,0,0,1-2,.67c-1.37.28-2.07.41-2.11.41a4.35,4.35,0,0,0-1,.34,1.17,1.17,0,0,0-.67.84q0,.24-1.23,5a28.79,28.79,0,0,0-.95,5.43l6.91-3.38c1.35-.58,2.28-.33,2.79.74l7.44,15.28a6.76,6.76,0,0,1,.34.91.61.61,0,0,0,.74.41,1.16,1.16,0,0,0,.66-.49,3.73,3.73,0,0,0,.37-.94q2.61-6.85,4.53-10.88Q227.61,47.82,227.43,46.85Z"/><path class="cls-10" d="M284.25,66.42c-1.21-1-3-1.27-5.43-.85a8.7,8.7,0,0,0-5.3,2.57,41.07,41.07,0,0,0-7.88,13.71,141.67,141.67,0,0,0-4.27,15.83,12.92,12.92,0,0,0,.95,3.37c.7,1.85,1.14,3.14,1.33,3.87a2.34,2.34,0,0,0,2.42,2q6.69.36,10.89.28a24,24,0,0,0,5.21-.56,10.77,10.77,0,0,0,4.54-2.33q8.43-7.26,15.1-20.09a2.23,2.23,0,0,0,.27-1.4,2.88,2.88,0,0,0-.78-1.26,102.23,102.23,0,0,0-8.37-7.7q-5.78-4.89-8.68-7.39m1.24,3.67A7.18,7.18,0,0,1,288.26,72Q290,73.91,296,79.72a2,2,0,0,1,.63,1,1.68,1.68,0,0,1-.57,1.14,48.56,48.56,0,0,0-3.93,4.78,1.75,1.75,0,0,1-1,.64,1.65,1.65,0,0,1-1.09-.52c-.79-.78-1.82-1.7-3.1-2.75-1.88-1.47-3-2.34-3.26-2.61a2.87,2.87,0,0,0-3.09-.65c-4.06,1.36-7.09,2.4-9.1,3.09-.71.23-1.19.23-1.45,0S269.82,83,270,82a16.75,16.75,0,0,0,1.11-3.73c.4-2,.73-3.39,1-4.19a1.54,1.54,0,0,1,.51-.64,4.53,4.53,0,0,1,.76-.39,30.83,30.83,0,0,1,4.32-1.37A30.61,30.61,0,0,0,282,70.33,4.6,4.6,0,0,1,285.49,70.09Z"/></g><path id="Layer1_0_1_STROKES" data-name="Layer1 0 1 STROKES" class="cls-18" d="M193.05,72.71q4-16.38,9-32.5a10.2,10.2,0,0,1,3.23-5,17.25,17.25,0,0,1,5.05-2.71c.5-.19,1.76-.54,3.77-1a5.23,5.23,0,0,1,4.83.88,101.64,101.64,0,0,1,12.95,12.47,1.67,1.67,0,0,1,.42,1.46,3.58,3.58,0,0,1-.47,1.14L224.1,66.93a113.52,113.52,0,0,0-4.32,12.83,5.05,5.05,0,0,1-1.09,2.49,4.48,4.48,0,0,1-2.37,1.36,46.69,46.69,0,0,0-5,1.86,38.61,38.61,0,0,1-5.23,1.71,2.41,2.41,0,0,1-2.15-.38A49.38,49.38,0,0,1,199,82.61c-.78-.81-2.31-2.37-4.57-4.68a5.53,5.53,0,0,1-1.56-2.27A7.23,7.23,0,0,1,193.05,72.71Zm44.5,27a5.47,5.47,0,0,1-3.87-1.62c-.23-.27-1.05-1.32-2.45-3.14a40.76,40.76,0,0,1-6.1-11.71,5,5,0,0,1,.05-3.3c.59-1.45,1-2.51,1.26-3.17q4.4-11.94,10-25.44a12.48,12.48,0,0,1,3.27-4.44Q241.11,45.52,244,43a1.44,1.44,0,0,1,1.7-.32l12.53,4.71a8.58,8.58,0,0,1,5.07,4.23,14.91,14.91,0,0,1,1.15,6.47,76.55,76.55,0,0,1-2.18,16.47Q261,80.06,257.8,90.71a8.5,8.5,0,0,1-5.49,5.45q-4.53,1.68-7.24,2.43A31.86,31.86,0,0,1,237.55,99.67Zm23.84-2a138.9,138.9,0,0,1,4.27-15.83,40.78,40.78,0,0,1,7.88-13.72,8.61,8.61,0,0,1,5.29-2.56q3.62-.65,5.44.84,2.91,2.5,8.67,7.4a104.34,104.34,0,0,1,8.38,7.69,3,3,0,0,1,.77,1.26,2.09,2.09,0,0,1-.27,1.4q-6.66,12.84-15.09,20.1a10.81,10.81,0,0,1-4.54,2.32,24,24,0,0,1-5.21.56q-4.2.08-10.9-.28a2.33,2.33,0,0,1-2.41-1.94c-.19-.74-.64-2-1.34-3.88A12.66,12.66,0,0,1,261.39,97.67ZM159.3,54.49q.73-4.74,2.25-11.66,1.78-7.62,2.54-11.46a1.28,1.28,0,0,1,.42-.7l.7-.28c.44-.16.84-.32,1.21-.48A83.62,83.62,0,0,1,183,25.43a8.34,8.34,0,0,1,6.17,1.46c4.55,3.44,7.16,5.37,7.86,5.78a2,2,0,0,1,.88,1.17,2.87,2.87,0,0,1-.17,1.29l-8.58,28.21a2.39,2.39,0,0,1-1.48,1.58,10.3,10.3,0,0,0-1.86.67,130.75,130.75,0,0,1-14.25,5.71,2.63,2.63,0,0,1-2.4-.09,6.09,6.09,0,0,1-1.67-1.68q-2.49-3.45-4.74-6.78c-.84-1.28-1.69-2.58-2.53-3.9a7.7,7.7,0,0,1-1-2.06A3.22,3.22,0,0,1,159.3,54.49Z"/></g></g></svg>